<svg width="35" height="36" viewBox="0 0 35 36" fill="none" xmlns="http://www.w3.org/2000/svg">
<g clip-path="url(#clip0_17_541)">
<rect x="1" y="2" width="33" height="33" fill="#FE9563"/>
<path d="M26.5234 11.1339V12.9754C26.5234 14.5983 22.4817 15.9219 17.5 15.9219C12.5183 15.9219 8.47656 14.5983 8.47656 12.9754V11.1339C8.47656 9.51109 12.5183 8.1875 17.5 8.1875C22.4817 8.1875 26.5234 9.51109 26.5234 11.1339ZM26.5234 15.2773V19.4208C26.5234 21.0436 22.4817 22.3672 17.5 22.3672C12.5183 22.3672 8.47656 21.0436 8.47656 19.4208V15.2773C10.4152 16.6124 13.9635 17.234 17.5 17.234C21.0365 17.234 24.5848 16.6124 26.5234 15.2773ZM26.5234 21.7227V25.8661C26.5234 27.4889 22.4817 28.8125 17.5 28.8125C12.5183 28.8125 8.47656 27.4889 8.47656 25.8661V21.7227C10.4152 23.0578 13.9635 23.6793 17.5 23.6793C21.0365 23.6793 24.5848 23.0578 26.5234 21.7227Z" fill="#FAFBFC"/>
</g>
<defs>
<clipPath id="clip0_17_541">
<rect x="1" y="2" width="33" height="33" rx="8" fill="white"/>
</clipPath>
</defs>
</svg>
