<svg width="17" height="17" viewBox="0 0 17 17" fill="none" xmlns="http://www.w3.org/2000/svg">
<path fill-rule="evenodd" clip-rule="evenodd" d="M4.32264 5.00865C4.58295 4.74834 5.005 4.74834 5.26531 5.00865L8.1268 7.87014L10.9883 5.00865C11.2486 4.74834 11.6706 4.74834 11.9309 5.00865C12.1913 5.26896 12.1913 5.691 11.9309 5.95131L9.06946 8.8128L11.9309 11.6743C12.1913 11.9346 12.1913 12.3566 11.9309 12.617C11.6706 12.8773 11.2486 12.8773 10.9883 12.617L8.1268 9.75546L5.26531 12.617C5.005 12.8773 4.58295 12.8773 4.32264 12.617C4.06233 12.3566 4.06233 11.9346 4.32264 11.6743L7.18413 8.8128L4.32264 5.95131C4.06233 5.691 4.06233 5.26896 4.32264 5.00865Z" fill="#F27121" stroke="#F27121" stroke-width="1.0665" stroke-linecap="round" stroke-linejoin="round"/>
</svg>
