<svg width="14" height="14" viewBox="0 0 14 14" fill="none" xmlns="http://www.w3.org/2000/svg">
<g id="people">
<path id="Vector" d="M7.17363 6.00498C8.2044 6.00498 9.04001 5.16937 9.04001 4.1386C9.04001 3.10782 8.2044 2.27222 7.17363 2.27222C6.14286 2.27222 5.30725 3.10782 5.30725 4.1386C5.30725 5.16937 6.14286 6.00498 7.17363 6.00498Z" fill="#ADAFBB" stroke="#ADAFBB" stroke-width="1.0665" stroke-linecap="round" stroke-linejoin="round"/>
<path id="Vector_2" d="M2.37439 11.5507V11.8707H11.9729V11.5507C11.9729 10.3562 11.9729 9.75886 11.7404 9.30259C11.5359 8.90124 11.2096 8.57491 10.8083 8.37041C10.352 8.13794 9.75469 8.13794 8.5601 8.13794H5.7872C4.59261 8.13794 3.99531 8.13794 3.53904 8.37041C3.13768 8.57491 2.81137 8.90124 2.60687 9.30259C2.37439 9.75886 2.37439 10.3562 2.37439 11.5507Z" fill="#ADAFBB" stroke="#ADAFBB" stroke-width="1.0665" stroke-linecap="round" stroke-linejoin="round"/>
</g>
</svg>
