<svg width="35" height="33" viewBox="0 0 35 33" fill="none" xmlns="http://www.w3.org/2000/svg">
<g clip-path="url(#clip0_17_544)">
<rect x="1" width="33" height="33" rx="8" fill="#FE9563"/>
<path d="M9.37891 15.4688C10.6587 15.4688 11.6992 14.4282 11.6992 13.1484C11.6992 11.8686 10.6587 10.8281 9.37891 10.8281C8.09911 10.8281 7.05859 11.8686 7.05859 13.1484C7.05859 14.4282 8.09911 15.4688 9.37891 15.4688ZM25.6211 15.4688C26.9009 15.4688 27.9414 14.4282 27.9414 13.1484C27.9414 11.8686 26.9009 10.8281 25.6211 10.8281C24.3413 10.8281 23.3008 11.8686 23.3008 13.1484C23.3008 14.4282 24.3413 15.4688 25.6211 15.4688ZM26.7812 16.6289H24.4609C23.8229 16.6289 23.2464 16.8863 22.8258 17.3032C24.2869 18.1045 25.3238 19.5511 25.5486 21.2695H27.9414C28.5831 21.2695 29.1016 20.7511 29.1016 20.1094V18.9492C29.1016 17.6694 28.061 16.6289 26.7812 16.6289ZM17.5 16.6289C19.7442 16.6289 21.5605 14.8125 21.5605 12.5684C21.5605 10.3242 19.7442 8.50781 17.5 8.50781C15.2558 8.50781 13.4395 10.3242 13.4395 12.5684C13.4395 14.8125 15.2558 16.6289 17.5 16.6289ZM20.2844 17.7891H19.9835C19.2294 18.1516 18.3919 18.3691 17.5 18.3691C16.6081 18.3691 15.7743 18.1516 15.0165 17.7891H14.7156C12.4098 17.7891 10.5391 19.6598 10.5391 21.9656V23.0098C10.5391 23.9705 11.3185 24.75 12.2793 24.75H22.7207C23.6815 24.75 24.4609 23.9705 24.4609 23.0098V21.9656C24.4609 19.6598 22.5902 17.7891 20.2844 17.7891ZM12.1742 17.3032C11.7536 16.8863 11.1771 16.6289 10.5391 16.6289H8.21875C6.93895 16.6289 5.89844 17.6694 5.89844 18.9492V20.1094C5.89844 20.7511 6.41688 21.2695 7.05859 21.2695H9.44779C9.6762 19.5511 10.7131 18.1045 12.1742 17.3032Z" fill="#FAFBFC"/>
</g>
<defs>
<clipPath id="clip0_17_544">
<rect x="1" width="33" height="33" rx="8" fill="white"/>
</clipPath>
</defs>
</svg>
