<svg width="14" height="14" viewBox="0 0 14 14" fill="none" xmlns="http://www.w3.org/2000/svg">
<g id="setting-config">
<path id="Vector (Stroke)" fill-rule="evenodd" clip-rule="evenodd" d="M7.7081 1.995C8.0026 1.995 8.24135 2.23374 8.24135 2.52825V4.66125C8.24135 4.95576 8.0026 5.1945 7.7081 5.1945C7.41359 5.1945 7.17485 4.95576 7.17485 4.66125V4.128H1.84233C1.54783 4.128 1.30908 3.88926 1.30908 3.59475C1.30908 3.30024 1.54783 3.0615 1.84233 3.0615H7.17485V2.52825C7.17485 2.23374 7.41359 1.995 7.7081 1.995ZM9.30785 3.59475C9.30785 3.30024 9.54659 3.0615 9.8411 3.0615H11.4409C11.7354 3.0615 11.9741 3.30024 11.9741 3.59475C11.9741 3.88926 11.7354 4.128 11.4409 4.128H9.8411C9.54659 4.128 9.30785 3.88926 9.30785 3.59475ZM6.10834 5.72775C6.40285 5.72775 6.64159 5.9665 6.64159 6.261V6.79426H11.9741C12.2686 6.79426 12.5074 7.033 12.5074 7.32751C12.5074 7.62201 12.2686 7.86076 11.9741 7.86076H6.64159V8.39401C6.64159 8.68852 6.40285 8.92726 6.10834 8.92726C5.81384 8.92726 5.57509 8.68852 5.57509 8.39401V6.261C5.57509 5.9665 5.81384 5.72775 6.10834 5.72775ZM1.30908 7.32751C1.30908 7.033 1.54783 6.79426 1.84233 6.79426H3.97534C4.26984 6.79426 4.50859 7.033 4.50859 7.32751C4.50859 7.62201 4.26984 7.86076 3.97534 7.86076H1.84233C1.54783 7.86076 1.30908 7.62201 1.30908 7.32751ZM7.7081 9.46051C8.0026 9.46051 8.24135 9.69926 8.24135 9.99376V12.1268C8.24135 12.4213 8.0026 12.66 7.7081 12.66C7.41359 12.66 7.17485 12.4213 7.17485 12.1268V11.5935H1.84233C1.54783 11.5935 1.30908 11.3548 1.30908 11.0603C1.30908 10.7658 1.54783 10.527 1.84233 10.527H7.17485V9.99376C7.17485 9.69926 7.41359 9.46051 7.7081 9.46051ZM9.30785 11.0603C9.30785 10.7658 9.54659 10.527 9.8411 10.527H11.4409C11.7354 10.527 11.9741 10.7658 11.9741 11.0603C11.9741 11.3548 11.7354 11.5935 11.4409 11.5935H9.8411C9.54659 11.5935 9.30785 11.3548 9.30785 11.0603Z" fill="#FE9868"/>
</g>
</svg>
