<svg width="73" height="122" viewBox="0 0 73 122" fill="none" xmlns="http://www.w3.org/2000/svg">
<g id="Skateboy Illustration" clip-path="url(#clip0_2_10828)">
<g id="Group">
<g id="Group_2">
<g id="Group_3">
<path id="Vector" d="M73.0004 109.052V109.967L72.3674 110.882V109.263L73.0004 109.052Z" fill="#7E412D"/>
<path id="Vector_2" d="M13.3618 109.826V110.952L14.2057 111.515L14.487 110.178L13.3618 109.826Z" fill="#7E412D"/>
<path id="Vector_3" d="M26.0218 113.063L15.754 109.756C15.754 109.756 13.7145 109.263 13.3629 110.53C13.2222 111.093 13.5035 111.656 13.9958 111.937C15.8947 113.063 21.8022 116.3 26.0922 116.441L61.6779 116.582C61.8185 116.582 61.9592 116.582 62.0999 116.511C63.5767 116.019 73.0006 112.712 73.0006 109.967C73.0006 108.138 61.8186 113.204 61.8186 113.204L26.0218 113.063Z" fill="#7E412D"/>
<path id="Vector_4" d="M26.0216 112.219L15.7537 108.912C15.7537 108.912 13.7846 108.419 13.3626 109.615C13.1516 110.178 13.4329 110.741 13.9252 111.023C15.8241 112.149 21.7316 115.386 26.0216 115.526L61.8183 115.667C61.8183 115.667 72.93 112.078 72.93 109.052C72.93 107.223 61.748 112.289 61.748 112.289L26.0216 112.219Z" fill="#BC7153"/>
</g>
<g id="Group_4">
<path id="Vector_5" d="M29.8893 119.185C29.8893 120.733 28.6937 122 27.1465 122C25.5993 122 24.3334 120.804 24.3334 119.256C24.3334 117.708 25.529 116.441 27.0762 116.441C28.6234 116.441 29.8893 117.637 29.8893 119.185Z" fill="#17161C"/>
<path id="Vector_6" d="M28.061 119.185C28.061 119.678 27.639 120.1 27.1467 120.171C26.6544 120.171 26.2325 119.748 26.1621 119.256C26.1621 118.763 26.5841 118.341 27.0764 118.271C27.639 118.271 28.061 118.693 28.061 119.185Z" fill="#C6C6C6"/>
</g>
<g id="Group_5">
<path id="Vector_7" d="M61.3956 119.185C61.3956 120.733 60.2 122 58.6528 122C57.1056 122 55.8397 120.804 55.8397 119.256C55.8397 117.708 57.0353 116.441 58.5825 116.441C60.0594 116.441 61.3253 117.637 61.3956 119.185Z" fill="#17161C"/>
<path id="Vector_8" d="M59.4972 119.185C59.4972 119.678 59.0752 120.1 58.5829 120.171C58.0907 120.171 57.6687 119.748 57.5984 119.256C57.5984 118.763 58.0203 118.341 58.5126 118.271C59.0049 118.2 59.4972 118.693 59.4972 119.185Z" fill="#C6C6C6"/>
</g>
</g>
<g id="Group_6">
<g id="Group_7">
<g id="Group_8">
<path id="Vector_9" d="M6.18683 100.327L12.8679 92.7971L15.1888 96.8785L8.43731 103.352L6.18683 100.327Z" fill="#E2E2E2"/>
<g id="Group_9">
<path id="Vector_10" d="M6.74928 99.5524C6.88994 99.3413 6.74928 99.0598 6.5383 98.9191C6.11634 98.7784 5.34273 98.5673 4.28782 98.6376C2.38898 98.8487 1.89668 99.4117 1.89668 99.4117L9.70304 114.893C10.547 114.47 10.9689 113.556 10.8283 112.571L8.92944 104.126L9.63271 102.649C9.70304 102.508 9.56239 102.297 9.42173 102.297H8.08551C8.01518 102.438 5.90535 101.241 6.74928 99.5524Z" fill="#1D1C21"/>
<path id="Vector_11" d="M9.68203 115.001L1.85123 99.4867L0.846833 99.9942L8.67764 115.508L9.68203 115.001Z" fill="#EFEEED"/>
</g>
<path id="Vector_12" d="M26.1598 49.4503L31.6453 83.016C32.1376 86.5344 29.1838 89.5602 25.6675 89.0676C23.4873 88.7862 21.7291 87.2381 21.1665 85.0567L13.8524 57.6131C13.5008 56.2761 13.5008 54.8687 13.7821 53.5317L15.048 47.2689L26.1598 49.4503Z" fill="#060324"/>
<path id="Vector_13" d="M21.2371 80.0605L9.07042 94.6971L14.9076 101.101L29.6061 88.3639C32.0675 86.1825 32.3488 82.453 30.1687 79.9901C27.8479 77.2457 23.5579 77.2458 21.2371 80.0605Z" fill="#060324"/>
</g>
<g id="Group_10">
<g id="Group_11">
<path id="Vector_14" d="M37.3412 109.756L38.6774 99.4119L43.3893 98.9193L40.9982 108.841L37.3412 109.756Z" fill="#E2E2E2"/>
<g id="Group_12">
<path id="Vector_15" d="M37.6921 108.489C37.5515 108.278 37.2702 108.208 37.0592 108.419C36.7076 108.7 36.2153 109.263 35.7933 110.319C35.09 112.078 35.3713 112.852 35.3713 112.852L52.7422 112.923C52.7422 112.008 52.1093 111.163 51.195 110.882L42.8261 108.7L41.9118 107.363C41.7711 107.223 41.5602 107.223 41.4898 107.434L40.8569 108.63C40.8569 108.63 38.8174 110.037 37.6921 108.489Z" fill="#1D1C21"/>
<path id="Vector_16" d="M52.7466 112.914L35.3757 112.796L35.3681 113.922L52.739 114.039L52.7466 112.914Z" fill="#EFEEED"/>
</g>
</g>
<path id="Vector_17" d="M16.4547 61.2722L37.553 57.3316L31.0125 44.4542L15.6108 45.932L16.4547 61.2722Z" fill="#060324"/>
<path id="Vector_18" d="M37.5525 76.6829L36.2867 100.819L44.8666 102.227L48.4533 83.0864C49.0863 79.8494 46.9061 76.7532 43.671 76.1903C40.1547 75.4866 37.6932 73.0941 37.5525 76.6829Z" fill="#060324"/>
<path id="Vector_19" d="M37.553 57.3317L47.8208 78.5125C49.0867 81.3976 47.4692 84.6345 44.4451 85.4086C42.3353 85.9012 40.0848 84.9864 38.9596 83.1568L22.6436 57.3317H37.553Z" fill="#060324"/>
</g>
</g>
<g id="Group_13">
<g id="Group_14">
<g id="Group_15">
<path id="Vector_20" d="M53.9407 61.8352L60.4811 62.6093C60.8328 62.6796 61.0438 62.8907 61.1141 63.2426C61.1844 63.5944 60.9031 63.9463 60.5515 64.0166L58.723 64.2981L61.4657 67.3239C61.8174 67.7461 61.6767 68.3091 61.1844 68.5202L58.3713 69.6461C58.1603 69.7164 57.879 69.7164 57.668 69.5757C56.2615 68.6609 52.3935 65.8462 50.7759 63.4537L53.9407 61.8352Z" fill="#F9BFA1"/>
</g>
<path id="Vector_21" d="M35.5148 27.9178L36.4291 48.3246C36.5697 50.8578 39.2422 52.4763 41.4927 51.3504C42.7586 50.7875 44.1651 48.7468 44.1651 47.4098L43.4618 27.7067C43.4618 25.5253 41.7036 23.7661 39.5235 23.7661C37.273 23.6957 35.4445 25.5956 35.5148 27.9178Z" fill="#FE9868"/>
<path id="Vector_22" d="M42.9691 45.5098L56.1907 61.6242L51.9007 65.3537L37.4836 50.7171C35.7254 48.9579 36.5693 45.932 38.9605 45.2987C40.2263 44.9469 42.1252 44.595 42.9691 45.5098Z" fill="#FE9868"/>
</g>
<g id="Group_16">
<path id="Vector_23" d="M37.2023 21.5142C37.2023 21.5142 29.0443 19.1921 24.895 22.2179C20.7457 25.2437 11.9547 49.5912 11.9547 49.5912C11.9547 49.5912 17.7919 57.8946 34.4596 52.4059C34.5299 52.054 35.4441 39.81 35.4441 39.81C38.3276 36.7138 47.5405 27.4955 41.4923 23.3438L37.2023 21.5142Z" fill="#FE9868"/>
<path id="Vector_24" d="M36.0771 39.1767C36.0771 39.1767 38.3276 36.362 41 32.4917" stroke="#E54141" stroke-width="0.200549" stroke-miterlimit="10"/>
</g>
<g id="Group_17">
<g id="Group_18">
<path id="Vector_25" d="M4.28905 52.5467L8.64936 57.4725C8.86034 57.7539 8.86034 58.1058 8.71968 58.3873C8.43837 58.6687 8.08674 58.7391 7.7351 58.5984L6.18789 57.6132V61.6946C6.18789 62.1871 5.62527 62.6093 5.13298 62.3982L2.31988 61.4131C2.10889 61.2724 1.96824 61.0612 1.89791 60.8501C1.40562 59.2317 -0.352571 54.2355 0.842998 51.7023L4.28905 52.5467Z" fill="#F9BFA1"/>
</g>
<path id="Vector_26" d="M26.512 21.3736L7.66424 29.1141C5.34343 30.0992 4.71048 33.1251 6.539 34.8843C7.52358 35.8694 9.56308 36.9249 10.8993 36.4324L27.356 29.677C29.3955 28.9733 30.4504 26.7216 29.7471 24.6809C28.9735 22.4995 28.6218 20.4588 26.512 21.3736Z" fill="#FE9868"/>
<path id="Vector_27" d="M13.2204 34.1102L5.55466 53.7429L-0.0012207 51.7726L5.62498 31.3658C6.25793 28.9733 9.28201 28.1992 11.0402 29.9584C11.9545 30.8029 13.6423 32.9139 13.2204 34.1102Z" fill="#FE9868"/>
<path id="Vector_28" d="M18.4255 33.3362L26.3021 30.0992" stroke="#E54141" stroke-width="0.200549" stroke-miterlimit="10"/>
</g>
</g>
<g id="Group_19">
<g id="Group_20">
<path id="Vector_29" d="M32.7018 20.7401L30.8733 20.5994C30.8733 20.5994 29.6778 24.9622 34.5304 26.2288C35.1633 26.3696 35.7963 26.4399 36.3589 26.3696C37.5544 26.2288 39.4533 25.5251 40.0159 22.7104L39.0313 22.2882L32.7018 20.7401Z" fill="#F5BFA1"/>
<g id="Group_21">
<path id="Vector_30" d="M32.491 21.3031L35.0931 15.1107L41.5632 17.7847L38.9611 23.9771C38.1875 25.7363 36.148 26.5807 34.3898 25.8771C32.6316 25.1734 31.7877 23.0623 32.491 21.3031Z" fill="#F5BFA1"/>
</g>
<path id="Vector_31" d="M35.5145 13.4219C35.5145 13.4219 32.9827 21.4439 39.1715 23.4845L40.7891 19.6143L35.5145 13.4219Z" fill="#E39780"/>
</g>
<path id="Vector_32" d="M49.9315 16.0959C49.6502 17.2922 48.4546 18.0662 47.2591 17.7847C46.0635 17.5033 45.2899 16.307 45.5712 15.1107C45.8525 13.9145 47.0481 13.1404 48.2436 13.4219C49.5095 13.633 50.2128 14.8293 49.9315 16.0959Z" fill="#E39780"/>
<path id="Vector_33" d="M50.4246 8.98865C50.4246 8.98865 52.3937 13.3515 47.4005 14.3366L46.5565 13.7033C46.5565 13.7033 45.6423 9.27013 48.2444 7.44055L50.4246 8.98865Z" fill="#171E21"/>
<path id="Vector_34" d="M40.2974 21.866L40.0864 21.7956C36.4997 20.9512 34.3196 17.4328 35.1635 13.844L36.8514 6.5961C37.0623 5.68131 37.9766 5.11837 38.8908 5.32947L47.4005 7.29978C49.018 7.65162 50.0729 9.34046 49.651 10.9589L48.2444 16.9402C47.4708 20.4586 43.8841 22.7104 40.2974 21.866Z" fill="#F5BFA1"/>
<g id="Group_22">
<path id="Vector_35" d="M42.7583 14.4774C42.688 14.7588 42.3364 14.8996 42.0551 14.8292C41.7738 14.7588 41.6331 14.407 41.7034 14.1255C41.7738 13.844 42.1254 13.7033 42.4067 13.7737C42.688 13.9144 42.8287 14.1959 42.7583 14.4774Z" fill="#171E21"/>
<path id="Vector_36" d="M47.2599 15.5329C47.1896 15.8144 46.8379 15.9551 46.5566 15.8847C46.2753 15.8144 46.1346 15.4625 46.205 15.1811C46.2753 14.8996 46.6269 14.7588 46.9082 14.8292C47.1896 14.8996 47.3302 15.2514 47.2599 15.5329Z" fill="#171E21"/>
<path id="Vector_37" d="M45.0087 15.6033L44.7978 17.1514C44.7978 17.1514 44.5164 17.9254 43.4615 17.3625" stroke="#E39780" stroke-width="0.163702" stroke-miterlimit="10" stroke-linecap="round" stroke-linejoin="round"/>
<path id="Vector_38" d="M41.1407 12.4367H41.211L43.6021 12.9293C43.8834 12.9997 44.0944 12.7886 44.1648 12.5071C44.2351 12.2256 44.0241 12.0145 43.7428 11.9441L41.4923 11.5219C41.211 11.4516 41 11.6627 40.9297 11.9441C40.8594 12.1553 40.9297 12.3664 41.1407 12.4367Z" fill="#171E21"/>
<path id="Vector_39" d="M46.6265 13.6329H46.6968L48.1737 13.9144C48.455 13.9848 48.7363 13.7737 48.7363 13.4922C48.8067 13.2107 48.5957 12.9293 48.3144 12.9293L46.8375 12.6478C46.5562 12.5774 46.2749 12.7885 46.2749 13.07C46.2749 13.2811 46.4155 13.4922 46.6265 13.6329Z" fill="#171E21"/>
<path id="Vector_40" d="M41.352 17.3624C41.352 17.3624 41.2817 18.7698 43.7431 19.0513" stroke="#E39780" stroke-width="0.163702" stroke-miterlimit="10" stroke-linecap="round" stroke-linejoin="round"/>
</g>
<path id="Vector_41" d="M35.6558 12.8589C35.6558 12.8589 39.4535 13.4922 40.5084 6.52579L36.992 3.71106L36.7811 4.69621L35.6558 12.8589Z" fill="#171E21"/>
<path id="Vector_42" d="M35.7967 12.1552L34.4604 11.8034C34.4604 11.8034 35.445 7.58132 35.0934 6.31469C34.6714 4.76659 36.0076 0.263019 39.1724 1.74075C40.0866 2.23333 41.1416 2.44443 42.1965 2.3037C42.4778 2.23333 42.7591 2.16296 43.0404 2.09259C44.7986 1.45928 46.2051 -0.651768 49.4402 1.03707C53.0269 2.86664 54.5741 8.56647 50.9874 10.5368C48.8073 11.733 40.7196 9.05905 39.6647 7.65168L37.3439 9.8331L35.7967 12.1552Z" fill="#171E21"/>
<path id="Vector_43" d="M37.1325 12.7885C36.8512 13.9848 35.6557 14.7588 34.4601 14.4774C33.2645 14.1959 32.4909 12.9996 32.7722 11.8034C33.0535 10.6071 34.2491 9.83306 35.4447 10.1145C36.6402 10.396 37.4138 11.5923 37.1325 12.7885Z" fill="#F5BFA1"/>
</g>
</g>
</g>
</g>
<defs>
<clipPath id="clip0_2_10828">
<rect width="73" height="121.667" fill="white" transform="translate(0 0.333374)"/>
</clipPath>
</defs>
</svg>
