<svg width="555" height="560" viewBox="0 0 555 560" fill="none" xmlns="http://www.w3.org/2000/svg">
<path d="M74.1625 385.44L58.7687 385.793L50.8955 385.91C48.3103 385.91 45.6075 385.91 43.0223 386.028H42.5523V385.558L42.4348 372.397V371.809H43.0223L58.5336 371.927C63.7041 371.927 68.8745 372.044 74.045 372.162H74.3975V372.514C74.3975 374.747 74.28 376.98 74.28 379.212L74.1625 385.44ZM74.1625 385.44L74.045 378.742C74.045 376.51 73.9275 374.394 73.9275 372.279L74.28 372.632C69.1095 372.749 63.9391 372.867 58.7687 372.867L43.2573 372.984L43.8449 372.397L43.7274 385.558L43.2573 385.088C45.8425 385.088 48.4278 385.088 50.8955 385.205L58.6511 385.323L74.1625 385.44Z" fill="#EBEBEB"/>
<path d="M56.7712 402.01L41.3773 402.362L33.5042 402.48C30.9189 402.48 28.2162 402.48 25.631 402.597H25.161V402.127L25.0434 388.966V388.378H25.631L41.1423 388.496C46.3128 388.496 51.4832 388.613 56.6536 388.731H57.0062V389.083C57.0062 391.316 56.8887 393.549 56.8887 395.782L56.7712 402.01ZM56.7712 402.01L56.6536 395.312C56.6536 393.079 56.5361 390.964 56.5361 388.848L56.8887 389.201C51.7182 389.319 46.5478 389.436 41.3773 389.436L25.866 389.554L26.4536 388.966L26.2185 402.01L25.7485 401.54C28.3337 401.54 30.9189 401.54 33.3867 401.657L41.1423 401.775L56.7712 402.01Z" fill="#EBEBEB"/>
<path d="M91.5539 388.848H60.4137V402.009H91.5539V388.848Z" fill="#EBEBEB"/>
<path d="M445.378 199.892L429.985 200.245L422.111 200.362C419.526 200.362 416.823 200.362 414.238 200.48H413.768V200.01L413.651 186.849V186.261H414.238L429.749 186.379C434.92 186.379 440.09 186.496 445.261 186.614H445.613V186.966C445.613 189.199 445.496 191.431 445.496 193.664L445.378 199.892ZM445.378 199.892L445.261 193.194C445.261 190.961 445.143 188.846 445.143 186.731L445.496 187.084C440.325 187.201 435.155 187.319 429.985 187.319L414.473 187.436L415.061 186.849L414.943 200.01L414.473 199.54C417.058 199.54 419.644 199.54 422.111 199.657L429.867 199.775L445.378 199.892Z" fill="#FE9563"/>
<path d="M427.987 216.46L412.593 216.813L404.72 216.93C402.134 216.93 399.432 216.93 396.846 217.048H396.376V216.578L396.259 203.417V202.829H396.846L412.358 202.947C417.528 202.947 422.699 203.064 427.869 203.182H428.222V203.534C428.222 205.767 428.104 208 428.104 210.232L427.987 216.46ZM427.987 216.46L427.869 209.762C427.869 207.529 427.751 205.414 427.751 203.299L428.104 203.652C422.934 203.769 417.763 203.887 412.593 203.887L397.081 204.004L397.669 203.417L397.551 216.578L397.081 216.108C399.667 216.108 402.252 216.108 404.72 216.225L412.475 216.343L427.987 216.46Z" fill="#FE9563"/>
<path d="M462.768 203.417H431.628V216.578H462.768V203.417Z" fill="#FE9563"/>
<path d="M492.616 388.848H461.476V402.009H492.616V388.848Z" fill="#EBEBEB"/>
<path d="M492.616 58.4094H461.476V71.5706H492.616V58.4094Z" fill="#FE9563"/>
<path d="M510.008 88.14L494.615 88.4925L486.741 88.61C484.156 88.61 481.453 88.61 478.868 88.7275H478.398V88.2575L478.281 75.0963V74.5088H478.868L494.38 74.6263C499.55 74.6263 504.72 74.7438 509.891 74.8613H510.243V75.2139C510.243 77.4465 510.126 79.6792 510.126 81.9119L510.008 88.14ZM510.008 88.14L509.891 81.4419C509.891 79.2092 509.773 77.094 509.773 74.9788L510.126 75.3314C504.955 75.4489 499.785 75.5664 494.615 75.5664L479.103 75.6839L479.691 75.0963L479.573 88.2575L479.103 87.7874C481.688 87.7874 484.274 87.7874 486.741 87.9049L494.497 88.0225L510.008 88.14Z" fill="#EBEBEB"/>
<path d="M56.7709 71.5706L41.3771 71.9231L33.5039 72.0407C30.9187 72.0407 28.216 72.0407 25.6308 72.1582H25.1607V71.6881L25.0432 58.527V57.9395H25.6308L41.1421 58.057C46.3125 58.057 51.483 58.1745 56.6534 58.292H57.0059V58.6445C57.0059 60.8772 56.8884 63.1099 56.8884 65.3426L56.7709 71.5706ZM56.7709 71.5706L56.6534 64.8725C56.6534 62.6399 56.5359 60.5247 56.5359 58.4095L56.8884 58.762C51.718 58.8795 46.5476 58.997 41.3771 58.997L25.8658 59.1146L26.4533 58.527L26.3358 71.6881L25.8658 71.2181C28.451 71.2181 31.0362 71.2181 33.5039 71.3356L41.2596 71.4531L56.7709 71.5706Z" fill="#EBEBEB"/>
<path d="M69.7983 305.858H100.939V292.697H69.7983V305.858Z" fill="#EBEBEB"/>
<path d="M87.2062 276.038L102.6 275.686L110.473 275.568C113.058 275.568 115.761 275.568 118.346 275.451H118.816V275.921L118.934 289.2V289.787H118.346L102.835 289.67C97.6646 289.67 92.4941 289.552 87.3237 289.435H86.9712V289.082C86.9712 286.849 87.0887 284.617 87.0887 282.384L87.2062 276.038ZM87.2062 276.038L87.3237 282.737C87.3237 284.969 87.4412 287.084 87.4412 289.2L87.0887 288.847C92.2591 288.73 97.4296 288.612 102.6 288.612L118.111 288.495L117.759 289.2L117.876 276.038L118.346 276.509C115.761 276.509 113.176 276.509 110.708 276.391L102.953 276.273L87.2062 276.038Z" fill="#EBEBEB"/>
<path d="M518.116 518.155H317.761L313.648 435.897H522.346L518.116 518.155Z" fill="#999999"/>
<path d="M325.516 445.063H412.709L411.181 473.618H327.396L325.516 445.063ZM411.534 446.003H326.456L328.102 472.56H410.006L411.534 446.003Z" fill="#DBDBDB"/>
<path d="M327.278 480.668H409.065L407.773 506.403H328.806L327.278 480.668ZM408.008 481.608H328.336L329.864 505.345H406.833L408.008 481.608Z" fill="#DBDBDB"/>
<path d="M360.181 455.522H376.045L375.105 462.455H361.004L360.181 455.522ZM374.988 456.462H361.474L362.061 461.28H374.4L374.988 456.462Z" fill="#DBDBDB"/>
<path d="M360.181 490.069H376.045L375.105 497.002H361.004L360.181 490.069ZM374.988 491.127H361.474L362.061 495.945H374.4L374.988 491.127Z" fill="#DBDBDB"/>
<path d="M423.991 445.063H511.183L509.656 473.618H425.871L423.991 445.063ZM510.126 446.003H425.048L426.694 472.56H508.598L510.126 446.003Z" fill="#DBDBDB"/>
<path d="M425.754 480.668H507.541L506.248 506.403H427.281L425.754 480.668ZM506.601 481.608H426.811L428.339 505.345H505.308L506.601 481.608Z" fill="#DBDBDB"/>
<path d="M458.773 455.521H474.637L473.697 462.454H459.596L458.773 455.521ZM473.462 456.461H459.948L460.536 461.279H472.875L473.462 456.461Z" fill="#DBDBDB"/>
<path d="M458.773 490.069H474.637L473.697 497.002H459.596L458.773 490.069ZM473.462 491.127H459.948L460.536 495.945H472.875L473.462 491.127Z" fill="#DBDBDB"/>
<path d="M500.254 518.154L501.429 527.085L504.014 545.064H508.949V518.154H500.254Z" fill="#999999"/>
<path d="M500.254 518.154L501.429 527.085H508.949V518.154H500.254Z" fill="#868484"/>
<path d="M335.741 518.154L334.566 527.085L331.981 545.064H327.045V518.154H335.741Z" fill="#999999"/>
<path d="M335.741 518.154L334.566 527.085H327.045V518.154H335.741Z" fill="#868484"/>
<path d="M463.325 435.946V375.311H448.048V435.946H463.325Z" fill="#C7C7C7"/>
<path d="M463.306 378.701V372.003H448.029V378.701H463.306Z" fill="#DBDBDB"/>
<path d="M463.363 389.687V387.22H448.086V389.687H463.363Z" fill="#DBDBDB"/>
<path d="M463.313 427.946V421.248H448.037V427.946H463.313Z" fill="#DBDBDB"/>
<path d="M448.014 435.876V365.135H437.321V435.876H448.014Z" fill="#DBDBDB"/>
<path d="M445.996 398.981V371.836H439.65V398.981H445.996Z" fill="#EBEBEB"/>
<path d="M368.891 435.845L419.202 386.114L411.685 378.509L361.374 428.24L368.891 435.845Z" fill="#C7C7C7"/>
<path d="M379.187 422.593L398.492 403.51L394.032 398.997L374.726 418.08L379.187 422.593Z" fill="#DBDBDB"/>
<path d="M437.44 435.858V382.156H419.344V435.858H437.44Z" fill="#A6A6A6"/>
<path d="M437.414 430.308V425.255H419.318V430.308H437.414Z" fill="#C7C7C7"/>
<path d="M437.354 422.022V420.025H419.257V422.022H437.354Z" fill="#C7C7C7"/>
<path d="M494.638 431.099L474.704 384.667L463.258 389.581L483.192 436.013L494.638 431.099Z" fill="#A6A6A6"/>
<path d="M492.497 426.058L490.643 421.739L479.197 426.653L481.051 430.972L492.497 426.058Z" fill="#C7C7C7"/>
<path d="M480.721 398.547L478.867 394.228L467.421 399.141L469.275 403.461L480.721 398.547Z" fill="#C7C7C7"/>
<path d="M482.712 403.25L481.97 401.522L470.524 406.436L471.266 408.164L482.712 403.25Z" fill="#C7C7C7"/>
<path d="M479.22 95.5427V6" stroke="#FE9563" stroke-width="1.1751" stroke-miterlimit="10"/>
<path d="M436.212 137.141L439.62 144.779H518.94L522.347 137.141L488.622 113.757H469.938L436.212 137.141Z" fill="#FE9563"/>
<path d="M467.588 91.3123L469.938 113.757H488.622L490.972 91.3123H467.588Z" fill="#FE9563"/>
<path d="M436.212 137.141L439.62 144.779H518.94L522.347 137.141H436.212Z" fill="#FFC7AC"/>
<path d="M386.741 70.9831V6" stroke="#FE9563" stroke-width="1.1751" stroke-miterlimit="10"/>
<path d="M343.615 112.582L347.14 120.22H426.342L429.867 112.582L396.024 89.197H377.34L343.615 112.582Z" fill="#FE9563"/>
<path d="M374.99 66.635L377.34 89.1969H396.024L398.374 66.635H374.99Z" fill="#FE9563"/>
<path d="M343.615 112.582L347.14 120.22H426.342L429.867 112.582H343.615Z" fill="#FFC7AC"/>
<path d="M45.9588 120.339L117.992 107.765L107.534 58.2932L35.5004 70.8668L45.9588 120.339Z" fill="#FE9563"/>
<path d="M80.977 57.5884L106.477 53.123L107.534 58.2935L80.6245 62.9939L80.977 57.5884Z" fill="#FE9563"/>
<path d="M46.077 120.222L117.993 107.766L113.293 61.5845L41.2591 74.0405L46.077 120.222Z" fill="#FFC7AC"/>
<path d="M87.3233 61.2317L112.705 56.7664L113.293 61.5843L86.3832 66.1672L87.3233 61.2317Z" fill="#FFC7AC"/>
<path d="M76.8624 169.691L166.053 175.214L167.698 113.404L78.5075 107.881L76.8624 169.691Z" fill="#FE9563"/>
<path d="M136.323 105.061L167.816 107.058L167.698 113.404L134.325 111.406L136.323 105.061Z" fill="#FE9563"/>
<path d="M76.9816 169.692L166.172 175.215L173.575 118.928L84.3847 113.405L76.9816 169.692Z" fill="#FFC7AC"/>
<path d="M142.788 111.172L174.398 113.053L173.575 118.928L140.202 116.93L142.788 111.172Z" fill="#FFC7AC"/>
<path d="M435.508 279.798V255.356L460.538 267.577L435.508 279.798Z" fill="#FE9563"/>
<path d="M507.659 273.57V261.584L519.88 267.577L507.659 273.57Z" fill="#FE9563"/>
<path d="M497.906 273.57V261.584L510.127 267.577L497.906 273.57Z" fill="#FE9563"/>
<path d="M388.387 261.584V273.57L376.166 267.577L388.387 261.584Z" fill="#EBEBEB"/>
<path d="M398.14 261.584V273.57L385.919 267.577L398.14 261.584Z" fill="#FE9563"/>
<path d="M376.283 257.471H373.815V277.8H376.283V257.471Z" fill="#EBEBEB"/>
<path d="M522.347 257.471H519.88V277.8H522.347V257.471Z" fill="#FE9563"/>
<path d="M471.349 464.806C471.819 452.937 471.584 441.069 470.879 429.318C469.234 404.993 465.238 380.786 459.715 356.932C456.66 343.536 452.782 330.374 448.787 317.213C448.669 316.861 448.082 316.978 448.199 317.331C460.538 363.63 470.644 411.456 469.939 459.636C469.704 473.149 468.176 486.31 466.883 499.706C466.883 500.059 467.471 500.177 467.471 499.824C469.939 488.543 470.879 476.557 471.349 464.806Z" fill="#FE9563"/>
<path d="M448.199 317.448C448.199 317.448 429.515 364.805 433.745 375.851C437.976 387.014 446.554 389.365 446.554 389.365C446.554 389.365 435.156 405.699 443.146 420.975C451.137 436.251 468.881 435.546 470.056 452.82C469.821 452.82 470.879 380.434 448.199 317.448Z" fill="#FE9563"/>
<path d="M467.823 422.973C467.823 422.855 467.823 422.855 467.823 422.738C465.238 390.54 459.48 358.46 449.726 327.555C449.726 327.437 449.491 327.437 449.609 327.555C453.252 341.421 456.542 355.287 459.362 369.271C456.895 366.803 453.722 365.393 450.432 364.335C450.314 364.335 450.314 364.453 450.432 364.453C453.839 365.98 457.13 367.626 459.597 370.563C460.185 373.266 460.655 376.086 461.125 378.789C457.012 374.089 451.137 371.856 445.379 369.623C445.261 369.623 445.261 369.741 445.379 369.741C451.372 372.209 457.365 375.381 461.477 380.552C462.888 388.425 464.18 396.298 465.238 404.171C462.183 400.998 458.422 398.883 454.074 397.826C453.957 397.826 453.839 397.943 453.957 398.061C458.422 399.353 462.183 401.821 465.238 405.229C465.238 405.229 465.238 405.229 465.355 405.229C465.708 408.049 466.06 410.752 466.413 413.572C464.063 411.574 461.477 410.047 458.657 408.872C458.54 408.872 458.54 408.989 458.657 408.989C461.595 410.282 464.18 412.044 466.413 414.16H466.53C466.883 416.862 467.118 419.448 467.47 422.15C463.24 416.98 457.952 413.22 451.607 410.869C451.489 410.869 451.372 410.987 451.489 411.104C457.6 413.69 462.888 417.92 467.118 423.09C467.235 423.208 467.353 423.208 467.47 423.208C467.823 427.321 468.176 431.316 468.528 435.429C468.528 435.429 468.646 435.546 468.646 435.429C468.528 431.316 468.176 427.086 467.823 422.973Z" fill="#263238"/>
<path d="M452.9 359.635C449.61 357.402 445.615 356.462 441.737 356.109C441.62 356.109 441.62 356.227 441.737 356.227C445.732 356.814 449.14 358.225 452.783 359.87C452.9 359.987 453.018 359.752 452.9 359.635Z" fill="#263238"/>
<path d="M455.131 409.694C452.546 408.166 449.608 407.344 446.671 406.874C446.553 406.874 446.553 406.991 446.671 406.991C449.608 407.579 452.311 408.636 455.014 409.929C455.131 409.929 455.249 409.811 455.131 409.694Z" fill="#263238"/>
<path d="M520.35 376.673C512.595 382.196 505.074 388.424 498.728 395.593C491.913 403.113 487.095 411.691 483.57 421.21C476.519 440.716 472.641 461.868 472.289 482.55C472.054 494.184 473.111 505.7 475.579 517.098C475.696 517.568 476.284 517.451 476.166 516.98C473.111 497.004 473.229 476.557 476.519 456.698C479.692 437.074 484.745 415.804 497.201 399.94C504.016 391.245 512.477 384.429 520.82 377.379C521.29 376.908 520.703 376.321 520.35 376.673Z" fill="#FE9563"/>
<path d="M475.109 468.449C475.109 468.449 481.454 457.638 490.855 448.354C500.138 439.071 508.012 432.373 509.304 426.262C510.479 420.152 499.903 415.569 499.903 415.569C499.903 415.569 512.829 417.919 516.355 412.514C519.88 407.108 521.643 375.733 521.643 375.733C521.643 375.733 498.141 392.537 487.212 416.039C476.166 439.424 475.109 468.449 475.109 468.449Z" fill="#FE9563"/>
<path d="M513.417 383.724C503.546 393.477 493.558 403.818 487.8 416.509C485.802 420.857 484.157 425.44 482.629 430.023C482.277 430.963 482.042 431.903 481.689 432.843V432.96C478.869 442.479 476.754 452.349 474.991 461.985C474.991 462.103 475.108 462.103 475.108 461.985C476.166 457.05 477.224 452.114 478.516 447.179H478.634C480.631 446.356 482.629 445.769 484.744 445.651C484.862 445.651 484.862 445.416 484.744 445.416C482.629 445.534 480.631 445.886 478.634 446.474C479.809 442.009 480.984 437.543 482.394 433.195C486.977 432.138 491.677 431.433 496.378 431.433V431.315C491.677 431.08 487.212 431.55 482.629 432.49C482.864 431.785 483.099 430.963 483.334 430.258C486.389 429.552 489.445 428.965 492.617 428.73V428.612C489.562 428.73 486.507 428.965 483.569 429.67C484.862 425.91 486.272 422.149 487.8 418.507C489.092 415.451 490.62 412.631 492.265 409.928C494.733 409.341 497.2 408.871 499.786 408.636C499.903 408.636 499.903 408.518 499.786 408.518C497.435 408.401 494.968 408.518 492.735 409.223C494.028 407.226 495.32 405.228 496.613 403.348C501.901 402.173 507.189 401.115 512.594 402.055C512.712 402.055 512.712 401.938 512.594 401.938C507.424 400.645 502.371 401.35 497.318 402.408C497.905 401.703 498.493 400.88 498.963 400.175C502.253 399.117 505.426 398.647 508.834 398.647C508.951 398.647 508.951 398.53 508.834 398.53C505.779 398.177 502.606 398.53 499.668 399.352C504.016 393.947 508.834 388.894 513.534 383.841C513.769 383.606 513.652 383.489 513.417 383.724Z" fill="#263238"/>
<path d="M513.182 405.111C511.654 404.993 510.009 404.758 508.482 404.993C508.247 404.993 508.364 405.346 508.482 405.346C510.009 405.346 511.537 405.228 513.064 405.346C513.182 405.228 513.299 405.111 513.182 405.111Z" fill="#263238"/>
<path d="M496.261 435.546C493.793 435.546 491.325 436.133 488.975 436.956V437.073C491.325 436.486 493.793 436.251 496.143 435.898C496.496 435.898 496.496 435.546 496.261 435.546Z" fill="#263238"/>
<path d="M491.208 424.97C490.15 424.97 489.093 425.087 488.153 425.205C488.035 425.205 488.035 425.44 488.153 425.44C489.093 425.44 490.268 425.44 491.208 425.322C491.325 425.322 491.325 424.97 491.208 424.97Z" fill="#263238"/>
<path d="M406.248 409.929C413.768 412.514 421.289 415.922 428.105 420.152C435.273 424.735 441.266 430.493 446.319 437.426C456.542 451.528 464.533 467.744 469.586 484.548C472.406 493.949 474.286 503.467 474.874 513.22C474.874 513.573 474.404 513.573 474.286 513.22C472.171 496.299 467.353 479.848 460.067 464.454C452.899 449.295 443.968 433.314 430.22 423.325C422.699 417.92 414.356 414.277 405.895 410.517C405.543 410.399 405.778 409.812 406.248 409.929Z" fill="#FE9563"/>
<path d="M464.063 473.854C464.063 473.854 456.425 466.568 446.671 461.163C436.918 455.757 429.045 452.232 426.694 447.532C424.344 442.831 431.747 436.721 431.747 436.721C431.747 436.721 421.877 441.539 417.764 438.013C413.651 434.488 405.073 409.458 405.073 409.458C405.073 409.458 427.987 417.567 442.206 434.136C456.425 450.587 464.063 473.854 464.063 473.854Z" fill="#FE9563"/>
<path d="M462.888 468.684C451.49 447.18 436.213 427.791 415.296 414.982C420.819 418.507 425.872 422.503 430.573 426.968C426.342 426.851 421.995 427.556 418.234 429.553C418.117 429.553 418.234 429.671 418.352 429.671C422.582 428.261 426.577 427.321 431.043 427.556C431.16 427.556 431.16 427.556 431.16 427.556C431.865 428.261 432.688 428.966 433.393 429.671C431.16 429.788 428.928 430.023 426.812 430.493V430.611C429.163 430.141 431.395 430.023 433.746 430.023C437.623 433.901 441.149 438.014 444.556 442.244C443.029 442.009 441.384 442.127 439.974 442.597C439.856 442.597 439.856 442.832 439.974 442.715C441.619 442.48 443.264 442.48 444.909 442.597C445.497 443.42 446.202 444.242 446.789 444.947C442.089 444.712 437.506 445.065 432.923 446.24C432.805 446.24 432.923 446.357 432.923 446.357C437.623 445.417 442.441 445.182 447.142 445.417C447.729 446.24 448.317 446.945 448.904 447.767C446.084 447.65 443.381 448.002 440.679 448.708C440.561 448.708 440.561 448.943 440.679 448.825C443.499 448.238 446.319 448.002 449.257 448.12C451.725 451.528 454.075 454.936 456.307 458.461C455.132 458.226 453.84 458.343 452.665 458.696C452.547 458.696 452.665 458.813 452.665 458.813C453.957 458.696 455.25 458.813 456.542 459.048C458.54 462.221 460.538 465.394 462.418 468.684C462.535 469.154 463.006 468.919 462.888 468.684Z" fill="#263238"/>
<path d="M445.027 450.822C442.794 450.587 440.561 450.94 438.328 451.645C438.211 451.645 438.328 451.762 438.328 451.762C440.561 451.41 442.676 451.175 444.909 451.057C445.262 451.057 445.262 450.822 445.027 450.822Z" fill="#263238"/>
<path d="M425.167 424.618C424.109 424.5 423.051 424.618 422.111 424.853C421.994 424.853 421.994 425.088 422.111 425.088C423.169 424.97 424.109 424.97 425.167 424.97C425.284 424.97 425.284 424.735 425.167 424.618Z" fill="#263238"/>
<path d="M493.558 544.83H441.971L449.257 490.893L451.137 477.027H484.275L486.273 490.893L493.558 544.83Z" fill="#455A64"/>
<path d="M486.272 490.893H449.257L451.137 477.027H484.275L486.272 490.893Z" fill="#263238"/>
<path d="M489.093 472.209H446.437V483.96H489.093V472.209Z" fill="#455A64"/>
<path d="M364.412 79.4434H171.225C160.414 79.4434 151.718 88.3741 151.718 99.3026V497.192C151.718 508.12 160.532 517.051 171.225 517.051H364.412C375.223 517.051 384.036 508.12 384.036 497.192V99.3026C384.036 88.3741 375.223 79.4434 364.412 79.4434ZM371.815 484.853C371.815 495.311 363.942 503.772 354.306 503.772H181.448C171.813 503.772 163.939 495.311 163.939 484.853V114.461C163.939 93.0745 171.813 92.1344 181.448 92.1344H216.114C218.112 92.1344 219.757 94.3671 219.757 97.3049V98.48C219.757 105.178 223.4 105.178 227.865 105.178H308.007C312.472 105.178 316.115 105.178 316.115 98.48V97.3049C316.115 94.4846 317.76 92.1344 319.758 92.1344H354.423C364.059 92.1344 371.932 94.9547 371.932 114.461V484.853H371.815Z" fill="#37474F"/>
<path d="M278.747 96.8347H256.89C256.185 96.8347 255.597 96.2472 255.597 95.5421C255.597 94.8371 256.185 94.2495 256.89 94.2495H278.747C279.452 94.2495 280.04 94.8371 280.04 95.5421C280.04 96.1297 279.452 96.8347 278.747 96.8347Z" fill="#263238"/>
<path d="M371.813 114.462V484.853C371.813 495.312 363.94 503.772 354.304 503.772H181.446C171.811 503.772 163.938 495.312 163.938 484.853V114.462C163.938 93.0747 171.811 92.1346 181.446 92.1346H216.112C218.11 92.1346 219.755 94.3673 219.755 97.3051V98.4802C219.755 105.178 223.398 105.178 227.863 105.178H308.005C312.47 105.178 316.113 105.178 316.113 98.4802V97.3051C316.113 94.4848 317.758 92.1346 319.756 92.1346H354.421C363.94 92.0171 371.813 94.9549 371.813 114.462Z" fill="white"/>
<path d="M371.813 114.462V160.761H163.821V114.462C163.821 93.075 171.694 92.1349 181.33 92.1349H215.995C217.993 92.1349 219.638 94.3676 219.638 97.3053V98.4804C219.638 105.179 223.281 105.179 227.746 105.179H307.888C312.353 105.179 315.996 105.179 315.996 98.4804V97.3053C315.996 94.4851 317.641 92.1349 319.639 92.1349H354.304C363.94 92.0174 371.813 94.9551 371.813 114.462Z" fill="#FE9563"/>
<path d="M184.856 140.314L178.745 134.556L184.856 128.798L185.913 129.855L180.743 134.556L185.913 139.374L184.856 140.314Z" fill="white"/>
<path d="M355.715 131.03C355.715 131.735 355.128 132.205 354.54 132.205C353.952 132.205 353.365 131.618 353.365 131.03C353.365 130.443 353.952 129.855 354.54 129.855C355.128 129.855 355.715 130.325 355.715 131.03Z" fill="white"/>
<path d="M355.715 135.261C355.715 135.966 355.127 136.436 354.54 136.436C353.952 136.436 353.365 135.848 353.365 135.261C353.365 134.555 353.952 134.085 354.54 134.085C355.127 134.085 355.715 134.673 355.715 135.261Z" fill="white"/>
<path d="M355.715 139.608C355.715 140.313 355.127 140.783 354.54 140.783C353.952 140.783 353.365 140.196 353.365 139.608C353.365 138.903 353.952 138.433 354.54 138.433C355.127 138.433 355.715 138.903 355.715 139.608Z" fill="white"/>
<path d="M210.003 100.36C209.885 100.478 209.768 100.595 209.65 100.713C209.533 100.83 209.533 100.83 209.415 100.948C208.475 100.125 207.417 99.6553 206.242 99.6553C204.95 99.6553 203.892 100.125 203.07 100.948C202.952 100.83 202.952 100.83 202.835 100.713C202.717 100.595 202.6 100.478 202.482 100.36C202.6 100.243 202.717 100.125 202.952 100.008C203.305 99.7728 203.54 99.5378 203.892 99.4203C204.362 99.1853 204.715 99.0678 205.185 98.9503C205.42 98.9503 205.655 98.8328 205.89 98.8328C206.007 98.8328 206.477 98.8328 206.477 98.8328C206.595 98.8328 206.83 98.8328 206.947 98.8328C207.3 98.8328 207.77 98.9503 208.123 99.0678C208.358 99.1853 208.71 99.3028 208.945 99.4203C209.18 99.5378 209.533 99.7728 209.768 100.008C209.768 100.125 209.885 100.243 210.003 100.36Z" fill="white"/>
<path d="M204.127 102.006C203.892 101.888 203.775 101.653 203.54 101.536C204.127 100.948 204.832 100.596 205.655 100.478C206.947 100.361 208.005 100.713 208.945 101.536C208.71 101.771 208.593 101.888 208.357 102.006C207.77 101.418 207.065 101.066 206.242 101.066C205.42 101.066 204.715 101.418 204.127 102.006Z" fill="white"/>
<path d="M207.887 102.476C207.769 102.593 207.534 102.828 207.417 102.946C207.064 102.593 206.712 102.476 206.359 102.476C205.889 102.476 205.537 102.593 205.302 102.946C205.184 102.828 204.949 102.593 204.832 102.476C205.537 101.653 206.947 101.536 207.887 102.476Z" fill="white"/>
<path d="M206.711 103.534C206.711 103.769 206.476 104.004 206.241 104.004C206.006 104.004 205.771 103.769 205.771 103.534C205.771 103.298 206.006 103.063 206.241 103.063C206.594 103.063 206.711 103.181 206.711 103.534Z" fill="white"/>
<path d="M177.454 101.418C177.454 100.713 178.041 100.008 178.864 100.008C179.569 100.008 180.274 100.596 180.274 101.418C180.274 102.241 179.686 102.828 178.864 102.828C178.041 102.828 177.454 102.123 177.454 101.418Z" fill="white"/>
<path d="M181.802 101.418C181.802 100.713 182.389 100.008 183.212 100.008C183.917 100.008 184.622 100.596 184.622 101.418C184.622 102.241 184.034 102.828 183.212 102.828C182.389 102.828 181.802 102.123 181.802 101.418Z" fill="white"/>
<path d="M186.15 101.418C186.15 100.713 186.737 100.008 187.56 100.008C188.265 100.008 188.97 100.596 188.97 101.418C188.97 102.241 188.383 102.828 187.56 102.828C186.737 102.828 186.15 102.123 186.15 101.418Z" fill="white"/>
<path d="M190.38 101.418C190.38 100.713 190.968 100.008 191.79 100.008C192.495 100.008 193.2 100.596 193.2 101.418C193.2 102.241 192.613 102.828 191.79 102.828C191.085 102.828 190.38 102.123 190.38 101.418Z" fill="white"/>
<path d="M194.728 101.418C194.728 100.713 195.316 100.008 196.138 100.008C196.843 100.008 197.549 100.596 197.549 101.418C197.549 102.241 196.961 102.828 196.138 102.828C195.433 102.828 194.728 102.123 194.728 101.418Z" fill="white"/>
<path d="M356.185 104.355H344.904V99.1848H356.185V104.355ZM345.492 103.768H355.598V99.7724H345.492V103.768Z" fill="white"/>
<path d="M353.13 100.125H345.844V103.532H353.13V100.125Z" fill="white"/>
<path d="M357.125 100.359H356.185V103.18H357.125V100.359Z" fill="white"/>
<path d="M195.432 481.21H193.905V488.378H190.967V484.736H185.679V488.378H182.741V481.21H181.096L188.264 473.807L195.432 481.21Z" fill="#EBEBEB"/>
<path d="M354.541 473.807H337.267V476.275H354.541V473.807Z" fill="#EBEBEB"/>
<path d="M354.541 479.917H337.267V482.385H354.541V479.917Z" fill="#EBEBEB"/>
<path d="M354.541 485.91H337.267V488.378H354.541V485.91Z" fill="#EBEBEB"/>
<path d="M272.753 480.153L267.818 485.324L262.882 480.153L263.822 479.331L267.818 483.678L271.813 479.331L272.753 480.153Z" fill="#EBEBEB"/>
<path d="M267.818 490.729C262.883 490.729 258.888 486.733 258.888 481.798C258.888 476.863 262.883 472.867 267.818 472.867C272.754 472.867 276.749 476.863 276.749 481.798C276.749 486.733 272.754 490.729 267.818 490.729ZM267.818 474.16C263.588 474.16 260.063 477.568 260.063 481.915C260.063 486.146 263.47 489.671 267.818 489.671C272.049 489.671 275.574 486.263 275.574 481.915C275.574 477.568 272.049 474.16 267.818 474.16Z" fill="#EBEBEB"/>
<path d="M350.193 360.998V363.348H347.843" stroke="#FE9563" stroke-width="1.1751" stroke-miterlimit="10"/>
<path d="M343.26 363.348H190.027" stroke="#FE9563" stroke-width="1.1751" stroke-miterlimit="10" stroke-dasharray="4.58 4.58"/>
<path d="M187.794 363.348H185.444V360.998" stroke="#FE9563" stroke-width="1.1751" stroke-miterlimit="10"/>
<path d="M185.444 356.415V237.142" stroke="#FE9563" stroke-width="1.1751" stroke-miterlimit="10" stroke-dasharray="4.68 4.68"/>
<path d="M185.444 234.792V232.442H187.794" stroke="#FFC727" stroke-width="1.1751" stroke-miterlimit="10"/>
<path d="M192.377 232.442H345.61" stroke="#FE9563" stroke-width="1.1751" stroke-miterlimit="10" stroke-dasharray="4.58 4.58"/>
<path d="M347.843 232.442H350.193V234.792" stroke="#FFC727" stroke-width="1.1751" stroke-miterlimit="10"/>
<path d="M350.193 239.493V358.765" stroke="#FE9563" stroke-width="1.1751" stroke-miterlimit="10" stroke-dasharray="4.68 4.68"/>
<path d="M206.479 314.699C206.479 323.042 212.942 329.858 221.167 330.446H310.71C320.934 330.446 329.277 322.102 329.277 311.879C329.277 302.243 321.874 294.252 312.473 293.43C311.885 276.626 298.137 263.112 281.215 263.112C267.701 263.112 256.185 271.691 251.838 283.559C249.37 282.266 246.55 281.561 243.494 281.561C233.624 281.561 225.515 289.317 224.928 298.953C224.105 298.835 223.283 298.718 222.343 298.718C213.529 298.835 206.479 306.003 206.479 314.699Z" fill="#FE9563"/>
<path d="M275.928 309.881H259.711V330.446H275.928V309.881Z" fill="white"/>
<path d="M254.188 309.881H281.45L267.819 296.25L254.188 309.881Z" fill="white"/>
<path d="M229.744 138.904C227.981 138.904 226.454 137.494 226.454 135.614V131.619C226.454 131.266 226.689 131.031 227.041 131.031C227.394 131.031 227.629 131.266 227.629 131.619V135.614C227.629 136.672 228.569 137.612 229.626 137.612C230.801 137.612 231.624 136.672 231.624 135.614V131.619C231.624 131.266 231.859 131.031 232.212 131.031C232.564 131.031 232.799 131.266 232.799 131.619V135.614C233.034 137.377 231.624 138.904 229.744 138.904Z" fill="white"/>
<path d="M238.323 135.849H236.913V138.317C236.913 138.669 236.678 138.904 236.325 138.904C235.973 138.904 235.738 138.669 235.738 138.317V131.619C235.738 131.266 235.973 131.031 236.325 131.031H238.323C239.615 131.031 240.79 132.089 240.79 133.499C240.79 134.674 239.615 135.849 238.323 135.849ZM236.913 134.557H238.323C239.028 134.557 239.498 134.087 239.498 133.381C239.498 132.676 239.028 132.206 238.323 132.206H236.913V134.557Z" fill="white"/>
<path d="M242.317 138.199V131.501C242.317 131.148 242.552 130.913 242.905 130.913C243.258 130.913 243.493 131.148 243.493 131.501V137.494H246.548C246.9 137.494 247.135 137.729 247.135 138.081C247.135 138.434 246.9 138.669 246.548 138.669H242.905C242.552 138.904 242.317 138.551 242.317 138.199Z" fill="white"/>
<path d="M254.42 131.971C255.125 132.676 255.595 133.733 255.595 134.791C255.595 135.966 255.125 136.906 254.42 137.611C253.715 138.316 252.775 138.786 251.717 138.786C250.66 138.786 249.602 138.316 248.897 137.611C248.192 136.906 247.722 135.849 247.722 134.791C247.722 133.616 248.192 132.676 248.897 131.971C249.602 131.266 250.542 130.796 251.717 130.796C252.775 130.796 253.715 131.266 254.42 131.971ZM254.303 134.791C254.303 133.968 253.95 133.263 253.48 132.793C253.01 132.323 252.422 131.971 251.717 131.971C251.012 131.971 250.307 132.206 249.837 132.793C249.367 133.263 249.015 133.968 249.015 134.791C249.015 135.614 249.25 136.319 249.837 136.789C250.307 137.259 250.895 137.611 251.717 137.611C252.422 137.611 253.01 137.259 253.48 136.789C253.95 136.319 254.303 135.614 254.303 134.791Z" fill="white"/>
<path d="M261.354 137.024H258.651L258.064 138.434C257.946 138.669 257.711 138.787 257.476 138.787C257.359 138.787 257.359 138.787 257.241 138.787C256.888 138.669 256.771 138.316 256.888 137.964L259.356 131.266C259.474 131.031 259.709 130.913 259.944 130.913C260.179 130.913 260.414 131.031 260.531 131.266L262.999 137.964C263.117 138.316 262.999 138.669 262.646 138.787C262.646 138.787 262.529 138.787 262.411 138.787C262.176 138.787 261.941 138.669 261.824 138.434L261.354 137.024ZM260.884 135.731L259.944 133.264L259.004 135.731H260.884Z" fill="white"/>
<path d="M264.645 138.199V131.501C264.645 131.148 264.88 130.913 265.232 130.913H266.525C268.757 130.913 270.52 132.676 270.52 134.909C270.52 137.141 268.757 138.904 266.525 138.904H265.232C264.88 138.904 264.645 138.551 264.645 138.199ZM265.937 137.611H266.642C268.17 137.611 269.345 136.436 269.345 134.909C269.345 133.381 268.17 132.206 266.642 132.206H265.937V137.611Z" fill="white"/>
<path d="M278.746 138.787C278.629 138.787 278.746 138.787 278.746 138.787C278.629 138.669 278.629 138.669 278.746 138.787C278.629 138.669 278.629 138.669 278.629 138.669V138.552L275.808 131.971C275.691 131.619 275.808 131.266 276.161 131.149C276.513 131.031 276.866 131.149 276.983 131.501L279.216 136.789L281.449 131.501C281.566 131.149 281.919 131.031 282.271 131.149C282.624 131.266 282.741 131.619 282.624 131.971L279.804 138.552V138.669C279.804 138.669 279.804 138.669 279.804 138.787C279.804 138.787 279.804 138.787 279.686 138.787C279.686 138.787 279.686 138.787 279.569 138.787C279.569 138.787 279.569 138.787 279.451 138.787H279.334H279.216H279.099C279.099 138.787 278.864 138.787 278.746 138.787C278.864 138.787 278.746 138.787 278.746 138.787Z" fill="white"/>
<path d="M284.151 131.619C284.151 131.266 284.386 131.031 284.739 131.031C285.091 131.031 285.326 131.266 285.326 131.619V138.317C285.326 138.669 285.091 138.904 284.739 138.904C284.386 138.904 284.151 138.669 284.151 138.317V131.619Z" fill="white"/>
<path d="M287.559 138.199V131.501C287.559 131.148 287.794 130.913 288.147 130.913H289.439C291.672 130.913 293.435 132.676 293.435 134.909C293.435 137.141 291.672 138.904 289.439 138.904H288.147C287.794 138.904 287.559 138.551 287.559 138.199ZM288.734 137.611H289.439C290.967 137.611 292.142 136.436 292.142 134.909C292.142 133.381 290.967 132.206 289.439 132.206H288.734V137.611Z" fill="white"/>
<path d="M295.08 138.199V131.501C295.08 131.148 295.315 130.913 295.668 130.913H299.311C299.663 130.913 299.898 131.148 299.898 131.501C299.898 131.853 299.663 132.088 299.311 132.088H296.373V134.204H298.958C299.311 134.204 299.546 134.439 299.546 134.791C299.546 135.144 299.311 135.379 298.958 135.379H296.373V137.494H299.428C299.781 137.494 300.016 137.729 300.016 138.081C300.016 138.434 299.781 138.669 299.428 138.669H295.785C295.315 138.904 295.08 138.551 295.08 138.199Z" fill="white"/>
<path d="M308.006 131.971C308.711 132.676 309.181 133.733 309.181 134.791C309.181 135.966 308.711 136.906 308.006 137.611C307.301 138.316 306.361 138.786 305.303 138.786C304.246 138.786 303.188 138.316 302.483 137.611C301.778 136.906 301.308 135.849 301.308 134.791C301.308 133.616 301.778 132.676 302.483 131.971C303.188 131.266 304.128 130.796 305.303 130.796C306.361 130.796 307.301 131.266 308.006 131.971ZM307.888 134.791C307.888 133.968 307.536 133.263 307.066 132.793C306.596 132.323 306.008 131.971 305.303 131.971C304.598 131.971 303.893 132.206 303.423 132.793C302.953 133.263 302.601 133.968 302.601 134.791C302.601 135.614 302.836 136.319 303.423 136.789C303.893 137.259 304.481 137.611 305.303 137.611C306.008 137.611 306.596 137.259 307.066 136.789C307.536 136.319 307.888 135.614 307.888 134.791Z" fill="white"/>
<path d="M250.897 385.909C249.37 385.909 248.195 384.734 248.195 383.206V379.916C248.195 379.681 248.43 379.446 248.665 379.446C248.9 379.446 249.135 379.681 249.135 379.916V383.206C249.135 384.146 249.84 384.852 250.78 384.852C251.72 384.852 252.425 384.146 252.425 383.206V379.916C252.425 379.681 252.66 379.446 252.895 379.446C253.13 379.446 253.365 379.681 253.365 379.916V383.206C253.6 384.734 252.308 385.909 250.897 385.909Z" fill="#C7C7C7"/>
<path d="M255.716 387.202V383.677V381.796C255.716 381.561 255.951 381.326 256.186 381.326C256.421 381.326 256.656 381.561 256.656 381.679C257.008 381.444 257.478 381.326 257.948 381.326C259.241 381.326 260.181 382.384 260.181 383.677C260.181 384.969 259.123 386.027 257.948 386.027C257.478 386.027 257.008 385.909 256.656 385.674V387.319C256.656 387.554 256.421 387.789 256.068 387.789C255.951 387.672 255.716 387.437 255.716 387.202ZM256.656 383.559C256.656 383.912 256.773 384.264 257.008 384.499C257.243 384.734 257.596 384.852 257.948 384.852C258.301 384.852 258.536 384.734 258.771 384.499C259.006 384.264 259.123 383.912 259.123 383.559C259.123 383.207 259.006 382.854 258.771 382.619C258.536 382.384 258.183 382.267 257.948 382.267C257.596 382.267 257.243 382.384 257.008 382.619C256.773 382.854 256.656 383.207 256.656 383.559Z" fill="#C7C7C7"/>
<path d="M262.296 379.329C262.531 379.329 262.766 379.564 262.766 379.799V385.322C262.766 385.557 262.531 385.792 262.296 385.792C262.061 385.792 261.826 385.557 261.826 385.322V379.799C261.708 379.564 261.943 379.329 262.296 379.329Z" fill="#C7C7C7"/>
<path d="M264.411 385.205C264.059 384.735 263.706 384.264 263.706 383.559C263.706 382.972 263.941 382.384 264.411 381.914C264.881 381.444 265.352 381.209 266.057 381.209C266.644 381.209 267.232 381.444 267.584 381.914C268.054 382.384 268.289 382.972 268.289 383.559C268.289 384.264 268.054 384.852 267.584 385.205C267.232 385.675 266.644 385.91 266.057 385.91C265.469 385.91 264.881 385.675 264.411 385.205ZM264.881 383.559C264.881 383.912 264.999 384.265 265.234 384.5C265.469 384.735 265.822 384.852 266.174 384.852C266.527 384.852 266.762 384.735 266.997 384.5C267.232 384.265 267.349 383.912 267.349 383.559C267.349 383.207 267.232 382.854 266.997 382.619C266.762 382.384 266.409 382.267 266.174 382.267C265.822 382.267 265.469 382.384 265.234 382.619C264.999 382.854 264.881 383.207 264.881 383.559Z" fill="#C7C7C7"/>
<path d="M273.812 383.559V385.44C273.812 385.675 273.577 385.91 273.342 385.91C273.107 385.91 272.872 385.675 272.872 385.557C272.519 385.792 272.049 385.91 271.579 385.91C270.992 385.91 270.404 385.675 269.934 385.205C269.581 384.735 269.346 384.147 269.346 383.559C269.346 382.854 269.581 382.384 269.934 381.914C270.287 381.444 270.874 381.209 271.579 381.209C272.049 381.209 272.519 381.327 272.872 381.679C272.872 381.444 273.107 381.209 273.342 381.209C273.577 381.209 273.812 381.444 273.812 381.679V383.559ZM272.872 383.559C272.872 383.207 272.754 382.854 272.519 382.619C272.284 382.384 271.932 382.267 271.697 382.267C271.344 382.267 270.992 382.384 270.874 382.619C270.639 382.854 270.522 383.207 270.522 383.559C270.522 383.912 270.639 384.265 270.874 384.5C271.109 384.735 271.462 384.852 271.697 384.852C272.049 384.852 272.402 384.735 272.519 384.5C272.754 384.265 272.872 383.912 272.872 383.559Z" fill="#C7C7C7"/>
<path d="M279.923 385.439C279.923 385.674 279.688 385.909 279.453 385.909C279.218 385.909 278.983 385.674 278.983 385.557C278.63 385.792 278.16 385.909 277.69 385.909C276.398 385.909 275.458 384.852 275.458 383.559C275.458 382.267 276.515 381.209 277.69 381.209C278.16 381.209 278.63 381.327 278.983 381.562V379.799C278.983 379.564 279.218 379.329 279.453 379.329C279.688 379.329 279.923 379.564 279.923 379.799V383.559V385.439ZM277.69 382.267C277.338 382.267 276.985 382.384 276.868 382.619C276.633 382.854 276.515 383.207 276.515 383.559C276.515 383.912 276.633 384.264 276.868 384.499C277.103 384.734 277.455 384.852 277.69 384.852C278.043 384.852 278.395 384.734 278.63 384.499C278.865 384.264 278.983 383.912 278.983 383.559C278.983 383.207 278.865 382.854 278.63 382.619C278.278 382.384 278.043 382.267 277.69 382.267Z" fill="#C7C7C7"/>
<path d="M282.507 384.617C282.86 384.617 283.212 384.969 283.212 385.322C283.212 385.675 282.86 386.027 282.507 386.027C282.155 386.027 281.802 385.675 281.802 385.322C281.802 384.852 282.037 384.617 282.507 384.617Z" fill="#C7C7C7"/>
<path d="M284.623 384.617C284.976 384.617 285.328 384.969 285.328 385.322C285.328 385.675 284.976 386.027 284.623 386.027C284.271 386.027 283.918 385.675 283.918 385.322C283.918 384.852 284.271 384.617 284.623 384.617Z" fill="#C7C7C7"/>
<path d="M286.739 384.617C287.091 384.617 287.444 384.969 287.444 385.322C287.444 385.675 287.091 386.027 286.739 386.027C286.386 386.027 286.033 385.675 286.033 385.322C286.151 384.852 286.386 384.617 286.739 384.617Z" fill="#C7C7C7"/>
<path d="M340.794 392.725H194.847V401.891H340.794V392.725Z" fill="#EBEBEB"/>
<path d="M243.849 394.37H196.61V400.363H243.849V394.37Z" fill="#FE9563"/>
<path opacity="0.1" d="M206.128 394.37H201.193L196.61 400.363H201.545L206.128 394.37Z" fill="black"/>
<path opacity="0.1" d="M215.529 394.37H210.711L206.01 400.363H210.946L215.529 394.37Z" fill="black"/>
<path opacity="0.1" d="M225.047 394.37H220.112L215.529 400.363H220.347L225.047 394.37Z" fill="black"/>
<path opacity="0.1" d="M234.448 394.37H229.512L224.929 400.363H229.865L234.448 394.37Z" fill="black"/>
<path opacity="0.1" d="M243.848 394.37H239.03L234.33 400.363H239.265L243.848 394.37Z" fill="black"/>
<path opacity="0.1" d="M291.088 400.363V400.246L290.971 400.363H291.088Z" fill="black"/>
<path d="M403.191 184.851C402.251 185.791 401.311 186.731 400.37 187.671C399.783 188.258 399.313 188.728 398.725 189.316C391.205 182.03 382.274 178.153 371.698 178.153C361.24 178.153 352.191 182.03 344.671 189.433C344.201 188.963 343.613 188.376 343.143 187.906C342.203 186.966 341.263 186.026 340.323 185.086C340.323 185.086 340.323 185.086 340.205 185.086C340.205 185.086 340.205 185.086 340.205 184.968C340.323 184.968 340.323 184.851 340.44 184.851C341.615 183.793 342.791 182.735 343.966 181.678C346.433 179.563 349.254 177.917 352.191 176.507C355.599 174.862 359.242 173.57 363.12 172.865C364.882 172.512 366.763 172.395 368.525 172.159C369.113 172.042 373.108 172.042 373.226 172.042C374.518 172.16 375.693 172.159 376.986 172.277C380.394 172.63 383.684 173.452 386.974 174.627C389.325 175.45 391.557 176.507 393.672 177.8C395.905 179.093 398.138 180.62 400.135 182.265C401.311 182.97 402.251 183.911 403.191 184.851Z" fill="#F6EDDF"/>
<path d="M353.602 198.129C352.074 196.601 350.664 195.191 349.136 193.781C354.189 188.845 360.182 185.672 367.115 184.732C377.574 183.322 386.622 186.495 394.26 193.781C392.732 195.308 391.322 196.718 389.795 198.246C384.742 193.428 378.749 190.725 371.698 190.725C364.765 190.608 358.654 193.193 353.602 198.129Z" fill="#F6EDDF"/>
<path d="M385.448 202.476C384.038 203.886 382.51 205.414 380.982 206.824C378.397 204.356 375.342 202.946 371.699 202.946C368.056 202.946 365.001 204.356 362.416 206.824C360.888 205.296 359.478 203.886 358.068 202.476C365.118 195.191 377.692 194.603 385.448 202.476Z" fill="#F6EDDF"/>
<path d="M375.811 210.937C375.811 213.17 374.049 214.933 371.816 214.933C369.583 214.933 367.821 213.17 367.821 210.937C367.821 208.705 369.583 206.942 371.816 206.942C373.931 206.942 375.811 208.705 375.811 210.937Z" fill="#F6EDDF"/>
<path d="M133.505 470.283L129.98 518.58C129.98 527.98 130.098 536.324 130.568 540.554C130.568 540.554 130.568 540.554 130.568 540.671C130.685 542.317 130.92 543.374 131.273 543.609C131.273 543.609 131.273 543.609 131.273 543.727C134.093 545.607 209.652 548.192 212.237 547.487C214.94 546.664 212.825 539.026 210.004 536.559C207.184 534.091 178.629 520.225 178.629 520.225L181.684 471.928L133.505 470.283Z" fill="#774442"/>
<path d="M212.355 547.252C209.652 548.075 134.21 545.489 131.39 543.492C131.39 543.492 131.39 543.492 131.273 543.374C131.038 543.139 130.803 542.082 130.568 540.436C130.568 540.436 130.568 540.436 130.568 540.319C130.098 535.971 129.98 527.745 129.98 518.345C129.98 518.345 130.568 510.001 131.273 500.248L179.804 502.481L178.747 519.872C178.747 519.872 207.184 533.738 210.122 536.206C212.942 538.909 215.057 546.547 212.355 547.252Z" fill="#EBEBEB"/>
<path d="M212.707 547.487C210.004 548.309 133.27 546.194 130.45 544.196C129.392 543.491 129.157 517.757 130.685 504.713L180.039 506.593C180.039 506.593 179.921 519.872 180.509 520.107C185.327 522.574 207.771 534.09 210.356 536.323C213.294 538.791 215.409 546.664 212.707 547.487Z" fill="#FE9563"/>
<path d="M211.767 544.314C198.959 543.491 147.019 541.494 134.328 541.729C134.211 541.729 134.211 541.846 134.328 541.846C147.019 542.904 198.959 544.549 211.767 544.667C212.002 544.549 212.002 544.314 211.767 544.314Z" fill="#263238"/>
<path d="M205.657 533.386C202.602 533.151 199.547 534.443 197.902 536.206C196.257 537.851 194.729 540.319 194.729 542.904C194.729 543.021 194.847 543.021 194.847 542.904C195.787 537.851 200.487 533.621 205.657 533.503C205.775 533.621 205.775 533.386 205.657 533.386Z" fill="#263238"/>
<path d="M183.682 521.164C178.512 520.929 172.519 522.457 169.111 526.57C168.993 526.687 169.228 526.922 169.346 526.805C174.046 524.572 178.629 522.927 183.682 521.752C184.035 521.634 184.035 521.164 183.682 521.164Z" fill="#263238"/>
<path d="M187.56 522.81C182.39 522.575 176.397 524.102 172.989 528.215C172.872 528.333 173.107 528.568 173.224 528.45C177.924 526.217 182.507 524.572 187.56 523.397C187.913 523.397 187.913 522.81 187.56 522.81Z" fill="#263238"/>
<path d="M191.439 524.454C186.268 524.219 180.275 525.747 176.867 529.86C176.75 529.977 176.985 530.212 177.102 530.095C181.803 527.862 186.386 526.217 191.439 525.042C191.909 525.042 191.791 524.572 191.439 524.454Z" fill="#263238"/>
<path d="M195.316 526.217C190.145 525.982 184.152 527.51 180.744 531.623C180.627 531.74 180.862 531.975 180.979 531.858C185.68 529.625 190.263 527.98 195.316 526.805C195.786 526.805 195.786 526.217 195.316 526.217Z" fill="#263238"/>
<path d="M138.558 509.766C132.8 509.531 132.448 518.579 138.206 518.697C144.081 518.932 144.434 509.884 138.558 509.766Z" fill="#263238"/>
<path d="M189.676 507.651C187.208 505.419 183.801 507.416 182.155 509.531C181.45 510.471 180.745 511.647 180.04 512.822C178.63 515.407 177.572 518.345 177.102 521.165C177.102 521.4 176.985 521.635 176.985 521.87C176.985 521.987 176.985 521.987 176.985 521.987C176.985 522.222 176.867 522.34 176.867 522.575C176.867 522.692 176.985 522.693 176.985 522.693C177.102 522.928 177.22 523.163 177.455 523.163C177.572 523.163 177.69 523.163 177.808 523.163C178.865 522.457 179.923 521.87 180.98 521.165L181.568 520.812C184.153 519.167 186.738 517.522 188.736 515.172C190.734 513.057 192.144 509.766 189.676 507.651ZM182.978 518.345C182.155 518.932 181.333 519.402 180.393 519.99C179.57 520.46 178.748 521.047 178.043 521.635C177.925 521.635 177.925 521.752 177.808 521.87C177.69 521.987 177.572 521.987 177.572 522.105C177.572 521.987 177.69 521.87 177.69 521.87C178.513 519.872 179.218 517.875 180.158 515.877C180.275 515.524 180.51 515.054 180.745 514.702C181.333 513.527 182.038 512.352 182.743 511.294C183.918 509.649 189.088 505.536 189.441 511.176C189.559 513.997 185.211 516.817 182.978 518.345Z" fill="#263238"/>
<path d="M178.041 522.222C178.158 522.105 178.158 522.105 178.041 521.987C177.923 521.87 177.806 521.752 177.688 521.752L177.571 521.635C177.453 521.517 177.218 521.282 177.101 521.165C174.045 518.462 169.815 516.229 165.82 515.289C163.117 514.702 159.239 515.289 158.769 518.58C158.299 521.752 161.472 523.515 164.057 523.985C166.642 524.455 169.345 524.338 172.048 523.985C173.928 523.75 175.808 523.397 177.571 523.28C178.158 523.045 178.276 522.575 178.041 522.222ZM170.755 522.575C168.17 522.81 162.882 523.397 161.119 520.93C157.829 516.347 164.41 516.229 166.407 516.817C167.7 517.169 168.875 517.639 170.168 518.227C172.635 519.285 174.868 520.577 177.101 521.87C177.218 521.87 177.218 521.987 177.336 521.987C177.218 521.987 177.101 521.987 177.101 521.987C176.866 521.987 176.631 521.987 176.278 521.987C174.398 522.105 172.635 522.34 170.755 522.575Z" fill="#263238"/>
<path d="M129.979 497.545L184.033 499.778C184.033 499.778 186.501 424.336 185.326 392.726C184.033 358.296 169.227 255.709 169.227 255.709H124.573C124.573 255.709 135.972 358.648 136.207 393.078C136.442 425.041 129.979 497.545 129.979 497.545Z" fill="#37474F"/>
<path d="M160.414 255.709L133.622 348.542C130.449 304.593 124.573 255.709 124.573 255.709H160.414Z" fill="#263238"/>
<path d="M133.034 260.761L135.854 291.314L138.439 321.984C140.084 342.431 141.73 362.878 142.905 383.324C143.257 388.495 143.375 393.548 143.257 398.718C143.14 403.889 142.905 408.942 142.67 414.112C142.2 424.335 141.495 434.559 140.672 444.782C139.849 455.006 137.029 485.088 137.029 485.088C137.029 485.088 139.144 455.006 139.732 444.782C140.319 434.559 141.025 424.335 141.495 414.112C141.73 408.942 141.965 403.889 141.965 398.718C141.965 393.665 141.847 388.495 141.495 383.442C140.437 362.995 138.792 342.548 137.264 322.102L133.034 260.761Z" fill="#263238"/>
<path d="M182.272 489.671C174.046 489.084 176.396 489.201 168.171 488.731C164.175 488.496 137.618 486.969 133.858 487.439C133.74 487.439 133.74 487.556 133.858 487.556C137.618 488.379 164.175 489.319 168.171 489.554C176.396 489.906 174.046 489.671 182.272 489.906C182.389 489.906 182.507 489.671 182.272 489.671Z" fill="#263238"/>
<path d="M47.7218 442.903L23.0446 484.619C18.8143 493.079 15.1715 500.483 13.7614 504.595C13.7614 504.595 13.7614 504.595 13.7614 504.713C13.1738 506.241 12.9388 507.298 13.0563 507.651C13.0563 507.651 13.0563 507.651 13.0563 507.768C14.7014 510.706 81.2121 546.664 83.9149 547.134C86.6176 547.604 88.2627 539.848 86.7351 536.441C85.2075 533.033 65.9358 507.886 65.9358 507.886L90.1429 466.052L47.7218 442.903Z" fill="#774442"/>
<path d="M83.9149 547.017C81.2121 546.546 14.7014 510.588 13.0563 507.651C13.0563 507.651 13.0563 507.651 13.0563 507.533C12.9388 507.181 13.1738 506.123 13.7614 504.595C13.7614 504.595 13.7614 504.595 13.7614 504.478C15.289 500.483 18.8143 492.962 23.0446 484.501C23.0446 484.501 27.275 477.216 32.3279 468.872L74.7491 492.492L66.0533 507.651C66.0533 507.651 85.325 532.798 86.8526 536.206C88.2627 539.731 86.7351 547.487 83.9149 547.017Z" fill="#EBEBEB"/>
<path d="M84.2669 547.251C81.4467 546.781 13.7609 510.706 12.1157 507.65C11.5282 506.475 22.6916 483.326 29.8598 472.397L73.221 496.135C73.221 496.135 67.228 508.003 67.698 508.473C70.9883 512.821 85.9121 533.15 87.2047 536.323C88.6148 539.848 86.9696 547.721 84.2669 547.251Z" fill="#FE9563"/>
<path d="M84.737 544.079C73.5736 537.616 28.0972 512.704 16.5812 507.181C16.4637 507.181 16.4637 507.181 16.5812 507.298C27.5096 513.879 73.221 538.438 84.6195 544.314C84.8545 544.314 84.972 544.196 84.737 544.079Z" fill="#263238"/>
<path d="M84.149 531.505C81.5638 529.978 78.2735 529.743 75.9233 530.565C73.6906 531.388 71.3404 532.798 70.1653 535.266C70.1653 535.383 70.2828 535.383 70.2828 535.383C73.3381 531.27 79.4486 529.625 84.149 531.74C84.149 531.74 84.2665 531.623 84.149 531.505Z" fill="#263238"/>
<path d="M69.93 510.706C65.4646 508.121 59.3541 506.946 54.5362 509.061C54.3011 509.178 54.4186 509.413 54.6537 509.413C59.9416 509.531 64.642 510.118 69.695 511.294C70.0475 511.411 70.2825 510.941 69.93 510.706Z" fill="#263238"/>
<path d="M72.6339 513.996C68.1686 511.411 62.058 510.236 57.2401 512.351C57.0051 512.468 57.1226 512.703 57.3576 512.703C62.6456 512.821 67.346 513.409 72.3989 514.584C72.7515 514.701 72.9865 514.114 72.6339 513.996Z" fill="#263238"/>
<path d="M75.4534 517.287C70.988 514.702 64.8775 513.527 60.0596 515.642C59.8246 515.759 59.9421 515.994 60.1771 515.994C65.4651 516.112 70.1655 516.7 75.2184 517.875C75.5709 517.992 75.6884 517.405 75.4534 517.287Z" fill="#263238"/>
<path d="M78.1563 520.459C73.6909 517.874 67.5804 516.699 62.7625 518.814C62.5274 518.932 62.6449 519.167 62.88 519.167C68.1679 519.284 72.8683 519.872 77.9213 521.047C78.2738 521.164 78.5088 520.694 78.1563 520.459Z" fill="#263238"/>
<path d="M34.6774 480.506C29.6245 477.803 25.2766 485.676 30.4471 488.379C35.5 491.082 39.7304 483.209 34.6774 480.506Z" fill="#263238"/>
<path d="M81.3298 501.306C80.0372 498.133 76.1594 498.485 73.6916 499.661C72.6341 500.248 71.459 500.836 70.4014 501.658C67.9337 503.421 65.701 505.536 64.0558 507.886C63.9383 508.121 63.8208 508.239 63.7033 508.474C63.5858 508.474 63.5858 508.591 63.5858 508.591C63.4683 508.709 63.3508 508.826 63.2332 509.061C63.2332 509.179 63.2332 509.296 63.3508 509.296C63.3508 509.531 63.3508 509.884 63.5858 510.001C63.7033 510.119 63.8208 510.119 63.9383 510.119C65.1134 510.001 66.406 509.884 67.6986 509.766H68.4037C71.459 509.531 74.5142 509.179 77.3345 507.886C79.8022 506.711 82.6224 504.361 81.3298 501.306ZM70.6364 507.886C69.5788 508.004 68.6387 508.121 67.6986 508.239C66.7586 508.356 65.8185 508.474 64.8784 508.591C64.7609 508.591 64.6434 508.591 64.5259 508.591C64.4083 508.591 64.2908 508.591 64.1733 508.591C64.2908 508.474 64.2908 508.474 64.4083 508.356C66.0535 506.946 67.5811 505.419 69.3438 504.126C69.6963 503.891 70.0488 503.538 70.4014 503.303C71.459 502.598 72.5165 501.776 73.6916 501.188C75.4543 500.248 82.0349 498.838 79.8022 504.008C78.392 506.946 73.2216 507.534 70.6364 507.886Z" fill="#263238"/>
<path d="M64.4074 509.296C64.5249 509.296 64.5249 509.179 64.5249 509.061C64.5249 508.944 64.4074 508.826 64.4074 508.709V508.591C64.2899 508.356 64.2899 508.121 64.1723 508.004C62.6447 504.126 59.8245 500.248 56.7692 497.663C54.654 495.9 50.8937 494.725 49.0135 497.428C47.1334 500.013 49.2486 503.068 51.3637 504.596C53.4789 506.241 55.9466 507.299 58.5319 508.121C60.2945 508.709 62.0572 509.296 63.8198 509.884C64.0548 510.001 64.4074 509.649 64.4074 509.296ZM57.8268 506.241C55.3591 505.301 50.4237 503.421 49.9536 500.366C49.0135 494.843 55.0066 497.663 56.5342 499.073C57.4743 499.896 58.4144 500.953 59.2369 501.893C60.8821 503.891 62.2922 506.124 63.8198 508.239C63.8198 508.356 63.9373 508.356 63.9373 508.474C63.8198 508.474 63.8198 508.356 63.7023 508.356C63.4673 508.239 63.2323 508.121 62.9972 508.004C61.2346 507.534 59.4719 506.946 57.8268 506.241Z" fill="#263238"/>
<path d="M164.644 255.709C164.409 256.649 161.354 271.103 158.063 283.559C155.713 292.607 153.245 300.598 151.953 301.42C150.425 302.36 142.669 305.768 140.084 306.826C140.084 306.826 122.81 392.961 113.762 419.636C105.419 444.313 81.6818 491.317 81.6818 491.317L32.5626 464.289C32.5626 464.289 59.4724 417.873 63.7027 405.887C70.1658 387.32 94.1378 296.602 94.1378 296.602C94.1378 296.602 93.9028 268.165 103.539 255.827H164.644V255.709Z" fill="#37474F"/>
<path d="M83.6808 480.153C76.5127 476.158 78.6279 477.215 71.3423 473.22C67.817 471.34 44.4325 458.649 40.7896 457.356C40.6721 457.356 40.6721 457.474 40.6721 457.474C43.7274 459.824 67.2294 472.045 70.8722 473.925C78.1578 477.685 76.1602 476.51 83.4458 480.271C83.6808 480.388 83.7983 480.271 83.6808 480.153Z" fill="#263238"/>
<path d="M107.066 288.612C108.476 288.259 109.886 288.142 111.296 287.907C112.471 287.672 113.529 287.554 114.704 287.319C116.819 286.849 118.934 286.144 120.697 284.851C122.695 283.324 123.635 280.974 124.575 278.858C125.162 277.566 125.75 276.273 126.337 274.981C126.572 274.393 126.925 273.688 127.16 273.1C127.512 272.395 127.983 271.573 128.218 270.868C128.218 270.75 128.453 270.868 128.335 270.868C128.1 271.338 127.983 271.925 127.865 272.513C127.63 273.1 127.512 273.805 127.277 274.393C126.925 275.568 126.572 276.626 126.22 277.801C125.515 279.798 124.927 281.914 123.87 283.794C121.754 287.084 118.112 288.494 114.351 288.964C113.294 289.082 112.236 289.199 111.179 289.199C109.886 289.317 108.476 289.434 107.066 289.199C106.948 288.964 106.831 288.612 107.066 288.612Z" fill="#263238"/>
<path d="M155.95 299.422C150.427 301.303 145.139 304.005 140.086 306.825C139.851 306.943 139.968 307.296 140.203 307.178C145.491 304.945 151.014 302.713 156.185 300.127C156.655 299.892 156.42 299.305 155.95 299.422Z" fill="#263238"/>
<path d="M157.594 262.994C157.594 262.759 157.241 262.759 157.241 262.994C157.241 269.34 156.889 274.863 156.301 280.738C156.066 283.441 153.834 298.6 149.133 297.542C148.311 297.307 147.958 296.602 147.841 295.427C147.723 294.017 148.193 292.254 148.428 290.727C148.898 287.554 149.368 284.381 149.603 281.208C150.073 275.215 150.191 269.222 149.368 263.229C149.368 262.994 149.016 262.994 149.016 263.229C149.016 271.455 148.781 279.798 147.606 288.024C147.018 292.019 145.02 297.895 149.133 298.482C153.364 299.07 156.066 289.199 156.536 286.496C158.064 278.858 158.182 270.633 157.594 262.994Z" fill="#263238"/>
<path d="M149.251 298.012C148.781 299.07 148.429 300.127 148.194 301.185C147.959 302.008 147.606 302.948 147.724 303.77C147.724 303.888 147.959 304.005 148.076 303.888C148.664 303.183 148.899 302.243 149.134 301.42C149.486 300.48 149.839 299.54 150.192 298.482C150.427 297.66 149.486 297.307 149.251 298.012Z" fill="#263238"/>
<path d="M44.7857 457.473C51.9538 443.96 63.2348 422.808 66.7601 416.227C70.1679 409.647 72.5181 402.714 74.7508 395.545C79.2161 381.092 83.4465 366.638 87.3243 352.067C91.3197 337.496 94.9625 322.807 98.4878 308.118C99.3104 304.475 100.368 300.715 101.073 297.072C101.778 293.194 101.543 289.669 101.073 285.791C100.603 282.266 100.485 278.741 100.956 275.215C101.543 271.69 102.366 268.282 103.423 264.874C104.011 263.112 104.598 261.349 105.186 259.586C105.303 259.351 105.538 259.469 105.538 259.704C103.423 266.872 101.191 274.04 101.661 281.561C101.896 285.204 102.836 288.729 102.836 292.372C102.718 296.014 101.778 299.54 100.956 303.065C97.5477 317.871 93.7874 332.56 89.9096 347.249C86.0317 361.938 81.8014 376.509 77.4535 390.963C75.3383 398.013 73.3406 405.181 70.2854 411.879C67.2301 418.577 55.7141 439.259 48.076 452.538C47.1359 454.183 46.0783 455.828 45.1382 457.591C44.9032 457.708 44.6682 457.591 44.7857 457.473Z" fill="#263238"/>
<path d="M140.437 180.268C155.831 188.728 182.036 204.357 192.729 205.532C200.955 206.472 239.616 180.855 251.249 170.867C254.774 167.812 234.798 145.72 230.685 148.657C219.404 156.766 188.969 175.802 187.676 176.037C182.623 176.977 162.529 171.337 144.55 167.929C124.456 164.169 132.916 176.155 140.437 180.268Z" fill="#774442"/>
<path d="M168.404 197.777L180.625 175.097C180.625 175.097 150.543 165.814 136.912 166.872C123.28 168.047 131.741 175.215 138.674 180.033C145.372 184.851 168.404 197.777 168.404 197.777Z" fill="#C7C7C7"/>
<path d="M168.404 197.777L180.625 175.097C180.625 175.097 150.543 165.814 136.912 166.872C123.28 168.047 131.741 175.215 138.674 180.033C145.372 184.851 168.404 197.777 168.404 197.777Z" fill="#FE9563"/>
<path d="M180.51 175.215L180.392 175.45C180.157 175.332 179.805 175.215 179.57 175.097C179.1 174.98 178.747 174.745 178.277 174.627L176.984 174.157C176.514 174.039 176.044 173.922 175.574 173.804L174.869 173.687C174.634 173.687 174.399 173.569 174.164 173.569C170.521 172.982 166.644 173.334 163.118 174.392C159.593 175.45 156.185 177.212 153.012 179.092C150.545 180.62 148.077 182.265 145.727 183.91C145.609 184.028 145.492 184.145 145.374 184.145C145.257 184.263 145.257 184.263 145.139 184.263C145.022 184.145 144.787 184.028 144.669 184.028C144.787 184.028 144.904 183.91 144.904 183.91C145.022 183.793 145.139 183.793 145.257 183.675C147.724 182.03 150.192 180.268 152.777 178.74C155.95 176.86 159.358 175.097 163.001 174.039C166.526 172.982 170.286 172.747 173.812 173.217C176.867 174.039 179.217 174.745 180.04 174.98C180.275 175.097 180.392 175.097 180.51 175.215ZM172.519 189.081C169.229 190.138 165.939 191.431 162.766 192.724C162.178 192.959 161.473 193.194 160.886 193.429C161.121 193.546 161.238 193.664 161.473 193.781C161.943 193.546 162.531 193.429 163.001 193.194C166.174 191.901 169.464 190.608 172.637 189.433C172.754 189.433 172.872 189.316 172.872 189.316L173.107 188.728C172.989 188.846 172.754 188.963 172.519 189.081ZM145.727 183.91C145.609 183.793 145.492 183.675 145.257 183.675C144.082 182.853 142.789 182.265 141.496 181.795C141.261 181.678 140.909 181.678 140.674 181.56C141.026 181.795 141.496 182.03 141.849 182.265C142.907 182.618 143.964 183.205 144.904 183.793C145.022 183.91 145.139 184.028 145.374 184.028C145.727 184.263 145.962 184.498 146.314 184.733C146.549 184.968 146.902 185.203 147.137 185.438C147.607 185.79 148.194 186.026 148.782 186.378C148.077 185.673 147.372 184.968 146.549 184.38C146.314 184.263 145.962 184.028 145.727 183.91Z" fill="white"/>
<path d="M163.94 194.133C165.35 190.843 167.23 187.67 168.875 184.498C170.638 181.207 172.635 178.152 174.398 174.979C174.398 174.862 174.633 174.979 174.516 175.097C172.87 178.27 171.343 181.56 169.58 184.733C167.817 187.905 166.055 191.196 163.94 194.133C163.94 194.251 163.94 194.251 163.94 194.133Z" fill="#263238"/>
<path opacity="0.1" d="M174.633 186.143L168.405 197.776C168.405 197.776 145.491 184.85 138.558 180.15C134.327 177.212 129.627 173.452 129.627 170.631L174.633 186.143Z" fill="black"/>
<path d="M96.1366 264.64C96.3716 264.875 169.58 263.582 170.285 262.76C171.226 261.585 161.002 193.311 150.661 175.097C145.726 166.402 132.212 161.701 124.339 175.215C105.537 207.413 95.549 263.935 96.1366 264.64Z" fill="#FE9563"/>
<path d="M170.168 260.175C169.815 260.175 169.463 260.175 169.11 260.175C168.875 260.175 168.64 260.175 168.405 260.175H167.7C167.23 260.175 166.76 260.175 166.29 260.057L164.88 259.822C164.41 259.822 163.94 259.705 163.47 259.587C162.53 259.47 161.59 259.117 160.767 258.882C159.827 258.529 159.004 258.294 158.182 257.824C157.359 257.472 156.537 257.002 155.597 256.532C154.774 256.062 153.951 255.592 153.246 255.122C152.424 254.652 151.719 254.064 150.896 253.477C150.191 252.889 149.369 252.301 148.663 251.714C147.841 251.009 147.018 250.304 146.196 249.599C146.078 249.481 145.961 249.481 145.961 249.364C144.081 247.719 142.2 245.956 140.438 244.193C137.735 241.608 135.032 239.023 132.095 236.673C130.684 235.498 129.157 234.44 127.512 233.617C127.159 233.382 126.807 233.265 126.454 233.147C126.337 233.03 126.102 233.03 125.984 232.912C124.809 232.442 123.516 232.09 122.224 231.855C121.754 231.855 121.284 231.737 120.814 231.737H119.403C118.933 231.737 118.463 231.737 117.993 231.855L116.583 231.972L115.878 232.09L115.173 232.207L113.763 232.442C112.823 232.677 112 232.912 111.06 233.265C110.708 233.382 110.238 233.5 109.885 233.735C109.65 233.852 109.533 233.852 109.415 233.97C108.24 234.44 107.065 235.027 106.007 235.615C104.48 236.438 102.835 237.143 101.189 237.848C101.189 237.73 101.189 237.613 101.307 237.613C102.835 237.025 104.362 236.203 105.89 235.38C106.947 234.792 108.005 234.322 109.063 233.852C109.18 233.735 109.415 233.735 109.533 233.617C110.003 233.382 110.473 233.265 110.943 233.03C111.883 232.677 112.705 232.442 113.645 232.207L115.056 231.972L115.761 231.855L116.466 231.737L117.876 231.62C118.346 231.62 118.816 231.62 119.286 231.502H120.696C121.166 231.502 121.636 231.502 122.106 231.62C123.516 231.737 124.809 232.207 126.102 232.677C126.219 232.795 126.454 232.795 126.572 232.912C126.924 233.03 127.159 233.147 127.512 233.382C129.157 234.322 130.684 235.38 132.212 236.555C135.15 238.905 137.853 241.608 140.438 244.193C142.318 246.073 144.198 247.836 146.078 249.599C146.196 249.716 146.313 249.834 146.313 249.834C147.018 250.539 147.841 251.126 148.663 251.831C150.074 253.007 151.601 254.182 153.129 255.122C153.951 255.592 154.774 256.062 155.479 256.532C156.302 256.884 157.124 257.354 158.064 257.707C158.887 258.059 159.827 258.412 160.649 258.765C161.59 259 162.412 259.352 163.352 259.47C163.822 259.587 164.292 259.705 164.762 259.705L166.172 259.822C166.642 259.822 167.113 259.822 167.583 259.94H168.288C168.523 259.94 168.758 259.94 168.993 259.94C169.345 259.94 169.698 259.94 170.05 259.822C170.168 260.057 170.168 260.175 170.168 260.175ZM168.053 243.958C167.935 243.958 167.935 244.076 167.818 244.076C164.762 245.721 161.59 247.131 158.299 248.189C155.009 249.129 151.484 249.599 148.076 249.716C147.488 249.716 146.901 249.716 146.313 249.716C146.196 249.716 146.078 249.716 145.961 249.716C143.258 249.599 140.438 249.129 137.853 248.424C136.207 247.954 134.562 247.366 132.917 246.778C131.272 246.073 129.744 245.368 128.217 244.546C125.396 243.136 122.694 241.373 119.991 239.728C119.873 239.61 119.756 239.61 119.521 239.493C119.403 239.375 119.286 239.375 119.286 239.258C116.348 237.378 113.41 235.615 110.238 234.087H110.12C110.003 233.97 109.885 233.97 109.768 233.852C107.652 232.912 105.302 232.207 103.07 231.855C103.07 231.972 102.952 232.09 102.952 232.207C103.775 232.325 104.48 232.442 105.302 232.677C106.712 233.03 108.005 233.5 109.298 233.97C109.415 233.97 109.533 234.087 109.65 234.087C109.768 234.205 110.003 234.205 110.12 234.322C113.293 235.733 116.231 237.495 119.168 239.258C119.286 239.258 119.286 239.375 119.403 239.375C119.521 239.493 119.638 239.493 119.873 239.61C122.576 241.256 125.396 242.901 128.217 244.428C129.744 245.251 131.389 245.956 132.917 246.661C134.562 247.366 136.207 247.954 137.853 248.306C140.555 249.129 143.493 249.599 146.313 249.716C146.431 249.716 146.548 249.716 146.666 249.716C147.136 249.716 147.606 249.716 148.193 249.716C151.719 249.716 155.126 249.246 158.534 248.306C161.942 247.366 165.115 245.956 168.17 244.311C168.053 244.311 168.053 244.076 168.053 243.958ZM163.587 219.634C162.765 219.281 161.942 218.929 161.12 218.694C160.179 218.459 159.357 218.106 158.417 217.989C157.947 217.871 157.477 217.753 157.007 217.753L155.597 217.636C155.126 217.518 154.656 217.636 154.186 217.518H153.481C153.246 217.518 153.011 217.518 152.776 217.518C149.016 217.636 145.256 218.576 141.965 220.339C138.558 221.984 135.62 224.334 132.8 226.802C130.567 228.799 128.452 230.915 126.337 233.03C126.219 233.147 126.102 233.265 125.984 233.382L124.691 234.675C123.046 236.32 121.401 237.965 119.521 239.61C119.403 239.61 119.403 239.728 119.286 239.728C118.346 240.55 117.288 241.373 116.231 242.078C114.703 243.136 113.058 244.076 111.413 244.663C109.65 245.368 107.887 245.603 106.007 245.603C104.127 245.603 102.364 245.368 100.484 244.781C100.249 244.663 100.014 244.663 99.7793 244.546C99.7793 244.663 99.7793 244.781 99.6617 244.898C99.8968 245.016 100.132 245.016 100.367 245.133C102.247 245.603 104.127 245.956 106.007 245.956H106.712H107.417H108.122L108.828 245.838L109.533 245.721C109.768 245.721 110.003 245.603 110.238 245.486L110.943 245.251C111.178 245.133 111.413 245.133 111.648 245.016C113.41 244.311 115.056 243.371 116.583 242.313C117.641 241.491 118.698 240.668 119.756 239.845C119.873 239.728 119.873 239.728 119.991 239.728C120.344 239.493 120.696 239.14 120.931 238.788C122.341 237.495 123.634 236.203 124.926 234.91C125.396 234.44 125.866 233.97 126.337 233.5C126.454 233.382 126.572 233.265 126.689 233.147C128.804 231.032 130.802 229.034 132.917 227.037C135.737 224.569 138.675 222.219 141.965 220.574C145.256 218.929 148.898 217.871 152.659 217.753C152.894 217.753 153.129 217.753 153.364 217.753H154.069C154.539 217.753 155.009 217.753 155.479 217.871L156.889 217.989C157.359 217.989 157.829 218.106 158.299 218.224C159.239 218.341 160.062 218.694 161.002 218.929C161.825 219.281 162.765 219.516 163.587 219.869C163.587 219.751 163.587 219.634 163.587 219.634ZM152.541 178.858C150.074 180.385 147.723 182.03 145.256 183.558C145.138 183.676 145.021 183.676 144.903 183.793C144.433 184.146 143.846 184.498 143.375 184.851C140.32 186.966 137.147 189.081 133.857 190.609C133.27 190.844 132.682 191.079 131.977 191.314C131.86 191.314 131.742 191.431 131.624 191.431C130.684 191.784 129.627 192.019 128.569 192.254C126.807 192.606 124.926 192.489 123.046 192.136C121.284 191.784 119.403 191.196 117.758 190.374C117.406 190.256 117.171 190.021 116.818 189.904C116.701 190.021 116.701 190.139 116.701 190.256C116.936 190.374 117.288 190.609 117.523 190.726C119.168 191.549 121.049 192.136 122.811 192.606L123.634 192.841L124.339 192.959L125.044 193.076H125.749H126.454C126.689 193.076 126.924 193.076 127.159 192.959L127.864 192.841C128.099 192.841 128.334 192.724 128.569 192.724C129.744 192.489 130.919 192.136 132.095 191.784C132.212 191.784 132.33 191.666 132.447 191.666C132.917 191.431 133.505 191.196 133.975 190.961C135.737 190.139 137.265 189.199 138.91 188.258C140.555 187.318 142.083 186.261 143.611 185.203C144.198 184.851 144.668 184.498 145.256 184.028C145.373 183.911 145.491 183.911 145.608 183.793C147.958 182.265 150.191 180.62 152.541 179.21C152.659 179.093 152.541 178.975 152.541 178.858ZM157.829 194.604C157.124 194.839 156.419 195.074 155.832 195.309C155.714 195.309 155.597 195.309 155.597 195.427C154.774 195.662 153.951 195.897 153.011 196.132C149.604 196.837 146.196 196.954 142.788 196.132C139.38 195.427 136.09 194.251 133.27 192.371C133.035 192.254 132.8 192.136 132.682 191.901C132.447 191.784 132.33 191.666 132.212 191.549C129.744 189.786 127.512 187.788 124.809 186.378C123.281 185.556 121.636 184.851 119.991 184.263C119.873 184.263 119.873 184.263 119.873 184.263C119.873 184.263 119.873 184.263 119.873 184.381C119.873 184.381 119.873 184.381 119.873 184.498C119.991 184.498 119.991 184.498 120.108 184.616C120.931 184.968 121.754 185.203 122.576 185.556C123.399 185.908 124.104 186.261 124.926 186.731C127.512 188.141 129.627 190.139 132.095 191.901C132.212 192.019 132.447 192.136 132.565 192.254C132.8 192.489 133.152 192.606 133.387 192.841C136.325 194.839 139.615 196.014 143.023 196.719C146.431 197.659 150.074 197.542 153.481 196.719C154.421 196.484 155.362 196.249 156.184 196.014C156.302 196.014 156.419 196.014 156.419 195.897C157.007 195.662 157.712 195.544 158.299 195.309C157.829 194.839 157.829 194.722 157.829 194.604ZM159.239 200.127C158.534 199.187 157.947 198.364 157.359 197.424C156.889 196.837 156.537 196.249 156.067 195.662C155.949 195.544 155.832 195.427 155.714 195.192C154.069 192.841 152.424 190.609 150.544 188.376C149.251 186.966 147.958 185.556 146.548 184.381C146.313 184.146 146.078 183.911 145.726 183.793C145.608 183.676 145.491 183.558 145.256 183.558C144.081 182.735 142.788 182.148 141.495 181.678C141.025 181.56 140.555 181.443 140.085 181.325L138.675 181.09C138.205 180.973 137.735 180.973 137.265 180.855L135.855 180.738H135.15H134.445H133.035C132.095 180.855 131.154 180.855 130.214 181.09C128.334 181.325 126.572 181.913 124.691 182.383C123.046 182.853 121.284 183.441 119.521 183.793C119.521 183.911 119.521 183.911 119.403 184.028C119.403 184.028 119.403 184.028 119.403 184.146C119.521 184.146 119.521 184.146 119.638 184.146C121.401 183.793 123.046 183.323 124.809 182.853C126.572 182.383 128.452 181.795 130.214 181.56C131.154 181.443 132.095 181.325 133.035 181.325H135.15H135.855L137.265 181.443C137.735 181.443 138.205 181.56 138.675 181.678L140.085 181.913C140.555 182.03 141.025 182.148 141.378 182.265C142.67 182.618 143.728 183.206 144.903 183.911C145.021 184.028 145.138 184.146 145.373 184.146C145.726 184.381 145.961 184.616 146.313 184.851C147.723 186.026 149.133 187.318 150.309 188.729C152.189 190.844 153.834 193.076 155.479 195.309C155.597 195.427 155.714 195.544 155.832 195.779C156.302 196.367 156.772 197.072 157.124 197.659C157.947 198.717 158.652 199.774 159.474 200.832C159.357 200.597 159.239 200.362 159.239 200.127Z" fill="white"/>
<path d="M145.727 180.856C142.437 181.208 135.269 175.685 132.214 170.632C131.978 170.28 132.331 166.637 132.566 162.054C132.684 159.351 132.801 156.296 132.684 153.476L150.31 156.884C150.31 156.884 148.9 162.759 149.135 167.695C149.135 168.047 149.252 168.517 149.252 168.87C149.252 168.87 149.252 168.987 149.252 169.105C149.84 171.22 150.898 180.268 145.727 180.856Z" fill="#774442"/>
<path d="M132.683 161.349C136.443 166.402 142.084 171.337 149.605 170.162C149.487 169.692 149.487 169.34 149.37 169.105C149.37 168.987 149.37 168.987 149.37 168.87C149.252 168.517 149.252 168.165 149.252 167.695C149.017 162.877 150.427 156.884 150.427 156.884L132.801 153.476C132.918 156.061 132.801 158.764 132.683 161.349Z" fill="#263238"/>
<path d="M128.102 133.616C126.457 139.962 130.687 157.706 135.27 161.466C141.968 166.989 152.427 166.989 157.01 159.116C161.357 151.478 155.599 128.446 150.546 125.038C142.908 119.985 130.452 124.333 128.102 133.616Z" fill="#774442"/>
<path d="M145.61 142.782L145.493 142.9C145.845 144.075 146.08 145.485 145.14 146.19V146.308C146.433 145.602 146.198 143.722 145.61 142.782Z" fill="#263238"/>
<path d="M144.2 141.725C142.203 142.077 143.143 145.955 144.905 145.603C146.785 145.368 145.845 141.49 144.2 141.725Z" fill="#263238"/>
<path d="M152.663 140.785C152.663 140.785 152.781 140.902 152.663 140.785C153.016 142.077 153.486 143.37 154.661 143.605V143.722C153.251 143.84 152.663 141.96 152.663 140.785Z" fill="#263238"/>
<path d="M153.368 139.375C155.248 138.787 156.305 142.548 154.543 143.135C152.897 143.605 151.84 139.845 153.368 139.375Z" fill="#263238"/>
<path d="M142.321 140.315C142.791 140.08 143.261 139.727 143.731 139.492C144.201 139.14 144.671 138.905 144.906 138.317C145.023 137.965 144.788 137.495 144.553 137.377C143.848 137.024 143.143 137.26 142.438 137.612C141.733 138.082 141.263 138.552 141.028 139.257C140.793 140.08 141.616 140.667 142.321 140.315Z" fill="#263238"/>
<path d="M154.425 137.495C153.837 137.495 153.367 137.495 152.779 137.495C152.192 137.495 151.604 137.495 151.134 137.142C150.899 136.907 150.782 136.437 150.899 136.085C151.252 135.379 152.074 135.262 152.779 135.262C153.602 135.262 154.19 135.497 154.895 135.967C155.6 136.437 155.13 137.495 154.425 137.495Z" fill="#263238"/>
<path d="M147.139 154.063C147.492 154.298 147.844 154.651 148.314 154.533C148.784 154.416 149.137 154.181 149.49 153.946H149.607C149.372 154.533 148.784 154.886 148.197 155.003C147.609 155.003 147.257 154.651 147.139 154.063C147.022 154.063 147.022 154.063 147.139 154.063Z" fill="#263238"/>
<path d="M147.492 150.186C148.432 151.126 149.49 151.361 150.665 151.361C151.135 151.361 151.722 151.243 152.192 151.126C152.31 151.126 152.428 151.126 152.428 151.008C152.545 151.008 152.545 150.891 152.663 150.891C152.78 150.891 152.898 150.656 152.898 150.538V150.421V150.303C152.663 149.363 152.31 147.953 152.31 147.953C152.663 148.071 154.543 148.423 154.425 147.953C153.25 144.075 151.957 139.61 149.96 135.967C149.842 135.85 149.725 135.967 149.725 136.085C150.665 139.845 152.31 143.488 153.368 147.366C152.78 147.248 151.84 147.131 151.252 147.248C151.135 147.366 152.075 149.951 152.192 150.303C150.665 150.891 149.372 150.656 147.727 149.951C147.492 150.068 147.375 150.186 147.492 150.186Z" fill="#263238"/>
<path d="M151.486 150.774C151.486 150.774 150.899 152.066 149.959 152.771C149.606 153.006 149.136 153.124 148.666 153.124C147.608 153.124 147.373 152.184 147.373 151.479C147.373 150.774 147.491 150.186 147.491 150.186C147.491 150.186 149.254 151.126 151.486 150.774Z" fill="#263238"/>
<path d="M149.959 152.771C149.606 153.006 149.136 153.124 148.666 153.124C147.608 153.124 147.373 152.184 147.373 151.479C148.431 151.243 149.606 151.714 149.959 152.771Z" fill="#FF99BA"/>
<path d="M129.159 148.775C128.454 147.248 121.639 130.561 121.874 128.564C121.991 126.801 123.989 127.153 123.989 127.036C123.989 126.918 123.871 125.391 124.694 124.568C125.516 123.863 126.809 124.333 126.809 124.333C126.809 124.333 126.809 122.688 127.867 121.983C128.807 121.395 129.982 122.101 129.982 122.101C129.982 122.101 130.099 120.455 131.392 119.868C132.685 119.28 133.507 120.338 133.507 120.338C133.507 120.338 133.742 118.693 134.8 118.223C135.857 117.753 136.915 118.81 136.915 118.81C136.915 118.81 137.267 117.283 138.56 117.048C139.853 116.813 140.558 118.223 140.558 118.223C140.558 118.223 141.145 116.695 142.32 116.46C143.495 116.225 144.2 117.753 144.2 117.753C144.2 117.753 144.553 116.343 145.728 116.225C146.903 116.107 147.373 117.753 147.373 117.753C147.373 117.753 147.491 116.46 148.901 116.695C151.134 117.048 153.719 127.858 154.894 132.206C154.894 132.206 153.484 129.034 152.661 129.151C151.721 129.269 151.251 130.679 149.723 131.384C147.491 132.324 143.025 130.091 139.853 131.266C136.797 132.441 134.917 136.084 134.565 141.255C134.095 147.013 130.804 152.418 129.159 148.775Z" fill="#263238"/>
<path d="M132.566 148.07C132.566 148.07 128.101 142.547 125.633 144.192C123.165 145.837 126.691 153.946 129.863 154.886C133.036 155.826 133.976 152.888 133.976 152.888L132.566 148.07Z" fill="#774442"/>
<path d="M126.69 146.542C128.923 147.365 130.216 149.245 131.156 151.242C130.451 150.537 129.511 150.067 128.57 150.89C128.57 150.89 128.57 151.007 128.688 151.007C129.511 150.772 130.216 150.89 130.803 151.477C131.273 151.947 131.626 152.535 131.978 153.123C132.096 153.358 132.448 153.24 132.331 153.005C132.096 150.302 129.746 146.542 126.69 146.542Z" fill="#263238"/>
<path d="M150.544 171.573C150.427 171.455 150.544 171.455 150.544 171.573C151.249 174.981 152.777 182.854 147.371 183.206C145.139 183.324 143.024 182.384 141.143 181.209C139.263 180.151 137.501 178.741 135.855 177.331C134.093 175.686 132.213 174.04 130.685 172.043C130.567 171.925 130.45 172.043 130.567 172.16C132.213 174.04 133.623 176.038 135.385 177.801C137.148 179.446 139.028 180.974 141.143 182.149C143.141 183.206 145.491 184.264 147.724 183.911C149.957 183.676 151.249 182.031 151.602 179.916C151.954 177.213 151.367 174.158 150.544 171.573Z" fill="#263238"/>
<path d="M317.396 145.021L152.653 160.386L164.909 291.783L329.651 276.417L317.396 145.021Z" fill="#263238"/>
<path d="M221.874 245.486L217.526 198.835L267.585 217.636L221.874 245.486Z" fill="#FE9563"/>
<path d="M170.301 165.383L160.59 166.289L161.234 173.192L170.945 172.286L170.301 165.383Z" fill="#FE9563"/>
<path d="M171.601 179.368L161.89 180.273L162.534 187.177L172.245 186.271L171.601 179.368Z" fill="#FE9563"/>
<path d="M172.89 193.235L163.179 194.14L163.822 201.044L173.534 200.138L172.89 193.235Z" fill="#FE9563"/>
<path d="M174.179 207.101L164.467 208.007L165.111 214.91L174.822 214.004L174.179 207.101Z" fill="#FE9563"/>
<path d="M175.478 221.086L165.767 221.991L166.411 228.895L176.122 227.989L175.478 221.086Z" fill="#FE9563"/>
<path d="M176.767 234.953L167.056 235.859L167.699 242.762L177.411 241.857L176.767 234.953Z" fill="#FE9563"/>
<path d="M178.056 248.82L168.344 249.726L168.988 256.629L178.7 255.724L178.056 248.82Z" fill="#FE9563"/>
<path d="M179.472 262.793L169.761 263.699L170.405 270.602L180.116 269.696L179.472 262.793Z" fill="white"/>
<path d="M180.761 276.661L171.049 277.566L171.693 284.47L181.405 283.564L180.761 276.661Z" fill="white"/>
<path d="M310.613 152.333L300.902 153.239L301.546 160.143L311.257 159.237L310.613 152.333Z" fill="#FE9563"/>
<path d="M311.902 166.201L302.19 167.107L302.834 174.01L312.546 173.104L311.902 166.201Z" fill="#FE9563"/>
<path d="M313.2 180.185L303.489 181.091L304.133 187.994L313.844 187.089L313.2 180.185Z" fill="#FE9563"/>
<path d="M314.489 194.052L304.778 194.958L305.422 201.861L315.133 200.955L314.489 194.052Z" fill="#FE9563"/>
<path d="M315.779 207.919L306.067 208.825L306.711 215.728L316.423 214.822L315.779 207.919Z" fill="#FE9563"/>
<path d="M317.079 221.903L307.367 222.809L308.011 229.712L317.722 228.807L317.079 221.903Z" fill="#FE9563"/>
<path d="M318.366 235.77L308.655 236.676L309.299 243.579L319.01 242.674L318.366 235.77Z" fill="#FE9563"/>
<path d="M319.655 249.638L309.943 250.543L310.587 257.447L320.299 256.541L319.655 249.638Z" fill="#FE9563"/>
<path d="M320.955 263.621L311.243 264.527L311.887 271.43L321.598 270.525L320.955 263.621Z" fill="#FE9563"/>
<path d="M138.087 189.081C141.26 198.247 153.716 235.615 155.479 237.378C162.882 244.193 181.683 256.297 183.916 258.764C187.089 262.172 172.988 283.089 168.052 282.501C166.055 282.266 140.907 265.815 133.152 257.707C126.924 251.244 123.633 209.528 123.398 190.139C123.398 173.452 131.859 171.219 138.087 189.081Z" fill="#774442"/>
<path d="M123.987 221.513L149.604 219.751C149.604 219.751 141.496 189.316 133.27 178.387C125.044 167.459 123.399 178.505 123.047 186.848C122.694 195.191 123.987 221.513 123.987 221.513Z" fill="#FE9563"/>
<path d="M149.133 218.106C146.901 218.459 144.668 219.281 142.67 220.339L141.73 220.456C141.848 220.339 141.965 220.339 141.965 220.339C144.198 219.164 146.548 218.341 149.016 217.989C149.016 217.871 149.133 217.989 149.133 218.106ZM138.675 188.024C137.147 188.964 135.502 189.904 133.857 190.609C133.269 190.844 132.682 191.079 131.977 191.314C131.859 191.314 131.742 191.431 131.624 191.431C130.684 191.784 129.627 192.019 128.569 192.254C126.806 192.606 124.926 192.489 123.046 192.136C123.046 192.136 123.046 192.136 122.929 192.136V192.606L123.634 192.841L124.339 192.959L125.044 193.077H125.749H126.454C126.689 193.077 126.924 193.077 127.159 192.959L127.864 192.841C128.099 192.841 128.334 192.724 128.569 192.724C129.744 192.489 130.919 192.136 132.094 191.784C132.212 191.784 132.329 191.666 132.447 191.666C132.917 191.431 133.504 191.196 133.974 190.961C135.62 190.256 137.265 189.316 138.792 188.376C138.792 188.376 138.675 188.141 138.675 188.024ZM141.848 195.779C138.792 195.074 135.737 193.899 133.152 192.136C132.917 192.019 132.682 191.901 132.564 191.666C132.329 191.549 132.212 191.431 132.094 191.314C129.627 189.551 127.394 187.554 124.691 186.143C124.221 185.908 123.751 185.673 123.164 185.438C123.164 185.556 123.164 185.556 123.164 185.673C123.634 185.908 124.104 186.143 124.574 186.378C127.159 187.789 129.274 189.786 131.742 191.549C131.859 191.666 132.094 191.784 132.212 191.901C132.447 192.136 132.799 192.254 133.034 192.489C135.737 194.369 138.91 195.544 142.083 196.249C141.965 196.132 141.848 195.897 141.848 195.779ZM134.915 180.855H134.562H133.152C132.212 180.973 131.272 180.973 130.332 181.208C128.451 181.443 126.689 182.031 124.809 182.501C124.339 182.618 123.751 182.853 123.281 182.971C123.281 183.088 123.281 183.206 123.281 183.206C123.869 183.088 124.339 182.853 124.926 182.736C126.689 182.266 128.569 181.678 130.332 181.443C131.272 181.326 132.212 181.208 133.152 181.208H135.15C135.032 181.09 135.032 180.973 134.915 180.855Z" fill="white"/>
<path d="M124.574 215.756C128.099 215.168 131.742 215.051 135.385 214.816C139.027 214.581 142.788 214.581 146.431 214.463C146.548 214.463 146.548 214.581 146.431 214.698C142.788 215.051 139.262 215.521 135.62 215.638C131.977 215.873 128.334 216.109 124.574 215.756C124.574 215.874 124.574 215.756 124.574 215.756Z" fill="#263238"/>
<path d="M121.989 199.892C122.224 201.42 122.459 202.947 122.811 204.475C122.811 201.302 122.811 198.012 122.929 194.839C122.929 194.722 123.046 194.722 123.046 194.839C123.399 199.304 123.634 203.77 123.751 208.235C123.869 212.583 124.222 216.931 123.986 221.161C124.339 221.161 124.574 221.161 124.927 221.279C125.044 221.279 125.044 221.514 124.927 221.514C124.574 221.514 124.104 221.631 123.751 221.631C123.634 221.631 123.516 221.514 123.516 221.396C123.046 216.931 122.929 212.466 122.929 208C122.929 207.295 122.929 206.59 122.929 205.768C122.459 203.77 122.106 201.772 121.871 199.775C121.754 199.775 121.989 199.657 121.989 199.892Z" fill="#263238"/>
<path d="M148.663 219.869L149.603 219.752L149.486 219.869C148.781 217.989 148.076 216.109 147.488 214.111C146.901 212.231 146.195 210.233 145.608 208.353C145.02 206.473 144.433 204.475 143.963 202.478C143.493 200.48 142.905 198.6 142.553 196.602C143.258 198.482 143.963 200.363 144.668 202.36C145.373 204.24 145.96 206.238 146.548 208.118C147.136 209.998 147.723 211.996 148.193 213.994C148.663 215.991 149.251 217.872 149.721 219.869V219.987H149.603L148.663 219.869Z" fill="#263238"/>
<path d="M144.785 198.717C145.02 199.657 145.138 200.597 145.255 201.655C145.255 202.595 145.255 203.652 145.138 204.592C144.903 203.652 144.785 202.712 144.668 201.655C144.55 200.714 144.55 199.774 144.785 198.717Z" fill="#263238"/>
<path d="M196.256 270.398C195.081 268.871 195.904 268.283 199.194 269.106C202.484 270.046 214.706 276.509 216.703 272.043C218.583 267.578 201.192 258.765 195.551 257.59C189.911 256.415 180.51 256.65 180.51 256.65C183.565 259 190.381 265.58 196.256 270.398Z" fill="#774442"/>
<path d="M165.351 280.857C174.164 288.73 184.74 295.898 197.078 297.073C199.546 297.308 200.956 296.251 200.956 296.251C206.479 296.956 208.359 294.488 208.359 294.488C213.647 293.548 215.292 290.845 215.292 290.845C215.292 290.845 219.758 290.845 219.993 287.672C220.228 284.617 213.06 282.149 208.007 278.977C196.373 271.691 183.565 259 180.392 256.532L165.351 280.857Z" fill="#774442"/>
<path d="M192.143 280.974C195.668 283.09 198.959 285.205 202.719 286.85C206.832 288.613 211.062 289.67 215.293 290.728C215.41 290.728 215.41 290.963 215.293 290.963C207.184 290.14 198.371 286.262 192.026 281.092C191.908 280.974 191.908 280.857 192.143 280.974Z" fill="#263238"/>
<path d="M186.738 287.32C190.263 289.2 196.374 292.372 208.477 294.37V294.488C200.487 294.253 193.318 291.785 186.62 287.555C186.385 287.32 186.503 287.202 186.738 287.32Z" fill="#263238"/>
<path d="M183.799 290.846C189.792 293.783 194.023 294.841 200.956 296.251V296.368C192.965 295.546 190.145 294.371 183.682 291.081C183.447 290.963 183.564 290.728 183.799 290.846Z" fill="#263238"/>
<path d="M227.513 147.953C231.979 145.838 237.384 140.55 241.027 140.08C244.317 139.727 245.492 142.43 245.492 142.43C245.492 142.43 247.255 138.787 250.663 138.905C252.425 139.022 253.836 141.842 253.836 141.842C253.836 141.842 255.363 139.022 258.301 139.257C260.651 139.492 261.709 142.312 261.709 142.312C261.709 142.312 264.411 140.315 266.762 141.255C271.462 143.37 271.58 163.699 264.059 166.872C260.534 168.4 260.769 163.347 260.769 163.347C260.769 163.347 258.653 170.397 254.423 170.515C250.193 170.632 250.898 164.169 250.898 164.169C250.898 164.169 248.783 170.985 244.435 170.75C239.852 170.397 241.732 164.052 241.732 164.052C241.732 164.052 238.677 168.635 235.386 167.577C229.981 165.932 236.797 157.354 235.621 152.771L228.218 150.303L227.513 147.953Z" fill="#774442"/>
<path d="M233.859 143.723C229.511 145.368 224.106 139.963 219.758 140.903C213.765 142.195 219.64 148.893 228.336 150.303H235.269L233.859 143.723Z" fill="#774442"/>
<path d="M261.827 142.665C261.827 142.548 261.944 142.548 261.827 142.665C263.59 149.363 263.355 157.237 260.769 163.7C260.652 163.935 260.299 163.817 260.299 163.582C261.709 156.414 262.415 149.951 261.827 142.665Z" fill="#263238"/>
<path d="M253.718 141.608C253.718 141.49 253.835 141.49 253.835 141.608C255.48 148.541 255.01 157.354 251.133 164.405C251.015 164.64 250.663 164.757 250.78 164.405C253.013 159.587 254.305 148.188 253.718 141.608Z" fill="#263238"/>
<path d="M241.38 164.522C244.788 157.589 245.728 150.303 245.493 142.548C245.493 142.43 245.61 142.43 245.61 142.548C246.668 146.308 246.315 151.126 245.728 155.004C245.14 158.646 243.848 161.819 241.615 164.639C241.498 164.757 241.263 164.639 241.38 164.522Z" fill="#263238"/>
</svg>
