<svg width="511" height="563" viewBox="0 0 511 563" fill="none" xmlns="http://www.w3.org/2000/svg">
<path d="M164.307 443.876H19.9928L15.3774 352.357H168.922L164.307 443.876Z" fill="#999999"/>
<path d="M158.79 363.051H29.2231L31.1368 393.67H157.102L158.79 363.051Z" stroke="#DBDBDB" stroke-width="1.12569" stroke-miterlimit="10"/>
<path d="M154.85 402.675L153.387 430.255H32.8253L31.1368 402.675H154.85Z" stroke="#DBDBDB" stroke-width="1.12569" stroke-miterlimit="10"/>
<path d="M79.9916 381.287H105.995L106.783 374.646H79.2036L79.9916 381.287Z" stroke="#DBDBDB" stroke-width="1.12569" stroke-miterlimit="10"/>
<path d="M79.9916 419.673H105.995L106.783 413.144H79.2036L79.9916 419.673Z" stroke="#DBDBDB" stroke-width="1.12569" stroke-miterlimit="10"/>
<path d="M144.269 443.876L145.62 453.782L148.435 473.819H153.95V443.876H144.269Z" fill="#EBEBEB"/>
<path d="M144.269 443.876L145.62 453.782H153.95V443.876H144.269Z" fill="#DBDBDB"/>
<path d="M40.0301 443.876L38.6793 453.782L35.8651 473.819H30.3492V443.876H40.0301Z" fill="#EBEBEB"/>
<path d="M40.0301 443.876L38.6793 453.782H30.3492V443.876H40.0301Z" fill="#DBDBDB"/>
<path d="M435.599 384.214L450.346 384.552L457.888 384.664C460.364 384.664 462.954 384.664 465.43 384.777H465.88V384.327L465.993 371.719V371.156H465.43L450.571 371.269C445.618 371.269 440.665 371.381 435.712 371.494H435.374V371.831C435.374 373.97 435.487 376.109 435.487 378.248L435.599 384.214ZM435.599 384.214L435.712 377.798C435.712 375.659 435.824 373.633 435.824 371.606L435.487 371.944C440.44 372.057 445.393 372.169 450.346 372.169L465.205 372.282L464.642 371.719L464.755 384.327L465.205 383.876C462.728 383.876 460.252 383.876 457.888 383.989L450.458 384.101L435.599 384.214Z" fill="#EBEBEB"/>
<path d="M452.259 400.086L467.005 400.424L474.548 400.537C477.024 400.537 479.613 400.537 482.09 400.649H482.54V400.199L482.653 387.479V386.916H482.09L467.231 387.028C462.278 387.028 457.325 387.141 452.371 387.253H452.034V387.591C452.034 389.73 452.146 391.869 452.146 394.008L452.259 400.086ZM452.259 400.086L452.371 393.67C452.371 391.531 452.484 389.505 452.484 387.479L452.146 387.816C457.099 387.929 462.052 388.041 467.005 388.041L481.865 388.154L481.527 387.479L481.639 400.086L482.09 399.636C479.613 399.636 477.137 399.636 474.773 399.749L467.343 399.861L452.259 400.086Z" fill="#EBEBEB"/>
<path d="M70.9871 243.953L85.7337 244.29L93.2759 244.403C95.7524 244.403 98.3415 244.403 100.818 244.516H101.268V244.065L101.381 231.457V230.895H100.818L85.9589 231.007C81.0058 231.007 76.0528 231.12 71.0997 231.232H70.762V231.57C70.762 233.709 70.8746 235.848 70.8746 237.987L70.9871 243.953ZM70.9871 243.953L71.0997 237.536C71.0997 235.397 71.2123 233.371 71.2123 231.345L70.8746 231.683C75.8276 231.795 80.7807 231.908 85.7337 231.908L100.593 232.02L100.03 231.457L100.143 244.065L100.593 243.615C98.1163 243.615 95.6398 243.615 93.2759 243.728L85.8463 243.84L70.9871 243.953Z" fill="#EBEBEB"/>
<path d="M87.647 259.825L102.394 260.163L109.936 260.275C112.412 260.275 115.001 260.275 117.478 260.388H117.928V259.938L118.041 247.33V246.767H117.478L102.619 246.88C97.6657 246.88 92.7127 246.992 87.7596 247.105H87.4219V247.443C87.4219 249.581 87.5345 251.72 87.5345 253.859L87.647 259.825ZM87.647 259.825L87.7596 253.409C87.7596 251.27 87.8722 249.244 87.8722 247.217L87.5345 247.555C92.4875 247.668 97.4406 247.78 102.394 247.78L117.253 247.893L116.69 247.33L116.802 259.938L117.253 259.487C114.776 259.487 112.3 259.487 109.936 259.6L102.506 259.713L87.647 259.825Z" fill="#EBEBEB"/>
<path d="M104.195 243.953L118.942 244.29L126.484 244.403C128.96 244.403 131.549 244.403 134.026 244.516H134.476V244.065L134.589 231.457V230.895H134.026L119.167 231.007C114.214 231.007 109.261 231.12 104.308 231.232H103.97V231.57C103.97 233.709 104.082 235.848 104.082 237.987L104.195 243.953ZM104.195 243.953L104.308 237.536C104.308 235.397 104.42 233.371 104.42 231.345L104.082 231.683C109.035 231.795 113.988 231.908 118.942 231.908L133.801 232.02L133.238 231.457L133.35 244.065L133.801 243.615C131.324 243.615 128.848 243.615 126.484 243.728L119.054 243.84L104.195 243.953Z" fill="#EBEBEB"/>
<path d="M12.3385 400.086L27.0851 400.424L34.6272 400.536C37.1038 400.536 39.6929 400.536 42.1694 400.649H42.6197V400.199L42.7322 387.591V387.028H42.1694L27.3102 387.141C22.3572 387.141 17.4041 387.253 12.4511 387.366H12.1134V387.703C12.1134 389.842 12.226 391.981 12.226 394.12L12.3385 400.086ZM12.3385 400.086L12.4511 393.67C12.4511 391.531 12.5637 389.505 12.5637 387.478L12.226 387.816C17.179 387.929 22.132 388.041 27.0851 388.041L41.9442 388.154L41.3814 387.591L41.494 400.199L41.9442 399.748C39.4677 399.748 36.9912 399.748 34.6272 399.861L27.1977 399.974L12.3385 400.086Z" fill="#EBEBEB"/>
<path d="M28.9982 91.9843L43.7448 92.322L51.2869 92.4346C53.7635 92.4346 56.3526 92.4346 58.8291 92.5471H59.2794V92.0969L59.3919 79.4891V78.9263H58.8291L43.9699 79.0388C39.0169 79.0388 34.0639 79.1514 29.1108 79.264H28.7731V79.6017C28.7731 81.7405 28.8857 83.8793 28.8857 86.0181L28.9982 91.9843ZM28.9982 91.9843L29.1108 85.5679C29.1108 83.429 29.2234 81.4028 29.2234 79.3765L28.8857 79.7143C33.8387 79.8268 38.7918 79.9394 43.7448 79.9394L58.6039 80.052L58.0411 79.4891L58.2662 91.9843L58.7165 91.534C56.24 91.534 53.7635 91.534 51.3995 91.6466L43.9699 91.7592L28.9982 91.9843Z" fill="#EBEBEB"/>
<path d="M12.3385 107.857L27.0851 108.194L34.6272 108.307C37.1038 108.307 39.6929 108.307 42.1694 108.419H42.6197V107.969L42.7322 95.3614V94.7986H42.1694L27.3102 94.9112C22.3572 94.9112 17.4041 95.0237 12.4511 95.1363H12.1134V95.474C12.1134 97.6128 12.226 99.7516 12.226 101.89L12.3385 107.857ZM12.3385 107.857L12.4511 101.44C12.4511 99.3014 12.5637 97.2751 12.5637 95.2489L12.226 95.5866C17.179 95.6991 22.132 95.8117 27.0851 95.8117L41.9442 95.9243L41.3814 95.3614L41.494 107.969L41.9442 107.519C39.4677 107.519 36.9912 107.519 34.6272 107.631L27.1977 107.744L12.3385 107.857Z" fill="#EBEBEB"/>
<path d="M435.599 91.9843L450.346 92.322L457.888 92.4346C460.364 92.4346 462.954 92.4346 465.43 92.5471H465.88V92.0969L465.993 79.4891V78.9263H465.43L450.571 79.0388C445.618 79.0388 440.665 79.1514 435.712 79.264H435.374V79.6017C435.374 81.7405 435.487 83.8793 435.487 86.0181L435.599 91.9843ZM435.599 91.9843L435.712 85.5679C435.712 83.429 435.824 81.4028 435.824 79.3765L435.487 79.7143C440.44 79.8268 445.393 79.9394 450.346 79.9394L465.205 80.052L464.642 79.4891L464.755 92.0969L465.43 91.4215C462.954 91.4215 460.477 91.4215 458.113 91.534L450.684 91.6466L435.599 91.9843Z" fill="#EBEBEB"/>
<path d="M451.922 16H453.272V144.554H451.922V16Z" fill="#FE9868"/>
<path d="M448.769 138.588H456.311V143.653H448.769V138.588Z" fill="#FFC8AD"/>
<path d="M448.769 140.276H456.311V143.653H448.769V140.276Z" fill="#FE9868"/>
<path d="M458.338 177.312C458.338 180.464 455.749 183.053 452.597 183.053C449.445 183.053 446.856 180.464 446.856 177.312C446.856 174.16 449.445 171.571 452.597 171.571C455.749 171.571 458.338 174.16 458.338 177.312Z" fill="#FFC8AD"/>
<path d="M471.396 177.312H433.685L440.552 165.154L446.18 142.753H459.013L464.641 165.154L471.396 177.312Z" fill="#FE9868"/>
<path d="M407.569 16H408.92V121.477H407.569V16Z" fill="#FE9868"/>
<path d="M404.529 115.399H412.071V120.464H404.529V115.399Z" fill="#FFC8AD"/>
<path d="M404.529 117.087H412.071V120.464H404.529V117.087Z" fill="#FE9868"/>
<path d="M414.098 154.122C414.098 157.274 411.509 159.864 408.357 159.864C405.205 159.864 402.616 157.274 402.616 154.122C402.616 150.971 405.205 148.381 408.357 148.381C411.509 148.381 414.098 150.971 414.098 154.122Z" fill="#FFC8AD"/>
<path d="M427.156 154.122H389.445L396.312 142.078L401.828 119.564H414.773L420.289 142.078L427.156 154.122Z" fill="#FE9868"/>
<path d="M366.144 16H367.495V97.7253H366.144V16Z" fill="#FE9868"/>
<path d="M363.104 91.759H370.646V96.8246H363.104V91.759Z" fill="#FFC8AD"/>
<path d="M363.104 93.4475H370.646V96.8246H363.104V93.4475Z" fill="#FE9868"/>
<path d="M372.674 130.483C372.674 133.635 370.085 136.224 366.933 136.224C363.781 136.224 361.192 133.635 361.192 130.483C361.192 127.331 363.781 124.742 366.933 124.742C370.085 124.629 372.674 127.219 372.674 130.483Z" fill="#FFC8AD"/>
<path d="M385.731 130.483H348.021L354.775 118.325L360.403 95.9241H373.349L378.865 118.325L385.731 130.483Z" fill="#FE9868"/>
<path d="M41.1556 89.7329H94.6259V154.685H41.1556V89.7329Z" fill="#FE9868"/>
<path d="M47.122 95.6992H88.4348V148.719H47.122V95.6992Z" fill="white"/>
<path d="M86.8589 95.6992H88.4348V148.719H86.8589V95.6992Z" fill="#FFCAB0"/>
<path d="M39.4676 89.7329H41.0436V154.685H39.4676V89.7329Z" fill="#FFCAB0"/>
<path d="M66.8317 136.876H57.1507L57.1507 107.833H66.8317V136.876Z" fill="#FE9868"/>
<path d="M78.9504 117.125H52.947V102.942H78.9504V117.125Z" stroke="#FE9868" stroke-width="1.12569" stroke-miterlimit="10"/>
<path d="M41.1558 249.694H94.6262V314.646H41.1558V249.694Z" fill="#455A64"/>
<path d="M47.1222 255.66H88.4351V308.68H47.1222V255.66Z" fill="white"/>
<path d="M86.8591 255.66H88.4351V308.68H86.8591V255.66Z" fill="#B4BFC5"/>
<path d="M39.4679 249.694H41.0439V314.646H39.4679V249.694Z" fill="#B4BFC5"/>
<path d="M64.9083 267.93H74.5893V296.973H64.9083V267.93Z" fill="#455A64"/>
<path d="M52.8632 262.977H78.8667V277.161H52.8632V262.977Z" stroke="#455A64" stroke-width="1.12569" stroke-miterlimit="10"/>
<path d="M41.1558 169.995H94.6262V234.947H41.1558V169.995Z" fill="#FE9868"/>
<path d="M47.1222 175.961H88.4351V228.981H47.1222V175.961Z" fill="white"/>
<path d="M86.8591 175.961H88.4351V228.981H86.8591V175.961Z" fill="#FFCAB0"/>
<path d="M39.4679 169.995H41.0439V234.947H39.4679V169.995Z" fill="#FFCAB0"/>
<path d="M63.4449 189.694H71.775V210.745H63.4449V189.694Z" fill="#FE9868"/>
<path d="M54.6647 202.415H77.066V216.936H54.6647V202.415Z" stroke="#FE9868" stroke-width="1.12569" stroke-miterlimit="10"/>
<path d="M23.933 521.436C23.933 534.156 123.894 544.4 247.158 544.4C370.421 544.4 470.495 534.156 470.495 521.436C470.495 508.715 370.534 498.472 247.27 498.472C124.007 498.472 23.933 508.828 23.933 521.436Z" fill="#E3D7C3"/>
<path d="M481.864 473.481L423.216 473.256L364.567 473.144L247.157 472.918L129.86 473.144L71.2117 473.256L12.4505 473.481L71.2117 473.819L129.86 473.932L247.157 474.044L364.567 473.932L423.216 473.819L481.864 473.481Z" fill="#263238"/>
<path d="M152.037 75.324H342.391C352.973 75.324 361.641 84.1044 361.641 94.911V486.652C361.641 497.459 352.973 506.239 342.391 506.239H152.037C141.455 506.239 132.787 497.459 132.787 486.652V94.911C132.787 84.1044 141.455 75.324 152.037 75.324ZM144.832 474.607C144.832 484.963 152.6 493.294 162.055 493.294H332.373C341.941 493.294 349.596 484.963 349.596 474.607V109.77C349.596 88.7197 341.828 87.7066 332.373 87.7066H298.264C296.238 87.7066 294.662 89.958 294.662 92.7722V94.0105C294.662 100.539 291.06 100.539 286.67 100.539H207.758C203.368 100.539 199.766 100.539 199.766 94.0105V92.7722C199.766 89.958 198.19 87.7066 196.164 87.7066H162.055C152.487 87.7066 144.832 90.5208 144.832 109.77V474.607Z" fill="#455A64"/>
<path d="M144.832 109.77V474.607C144.832 484.963 152.599 493.293 162.055 493.293H332.372C341.941 493.293 349.595 484.963 349.595 474.607V109.77C349.595 88.7197 341.828 87.7065 332.372 87.7065H298.264C296.237 87.7065 294.662 89.9579 294.662 92.7722V94.0104C294.662 100.539 291.059 100.539 286.669 100.539H207.758C203.368 100.539 199.766 100.539 199.766 94.0104V92.7722C199.766 89.9579 198.19 87.7065 196.163 87.7065H162.055C152.599 87.7065 144.832 90.5208 144.832 109.77Z" fill="white"/>
<path d="M144.832 109.77V150.858H349.596V109.77C349.596 88.7197 341.828 87.7065 332.373 87.7065H298.264C296.238 87.7065 294.662 89.9579 294.662 92.7722V94.0104C294.662 100.539 291.06 100.539 286.669 100.539H207.758C203.368 100.539 199.766 100.539 199.766 94.0104V92.7722C199.766 89.9579 198.19 87.7065 196.164 87.7065H162.055C152.6 87.7065 144.832 90.5208 144.832 109.77Z" fill="#FE9868"/>
<path d="M304.117 95.9241C304.23 96.0367 304.343 96.1492 304.455 96.2618C304.568 96.3744 304.568 96.3744 304.68 96.4869C305.581 95.5864 306.594 95.1361 307.832 95.1361C309.07 95.1361 310.084 95.5864 310.984 96.4869C311.097 96.3744 311.097 96.3744 311.209 96.2618C311.322 96.1492 311.434 96.0367 311.547 95.9241C311.434 95.8115 311.322 95.699 311.097 95.5864C310.759 95.3612 310.421 95.1361 310.084 95.0235C309.633 94.7984 309.296 94.6858 308.845 94.5733C308.62 94.5733 308.395 94.4607 308.17 94.4607C308.057 94.4607 307.607 94.4607 307.607 94.4607C307.495 94.4607 307.269 94.4607 307.157 94.4607C306.707 94.4607 306.369 94.5733 306.031 94.6858C305.806 94.7984 305.468 94.911 305.243 95.0235C305.018 95.1361 304.68 95.3612 304.455 95.5864C304.343 95.699 304.23 95.8115 304.117 95.9241Z" fill="white"/>
<path d="M309.971 97.5002C310.196 97.275 310.308 97.1624 310.533 96.9373C309.971 96.3745 309.295 96.0368 308.395 95.9242C307.156 95.8116 306.143 96.1493 305.243 96.9373C305.468 97.1624 305.58 97.275 305.806 97.5002C306.368 96.9373 307.156 96.5996 307.944 96.5996C308.62 96.5996 309.295 96.9373 309.971 97.5002Z" fill="white"/>
<path d="M306.144 97.9503C306.369 98.1754 306.482 98.288 306.707 98.5132C307.044 98.1754 307.382 98.0629 307.832 98.0629C308.283 98.0629 308.62 98.1754 308.958 98.5132C309.183 98.288 309.296 98.1754 309.521 97.9503C308.62 97.1623 307.157 97.0498 306.144 97.9503Z" fill="white"/>
<path d="M307.381 98.9635C307.381 99.1886 307.606 99.4137 307.831 99.4137C308.057 99.4137 308.282 99.1886 308.282 98.9635C308.282 98.7383 308.057 98.5132 307.831 98.5132C307.494 98.5132 307.381 98.7383 307.381 98.9635Z" fill="white"/>
<path d="M336.199 96.9373C336.199 96.1493 335.637 95.5864 334.849 95.5864C334.061 95.5864 333.498 96.1493 333.498 96.9373C333.498 97.7252 334.061 98.2881 334.849 98.2881C335.637 98.2881 336.199 97.7252 336.199 96.9373Z" fill="white"/>
<path d="M331.922 96.9373C331.922 96.1493 331.359 95.5864 330.571 95.5864C329.783 95.5864 329.22 96.1493 329.22 96.9373C329.22 97.7252 329.783 98.2881 330.571 98.2881C331.359 98.2881 331.922 97.7252 331.922 96.9373Z" fill="white"/>
<path d="M327.645 96.9373C327.645 96.1493 327.082 95.5864 326.294 95.5864C325.506 95.5864 324.943 96.1493 324.943 96.9373C324.943 97.7252 325.506 98.2881 326.294 98.2881C327.082 98.2881 327.645 97.7252 327.645 96.9373Z" fill="white"/>
<path d="M323.366 96.9373C323.366 96.1493 322.803 95.5864 322.015 95.5864C321.227 95.5864 320.665 96.1493 320.665 96.9373C320.665 97.7252 321.227 98.2881 322.015 98.2881C322.803 98.2881 323.366 97.7252 323.366 96.9373Z" fill="white"/>
<path d="M319.089 96.9373C319.089 96.1493 318.526 95.5864 317.738 95.5864C316.95 95.5864 316.387 96.1493 316.387 96.9373C316.387 97.7252 316.95 98.2881 317.738 98.2881C318.526 98.2881 319.089 97.7252 319.089 96.9373Z" fill="white"/>
<path d="M160.142 99.864H171.174V94.7983H160.142V99.864ZM170.724 99.3011H160.817V95.3612H170.724V99.3011Z" fill="white"/>
<path d="M163.182 95.699H170.273V99.0761H163.182V95.699Z" fill="white"/>
<path d="M159.129 95.9241H160.142V98.6257H159.129V95.9241Z" fill="white"/>
<path d="M330.909 139.263L336.988 133.635L330.909 128.006L330.008 129.019L334.961 133.635L330.008 138.363L330.909 139.263Z" fill="white"/>
<path d="M163.519 128.006L157.44 133.635L163.519 139.263L164.419 138.363L159.466 133.635L164.419 129.019L163.519 128.006Z" fill="white"/>
<path d="M258.752 131.271C258.077 131.946 257.626 132.959 257.626 134.085C257.626 135.211 258.077 136.111 258.752 136.899C259.427 137.575 260.328 138.025 261.341 138.025C262.354 138.025 263.367 137.575 264.043 136.899C264.718 136.224 265.168 135.211 265.168 134.085C265.168 132.959 264.718 132.059 264.043 131.271C263.367 130.596 262.354 130.145 261.341 130.145C260.328 130.145 259.315 130.596 258.752 131.271ZM258.865 134.085C258.865 133.297 259.202 132.622 259.653 132.172C260.103 131.721 260.778 131.384 261.341 131.384C262.017 131.384 262.692 131.721 263.142 132.172C263.592 132.622 263.93 133.297 263.93 134.085C263.93 134.873 263.592 135.549 263.142 135.999C262.692 136.449 262.017 136.787 261.341 136.787C260.666 136.787 260.103 136.449 259.653 135.999C259.09 135.549 258.865 134.873 258.865 134.085Z" fill="white"/>
<path d="M250.309 137.125C250.197 137.462 250.422 137.8 250.647 137.913C250.647 137.913 250.759 137.913 250.872 137.913C250.985 137.913 251.097 137.912 251.322 137.8C251.435 137.687 251.547 137.575 251.66 137.462C251.773 137.125 251.885 136.787 251.885 136.111C251.885 135.886 251.885 135.774 251.998 135.661C252.11 135.549 252.223 135.436 252.335 135.323C252.56 135.211 252.898 135.098 252.898 135.098H254.249V137.462C254.249 137.8 254.474 138.025 254.812 138.025C255.15 138.025 255.375 137.8 255.375 137.462V130.933C255.375 130.595 255.15 130.37 254.812 130.37H252.898C251.547 130.37 250.534 131.383 250.534 132.734C250.534 133.41 250.872 134.085 251.435 134.535C251.322 134.648 251.21 134.761 251.097 134.986C250.872 135.323 250.759 135.661 250.759 136.224C250.759 136.562 250.759 136.787 250.759 136.899C250.534 136.787 250.422 137.012 250.309 137.125ZM251.885 132.734C251.885 132.059 252.335 131.609 253.011 131.609H254.362V133.86H253.011C252.335 133.86 251.885 133.297 251.885 132.734Z" fill="white"/>
<path d="M248.508 137.462V130.933C248.508 130.595 248.283 130.37 247.946 130.37H246.595C244.456 130.37 242.767 132.059 242.767 134.198C242.767 136.337 244.456 138.025 246.595 138.025H247.946C248.283 138.025 248.508 137.8 248.508 137.462ZM247.27 136.899H246.595C245.131 136.899 244.006 135.774 244.006 134.31C244.006 132.847 245.131 131.721 246.595 131.721H247.27V136.899Z" fill="white"/>
<path d="M241.191 137.462V130.933C241.191 130.595 240.966 130.37 240.629 130.37H237.026C236.689 130.37 236.464 130.595 236.464 130.933C236.464 131.271 236.801 131.496 237.026 131.496H240.066V133.522H237.477C237.139 133.522 236.914 133.86 236.914 134.085C236.914 134.423 237.139 134.648 237.477 134.648H240.066V136.674H237.026C236.689 136.674 236.464 136.899 236.464 137.237C236.464 137.575 236.801 137.8 237.026 137.8H240.629C240.854 138.025 241.191 137.8 241.191 137.462Z" fill="white"/>
<path d="M229.372 137.125C229.259 137.462 229.484 137.8 229.709 137.913C229.709 137.913 229.822 137.913 229.935 137.913C230.047 137.913 230.16 137.912 230.385 137.8C230.497 137.687 230.61 137.575 230.722 137.462C230.835 137.125 230.948 136.787 230.948 136.111C230.948 135.886 230.948 135.774 231.06 135.661C231.173 135.549 231.285 135.436 231.398 135.323C231.623 135.211 231.961 135.098 231.961 135.098H233.312V137.462C233.312 137.8 233.537 138.025 233.874 138.025C234.212 138.025 234.437 137.8 234.437 137.462V130.933C234.437 130.595 234.212 130.37 233.874 130.37H231.961C230.61 130.37 229.597 131.383 229.597 132.734C229.597 133.41 229.935 134.085 230.497 134.535C230.385 134.648 230.272 134.761 230.16 134.986C229.934 135.323 229.822 135.661 229.822 136.224C229.822 136.562 229.822 136.787 229.822 136.899C229.484 136.787 229.372 137.012 229.372 137.125ZM230.835 132.734C230.835 132.059 231.398 131.609 231.961 131.609H233.312V133.86H231.961C231.398 133.86 230.835 133.297 230.835 132.734Z" fill="white"/>
<path d="M236.463 92.4346H257.964C258.752 92.4346 259.315 91.8717 259.315 91.0837C259.315 90.2958 258.752 89.7329 257.964 89.7329H236.463C235.675 89.7329 235.112 90.2958 235.112 91.0837C235.112 91.7592 235.675 92.4346 236.463 92.4346Z" fill="#263238"/>
<path d="M178.985 300.012L176.284 303.727V307.329C176.284 307.779 175.946 308.005 175.608 308.005C175.27 308.005 174.933 307.667 174.933 307.329V303.727L172.231 300.012C172.006 299.674 172.006 299.224 172.344 298.999C172.681 298.774 173.132 298.774 173.357 299.112L175.608 302.151L177.86 299.112C178.085 298.774 178.535 298.661 178.873 298.999C179.21 299.337 179.21 299.787 178.985 300.012Z" fill="#263238"/>
<path d="M179.549 307.104C178.986 306.541 178.648 305.753 178.648 304.74C178.648 303.84 178.986 303.052 179.549 302.489C180.111 301.813 180.899 301.476 181.8 301.476C182.701 301.476 183.489 301.813 184.051 302.489C184.614 303.164 184.952 303.952 184.952 304.74C184.952 305.641 184.614 306.429 184.051 307.104C183.489 307.779 182.701 308.117 181.8 308.117C180.899 308.117 180.111 307.667 179.549 307.104ZM180.111 304.74C180.111 305.303 180.337 305.753 180.562 306.091C180.899 306.429 181.35 306.541 181.8 306.541C182.25 306.541 182.701 306.316 183.038 306.091C183.376 305.753 183.601 305.303 183.601 304.74C183.601 304.177 183.376 303.727 183.038 303.389C182.701 303.052 182.25 302.939 181.8 302.939C181.35 302.939 180.899 303.164 180.562 303.389C180.224 303.727 180.111 304.177 180.111 304.74Z" fill="#263238"/>
<path d="M189.567 308.005C188.104 308.005 186.865 306.766 186.865 305.303V302.151C186.865 301.813 187.203 301.476 187.541 301.476C187.991 301.476 188.216 301.813 188.216 302.151V305.303C188.216 306.091 188.779 306.654 189.567 306.654C190.355 306.654 190.918 306.091 190.918 305.303V302.151C190.918 301.813 191.256 301.476 191.593 301.476C191.931 301.476 192.269 301.813 192.269 302.151V305.303C192.381 306.766 191.143 308.005 189.567 308.005Z" fill="#263238"/>
<path d="M199.135 302.151C199.135 302.489 198.797 302.826 198.459 302.826C198.122 302.826 197.897 302.939 197.671 303.052C197.446 303.164 197.221 303.389 197.109 303.727C196.771 304.177 196.658 304.628 196.546 304.853V307.329C196.546 307.667 196.208 308.005 195.87 308.005C195.533 308.005 195.195 307.667 195.195 307.329V302.151C195.195 301.813 195.533 301.476 195.87 301.476C196.321 301.476 196.546 301.813 196.546 302.151V302.264C196.658 302.151 196.771 302.038 196.771 302.038C197.221 301.701 197.784 301.476 198.459 301.476C198.797 301.476 199.135 301.813 199.135 302.151Z" fill="#263238"/>
<path d="M205.44 307.104C204.877 306.541 204.539 305.753 204.539 304.74C204.539 303.84 204.877 303.052 205.44 302.489C206.002 301.813 206.79 301.476 207.691 301.476C208.591 301.476 209.379 301.813 209.942 302.489C210.505 303.164 210.843 303.952 210.843 304.74C210.843 305.641 210.505 306.429 209.942 307.104C209.379 307.779 208.591 308.117 207.691 308.117C206.79 308.117 206.002 307.667 205.44 307.104ZM206.002 304.74C206.002 305.303 206.228 305.753 206.453 306.091C206.79 306.429 207.241 306.541 207.691 306.541C208.141 306.541 208.592 306.316 208.929 306.091C209.267 305.753 209.492 305.303 209.492 304.74C209.492 304.177 209.267 303.727 208.929 303.389C208.592 303.052 208.141 302.939 207.691 302.939C207.241 302.939 206.79 303.164 206.453 303.389C206.115 303.727 206.002 304.177 206.002 304.74Z" fill="#263238"/>
<path d="M216.922 302.151C216.922 302.489 216.584 302.826 216.246 302.826C215.909 302.826 215.683 302.939 215.458 303.052C215.233 303.164 215.008 303.389 214.895 303.727C214.558 304.177 214.445 304.628 214.333 304.853V307.329C214.333 307.667 213.995 308.005 213.657 308.005C213.319 308.005 212.982 307.667 212.982 307.329V302.151C212.982 301.813 213.319 301.476 213.657 301.476C214.107 301.476 214.333 301.813 214.333 302.151V302.264C214.445 302.151 214.558 302.038 214.558 302.038C215.008 301.701 215.571 301.476 216.246 301.476C216.584 301.476 216.922 301.813 216.922 302.151Z" fill="#263238"/>
<path d="M224.238 307.329C224.238 307.667 223.9 308.005 223.563 308.005C223.225 308.005 222.887 307.779 222.887 307.442C222.437 307.779 221.761 308.005 221.086 308.005C219.285 308.005 217.934 306.541 217.934 304.74C217.934 302.939 219.397 301.476 221.086 301.476C221.761 301.476 222.324 301.701 222.887 302.038V299.562C222.887 299.224 223.225 298.886 223.563 298.886C224.013 298.886 224.238 299.224 224.238 299.562V304.74V307.329ZM221.086 302.939C220.636 302.939 220.185 303.164 219.848 303.502C219.51 303.84 219.285 304.29 219.285 304.853C219.285 305.303 219.51 305.866 219.848 306.203C220.185 306.541 220.636 306.766 221.086 306.766C221.536 306.766 221.987 306.541 222.324 306.203C222.662 305.866 222.887 305.415 222.887 304.853C222.887 304.29 222.662 303.84 222.324 303.502C221.987 303.052 221.536 302.939 221.086 302.939Z" fill="#263238"/>
<path d="M226.265 304.74C226.265 302.939 227.728 301.476 229.529 301.476C231.218 301.476 232.569 302.714 232.681 304.515C232.681 304.515 232.681 304.515 232.681 304.628V304.74C232.681 305.078 232.343 305.303 232.006 305.303H227.841C227.953 305.641 228.066 305.978 228.291 306.203C228.516 306.541 229.079 306.766 229.529 306.766C229.979 306.766 230.542 306.654 230.88 306.429C231.105 306.091 231.668 306.203 231.893 306.429C232.118 306.654 232.231 306.991 231.893 307.329C231.218 307.892 230.43 308.23 229.529 308.23C227.728 308.005 226.377 306.541 226.265 304.74ZM227.728 304.065H231.443C231.33 303.502 230.655 302.714 229.529 302.714C228.403 302.714 227.841 303.614 227.728 304.065Z" fill="#263238"/>
<path d="M238.647 302.151C238.647 302.489 238.31 302.826 237.972 302.826C237.634 302.826 237.409 302.939 237.184 303.052C236.959 303.164 236.734 303.389 236.621 303.727C236.283 304.177 236.171 304.628 236.058 304.853V307.329C236.058 307.667 235.72 308.005 235.383 308.005C235.045 308.005 234.707 307.667 234.707 307.329V302.151C234.707 301.813 235.045 301.476 235.383 301.476C235.833 301.476 236.058 301.813 236.058 302.151V302.264C236.171 302.151 236.283 302.038 236.283 302.038C236.734 301.701 237.296 301.476 237.972 301.476C238.31 301.476 238.647 301.813 238.647 302.151Z" fill="#263238"/>
<path d="M245.739 299.787C245.739 300.237 245.401 300.462 245.063 300.462C244.613 300.462 244.388 300.125 244.388 299.787V299.562C244.388 299.112 244.726 298.886 245.063 298.886C245.514 298.886 245.739 299.224 245.739 299.562V299.787ZM245.739 302.151V307.329C245.739 307.779 245.401 308.005 245.063 308.005C244.613 308.005 244.388 307.667 244.388 307.329V302.151C244.388 301.701 244.726 301.476 245.063 301.476C245.401 301.476 245.739 301.813 245.739 302.151Z" fill="#263238"/>
<path d="M247.653 306.204C247.878 305.866 248.328 305.866 248.666 306.091C249.003 306.429 249.566 306.654 250.129 306.654C250.467 306.654 250.804 306.541 251.03 306.429C251.255 306.316 251.255 306.091 251.255 305.978C251.255 305.866 251.255 305.866 251.255 305.866C251.255 305.866 251.142 305.753 251.03 305.753C250.804 305.641 250.467 305.528 250.016 305.416C249.566 305.303 249.228 305.19 248.891 305.078C248.553 304.853 248.215 304.628 247.99 304.29C247.878 304.065 247.765 303.727 247.765 303.502C247.765 302.939 248.103 302.376 248.553 302.039C249.003 301.701 249.566 301.588 250.129 301.588C251.03 301.588 251.705 302.039 252.155 302.264C252.493 302.489 252.606 302.939 252.38 303.277C252.155 303.615 251.705 303.727 251.367 303.502C250.917 303.277 250.579 303.052 250.129 303.052C249.791 303.052 249.454 303.164 249.341 303.277C249.116 303.389 249.116 303.502 249.116 303.615V303.727C249.116 303.727 249.116 303.84 249.228 303.84C249.454 303.952 249.791 304.065 250.242 304.177C250.692 304.29 251.03 304.402 251.48 304.515C251.818 304.628 252.155 304.965 252.38 305.303C252.493 305.528 252.606 305.866 252.606 306.204C252.606 306.879 252.268 307.442 251.818 307.78C251.367 308.117 250.804 308.342 250.129 308.342C249.116 308.342 248.328 307.892 247.765 307.442C247.427 306.879 247.427 306.429 247.653 306.204Z" fill="#263238"/>
<path d="M258.009 304.74C258.009 302.939 259.585 301.476 261.386 301.476C262.174 301.476 262.962 301.813 263.525 302.151C263.863 302.376 263.863 302.826 263.638 303.164C263.413 303.502 262.962 303.502 262.625 303.277C262.287 303.052 261.837 302.826 261.386 302.826C260.373 302.826 259.473 303.727 259.473 304.74C259.473 305.753 260.373 306.654 261.386 306.654C261.837 306.654 262.287 306.429 262.625 306.203C262.962 305.978 263.3 305.978 263.638 306.316C263.863 306.654 263.75 306.991 263.525 307.329C262.962 307.779 262.174 308.005 261.386 308.005C259.473 308.005 258.009 306.541 258.009 304.74Z" fill="#263238"/>
<path d="M266.339 307.104C265.776 306.541 265.439 305.753 265.439 304.74C265.439 303.84 265.776 303.052 266.339 302.489C266.902 301.813 267.69 301.476 268.59 301.476C269.491 301.476 270.279 301.813 270.842 302.489C271.405 303.164 271.742 303.952 271.742 304.74C271.742 305.641 271.405 306.429 270.842 307.104C270.279 307.779 269.491 308.117 268.59 308.117C267.69 308.117 267.015 307.667 266.339 307.104ZM266.902 304.74C266.902 305.303 267.127 305.753 267.352 306.091C267.69 306.429 268.14 306.541 268.59 306.541C269.041 306.541 269.491 306.316 269.829 306.091C270.166 305.753 270.392 305.303 270.392 304.74C270.392 304.177 270.166 303.727 269.829 303.389C269.491 303.052 269.041 302.939 268.59 302.939C268.14 302.939 267.69 303.164 267.352 303.389C267.127 303.727 266.902 304.177 266.902 304.74Z" fill="#263238"/>
<path d="M279.51 304.177V307.329C279.51 307.667 279.172 308.005 278.834 308.005C278.497 308.005 278.159 307.667 278.159 307.329V304.177C278.159 303.389 277.484 302.826 276.808 302.826C276.02 302.826 275.457 303.389 275.457 304.177V307.329V307.442C275.345 307.779 275.12 308.005 274.782 308.005C274.332 308.005 274.107 307.667 274.107 307.329V304.177V302.151C274.107 301.813 274.444 301.476 274.782 301.476C275.007 301.476 275.345 301.588 275.457 301.926C275.908 301.701 276.358 301.476 276.808 301.476C278.272 301.476 279.51 302.714 279.51 304.177Z" fill="#263238"/>
<path d="M284.238 301.025V301.25H284.688C285.138 301.25 285.363 301.588 285.363 301.926C285.363 302.376 285.026 302.601 284.688 302.601H284.238V307.217C284.238 307.667 283.9 307.892 283.562 307.892C283.112 307.892 282.887 307.554 282.887 307.217V302.601H282.549C282.099 302.601 281.761 302.264 281.761 301.926C281.761 301.476 282.099 301.25 282.549 301.25H282.887V301.025C282.887 300.575 282.887 300.125 283.112 299.787C283.337 299.337 283.675 299.112 284.012 298.999C284.238 298.886 284.575 298.886 284.8 298.886C285.251 298.886 285.476 299.224 285.476 299.562C285.476 300.012 285.138 300.35 284.8 300.35C284.575 300.35 284.463 300.35 284.463 300.35H284.35C284.35 300.35 284.238 300.575 284.238 301.025Z" fill="#263238"/>
<path d="M288.29 299.787C288.29 300.237 287.952 300.462 287.614 300.462C287.164 300.462 286.939 300.125 286.939 299.787V299.562C286.939 299.112 287.277 298.886 287.614 298.886C288.065 298.886 288.29 299.224 288.29 299.562V299.787ZM288.29 302.151V307.329C288.29 307.779 287.952 308.005 287.614 308.005C287.164 308.005 286.939 307.667 286.939 307.329V302.151C286.939 301.701 287.277 301.476 287.614 301.476C288.065 301.476 288.29 301.813 288.29 302.151Z" fill="#263238"/>
<path d="M294.594 302.151C294.594 302.489 294.257 302.826 293.919 302.826C293.581 302.826 293.356 302.939 293.131 303.052C292.906 303.164 292.681 303.389 292.568 303.727C292.23 304.177 292.118 304.628 292.005 304.853V307.329C292.005 307.667 291.668 308.005 291.33 308.005C290.992 308.005 290.654 307.667 290.654 307.329V302.151C290.654 301.813 290.992 301.476 291.33 301.476C291.78 301.476 292.005 301.813 292.005 302.151V302.264C292.118 302.151 292.23 302.038 292.23 302.038C292.681 301.701 293.244 301.476 293.919 301.476C294.369 301.476 294.594 301.813 294.594 302.151Z" fill="#263238"/>
<path d="M301.911 304.177V307.329C301.911 307.667 301.573 308.005 301.235 308.005C300.897 308.005 300.56 307.667 300.56 307.329V304.177C300.56 303.502 299.884 302.826 299.209 302.826C298.533 302.826 297.858 303.389 297.858 304.177V307.329V307.442C297.858 307.442 297.858 307.442 297.858 307.554C297.858 307.554 297.858 307.554 297.858 307.667C297.745 307.892 297.52 308.117 297.183 308.117H297.07C296.732 308.005 296.507 307.779 296.507 307.442V304.177V302.151C296.507 301.701 296.845 301.476 297.183 301.476C297.408 301.476 297.745 301.588 297.858 301.926C298.308 301.701 298.759 301.476 299.321 301.476C300.109 301.476 300.897 301.813 301.348 302.376C301.798 301.813 302.586 301.476 303.374 301.476C304.837 301.476 306.076 302.714 306.076 304.29V307.442C306.076 307.779 305.738 308.117 305.4 308.117C305.062 308.117 304.725 307.779 304.725 307.442V304.177C304.725 303.389 304.162 302.826 303.374 302.826C302.473 302.826 301.911 303.502 301.911 304.177Z" fill="#263238"/>
<path d="M308.44 304.74C308.44 302.939 309.904 301.476 311.705 301.476C313.393 301.476 314.744 302.714 314.857 304.515C314.857 304.515 314.857 304.515 314.857 304.628V304.74C314.857 305.078 314.519 305.303 314.181 305.303H310.016C310.129 305.641 310.241 305.978 310.466 306.203C310.692 306.541 311.254 306.766 311.705 306.766C312.155 306.766 312.718 306.654 313.056 306.429C313.281 306.091 313.844 306.203 314.069 306.429C314.294 306.654 314.406 306.991 314.069 307.329C313.393 307.892 312.605 308.23 311.705 308.23C309.904 308.005 308.44 306.541 308.44 304.74ZM309.904 304.065H313.618C313.506 303.502 312.83 302.714 311.705 302.714C310.579 302.714 310.016 303.614 309.904 304.065Z" fill="#263238"/>
<path d="M322.961 307.329C322.961 307.667 322.624 308.005 322.286 308.005C321.948 308.005 321.611 307.779 321.611 307.442C321.16 307.779 320.485 308.005 319.809 308.005C318.008 308.005 316.658 306.541 316.658 304.74C316.658 302.939 318.121 301.476 319.809 301.476C320.485 301.476 321.048 301.701 321.611 302.038V299.562C321.611 299.224 321.948 298.886 322.286 298.886C322.736 298.886 322.961 299.224 322.961 299.562V304.74V307.329ZM319.697 302.939C319.247 302.939 318.796 303.164 318.459 303.502C318.121 303.84 317.896 304.29 317.896 304.853C317.896 305.303 318.121 305.866 318.459 306.203C318.796 306.541 319.247 306.766 319.697 306.766C320.147 306.766 320.597 306.541 320.935 306.203C321.273 305.866 321.498 305.415 321.498 304.853C321.498 304.29 321.273 303.84 320.935 303.502C320.597 303.052 320.26 302.939 319.697 302.939Z" fill="#263238"/>
<path d="M216.202 282.677H213.387C213.162 282.677 213.05 282.564 213.05 282.339C213.05 282.114 213.162 282.001 213.387 282.001H219.579C219.804 282.001 219.917 282.114 219.917 282.339C219.917 282.564 219.804 282.677 219.579 282.677H216.765V290.894C216.765 291.119 216.652 291.232 216.427 291.232C216.202 291.232 216.089 291.119 216.089 290.894V282.677H216.202Z" fill="#263238"/>
<path d="M226.67 287.292C226.67 286.166 225.769 285.378 224.644 285.378C223.518 285.378 222.618 286.166 222.618 287.292V290.894C222.618 291.007 222.505 291.007 222.392 291.007C222.28 291.007 222.167 291.007 222.167 290.894V290.781V290.669V287.292V287.179V282.339C222.167 282.114 222.28 282.001 222.505 282.001C222.73 282.001 222.843 282.114 222.843 282.339V285.716C223.293 285.153 224.081 284.815 224.869 284.815C226.332 284.815 227.571 285.828 227.571 287.404V291.007C227.571 291.232 227.458 291.344 227.233 291.344C227.008 291.344 226.895 291.232 226.895 291.007V287.292H226.67Z" fill="#263238"/>
<path d="M236.014 285.153V291.006C236.014 291.232 235.902 291.344 235.676 291.344C235.451 291.344 235.339 291.232 235.339 291.006V289.993C234.776 290.781 233.875 291.232 232.862 291.232C231.174 291.232 229.823 289.768 229.823 287.967C229.823 286.166 231.174 284.703 232.862 284.703C233.875 284.703 234.776 285.153 235.339 285.941V285.04C235.339 284.815 235.451 284.703 235.676 284.703C235.902 284.703 236.014 284.928 236.014 285.153ZM235.339 287.967C235.339 286.504 234.213 285.378 232.862 285.378C231.511 285.378 230.386 286.504 230.386 287.967C230.386 289.43 231.511 290.556 232.862 290.556C234.213 290.556 235.339 289.43 235.339 287.967Z" fill="#263238"/>
<path d="M243.218 287.404C243.218 286.278 242.318 285.378 241.192 285.378C240.066 285.378 239.166 286.278 239.166 287.404V290.894C239.166 290.894 239.166 291.006 239.053 291.006C239.053 291.119 238.941 291.119 238.828 291.119C238.716 291.119 238.603 291.006 238.603 290.894V290.781V287.292V285.04C238.603 284.815 238.716 284.703 238.941 284.703C239.166 284.703 239.278 284.815 239.278 285.04V285.716C239.729 285.153 240.517 284.815 241.305 284.815C242.768 284.815 243.894 286.053 243.894 287.404V290.894C243.894 291.119 243.781 291.232 243.556 291.232C243.331 291.232 243.218 291.119 243.218 290.894V287.404Z" fill="#263238"/>
<path d="M246.708 282.339C246.708 282.114 246.821 282.001 247.046 282.001C247.271 282.001 247.384 282.114 247.384 282.339V288.53L251.211 284.703C251.324 284.59 251.549 284.59 251.661 284.703C251.774 284.815 251.774 285.04 251.661 285.153L249.185 287.629L251.661 290.669C251.774 290.781 251.774 291.007 251.661 291.119C251.549 291.119 251.549 291.232 251.436 291.232C251.324 291.232 251.211 291.232 251.211 291.119L248.735 288.08L247.384 289.431V290.894C247.384 291.119 247.271 291.232 247.046 291.232C246.821 291.232 246.708 291.119 246.708 290.894V282.339Z" fill="#263238"/>
<path d="M257.515 285.04C257.515 284.815 257.627 284.703 257.853 284.703C258.078 284.703 258.19 284.815 258.19 285.04V288.53C258.19 289.656 259.091 290.556 260.217 290.556C261.342 290.556 262.243 289.656 262.243 288.53V285.04V284.928L262.355 284.815C262.355 284.815 262.468 284.815 262.468 284.928L262.581 285.04V285.153V288.642V288.755V290.781C262.581 292.47 261.23 293.821 259.541 293.821C259.091 293.821 258.641 293.708 258.19 293.483C258.078 293.37 257.965 293.258 258.078 293.033C258.19 292.92 258.303 292.808 258.528 292.92C258.866 293.033 259.203 293.145 259.541 293.145C260.892 293.145 262.018 292.132 262.018 290.781V290.331C261.567 290.894 260.779 291.232 259.991 291.232C258.528 291.232 257.402 289.993 257.402 288.642V285.04H257.515Z" fill="#263238"/>
<path d="M268.096 284.815C269.785 284.815 271.136 286.279 271.136 288.08C271.136 289.881 269.785 291.344 268.096 291.344C266.408 291.344 265.057 289.881 265.057 288.08C265.057 286.279 266.408 284.815 268.096 284.815ZM268.096 290.556C269.447 290.556 270.573 289.431 270.573 287.967C270.573 286.504 269.447 285.378 268.096 285.378C266.745 285.378 265.62 286.504 265.62 287.967C265.732 289.431 266.858 290.556 268.096 290.556Z" fill="#263238"/>
<path d="M273.274 285.04C273.274 284.815 273.387 284.703 273.612 284.703C273.837 284.703 273.95 284.815 273.95 285.04V288.53C273.95 289.656 274.85 290.556 275.976 290.556C277.101 290.556 278.002 289.656 278.002 288.53V285.04C278.002 284.815 278.115 284.703 278.34 284.703C278.565 284.703 278.677 284.815 278.677 285.04V288.53C278.677 289.993 277.552 291.119 275.976 291.119C274.512 291.119 273.387 289.881 273.387 288.53V285.04H273.274Z" fill="#263238"/>
<path d="M281.491 282.339C281.491 282.114 281.604 282.001 281.829 282.001C282.054 282.001 282.167 282.114 282.167 282.339V288.98C282.167 289.205 282.054 289.318 281.829 289.318C281.604 289.318 281.491 289.205 281.491 288.98V282.339ZM281.491 290.556C281.491 290.331 281.604 290.219 281.829 290.219C282.054 290.219 282.167 290.331 282.167 290.556V290.894C282.167 291.119 282.054 291.232 281.829 291.232C281.604 291.232 281.491 291.119 281.491 290.894V290.556Z" fill="#263238"/>
<path d="M244.568 251.157L235.112 241.476L238.264 238.324L243.78 243.952L255.374 225.941L259.202 228.305L244.568 251.157Z" fill="#FE9868"/>
<path d="M247.157 263.427C260.891 263.427 272.035 252.283 272.035 238.549C272.035 224.816 260.891 213.671 247.157 213.671C233.424 213.671 222.279 224.816 222.279 238.549C222.392 252.283 233.536 263.427 247.157 263.427ZM247.157 217.048C258.977 217.048 268.658 226.729 268.658 238.549C268.658 250.369 258.977 260.05 247.157 260.05C235.337 260.05 225.656 250.369 225.656 238.549C225.769 226.617 235.337 217.048 247.157 217.048Z" fill="#FE9868"/>
<path d="M278.451 237.986H285.881V239.112H278.451V237.986Z" fill="#FE9868"/>
<path d="M280.977 222.303L281.772 223.099L276.519 228.352L275.723 227.556L280.977 222.303Z" fill="#FE9868"/>
<path d="M276.564 248.453L281.818 253.706L281.022 254.502L275.768 249.249L276.564 248.453Z" fill="#FE9868"/>
<path d="M208.546 237.986H215.976V239.112H208.546V237.986Z" fill="#FE9868"/>
<path d="M213.434 222.274L218.688 227.527L217.892 228.323L212.638 223.07L213.434 222.274Z" fill="#FE9868"/>
<path d="M217.858 248.469L218.654 249.265L213.4 254.518L212.604 253.722L217.858 248.469Z" fill="#FE9868"/>
<path d="M280.815 352.582H213.611V375.095H280.815V352.582Z" fill="#FE9868"/>
<path d="M229.596 367.891V360.124C229.596 359.674 229.934 359.448 230.272 359.448H231.848C234.437 359.448 236.463 361.475 236.463 364.064C236.463 366.653 234.437 368.679 231.848 368.679H230.272C229.934 368.679 229.596 368.341 229.596 367.891ZM231.06 367.216H231.848C233.536 367.216 235 365.752 235 364.064C235 362.375 233.649 360.912 231.848 360.912H231.06V367.216Z" fill="white"/>
<path d="M246.144 360.574C246.932 361.475 247.495 362.6 247.495 363.951C247.495 365.302 246.932 366.428 246.144 367.328C245.356 368.229 244.23 368.792 242.992 368.792C241.754 368.792 240.515 368.229 239.727 367.328C238.939 366.428 238.377 365.302 238.377 363.951C238.377 362.6 238.827 361.475 239.727 360.574C240.515 359.673 241.641 359.111 242.992 359.111C244.23 359.111 245.356 359.673 246.144 360.574ZM246.031 363.839C246.031 362.938 245.694 362.15 245.131 361.587C244.568 361.024 243.892 360.687 242.992 360.687C242.204 360.687 241.416 361.024 240.853 361.587C240.29 362.15 239.952 363.051 239.952 363.839C239.952 364.739 240.29 365.527 240.853 366.09C241.416 366.653 242.091 366.99 242.992 366.99C243.78 366.99 244.568 366.653 245.131 366.09C245.694 365.64 246.031 364.739 246.031 363.839Z" fill="white"/>
<path d="M251.21 367.891C251.21 368.341 250.872 368.567 250.534 368.567C250.084 368.567 249.859 368.229 249.859 367.891V360.236C249.859 360.011 249.971 359.786 250.197 359.674C250.534 359.448 250.984 359.561 251.21 359.786L255.487 365.64V360.236C255.487 359.899 255.825 359.561 256.163 359.561C256.613 359.561 256.838 359.899 256.838 360.236V367.891C256.838 368.341 256.5 368.567 256.163 368.567C255.938 368.567 255.712 368.454 255.6 368.341C255.6 368.341 255.6 368.341 255.487 368.229L251.322 362.375V367.891H251.21Z" fill="white"/>
<path d="M259.09 367.891V360.124C259.09 359.674 259.427 359.448 259.765 359.448H264.043C264.38 359.448 264.718 359.786 264.718 360.124C264.718 360.574 264.38 360.912 264.043 360.912H260.553V363.276H263.592C264.043 363.276 264.268 363.613 264.268 363.951C264.268 364.401 263.93 364.739 263.592 364.739H260.553V367.216H264.155C264.493 367.216 264.831 367.553 264.831 368.004C264.831 368.454 264.493 368.679 264.155 368.679H259.878C259.427 368.679 259.09 368.341 259.09 367.891Z" fill="white"/>
<path d="M185.469 321.625L183.78 319.261C183.78 319.149 183.78 319.036 183.78 319.036C183.893 318.924 184.005 319.036 184.005 319.036L185.581 321.287L187.157 319.036C187.157 318.924 187.27 318.924 187.382 319.036C187.495 319.036 187.495 319.149 187.382 319.261L185.694 321.625V323.877C185.694 323.989 185.581 324.102 185.469 324.102C185.356 324.102 185.244 323.989 185.244 323.877V321.625H185.469Z" fill="#C7C7C7"/>
<path d="M189.071 320.499C189.972 320.499 190.76 321.287 190.76 322.301C190.76 323.314 189.972 324.102 189.071 324.102C188.171 324.102 187.383 323.314 187.383 322.301C187.383 321.287 188.171 320.499 189.071 320.499ZM189.071 323.764C189.747 323.764 190.422 323.088 190.422 322.301C190.422 321.513 189.859 320.837 189.071 320.837C188.396 320.837 187.72 321.513 187.72 322.301C187.72 323.088 188.396 323.764 189.071 323.764Z" fill="#C7C7C7"/>
<path d="M191.997 320.725C191.997 320.612 192.11 320.499 192.223 320.499C192.335 320.499 192.448 320.612 192.448 320.725V322.638C192.448 323.201 192.898 323.764 193.573 323.764C194.136 323.764 194.699 323.314 194.699 322.638V320.725C194.699 320.612 194.812 320.499 194.924 320.499C195.037 320.499 195.149 320.612 195.149 320.725V322.638C195.149 323.426 194.474 324.102 193.686 324.102C192.898 324.102 192.223 323.426 192.223 322.638V320.725H191.997Z" fill="#C7C7C7"/>
<path d="M199.878 324.102C199.878 323.989 199.878 323.989 199.878 324.102L198.414 320.837C198.414 320.725 198.414 320.612 198.527 320.612C198.639 320.612 198.752 320.612 198.752 320.725L199.99 323.539L200.778 321.625C200.778 321.513 200.891 321.513 200.891 321.513C201.003 321.513 201.003 321.513 201.116 321.625L201.904 323.539L203.142 320.725C203.142 320.612 203.255 320.612 203.367 320.612C203.48 320.612 203.48 320.725 203.48 320.837L202.129 323.989C202.129 323.989 202.129 324.102 202.016 324.102H201.904C201.791 324.102 201.791 324.102 201.791 323.989L201.003 321.963L200.215 323.989C200.103 323.989 200.103 324.102 199.878 324.102C199.99 324.102 199.99 324.102 199.878 324.102Z" fill="#C7C7C7"/>
<path d="M204.493 319.487C204.493 319.374 204.606 319.261 204.718 319.261C204.831 319.261 204.944 319.374 204.944 319.487V319.599C204.944 319.712 204.831 319.824 204.718 319.824C204.606 319.824 204.493 319.712 204.493 319.599V319.487ZM204.493 320.725C204.493 320.612 204.606 320.5 204.718 320.5C204.831 320.5 204.944 320.612 204.944 320.725V323.989C204.944 324.102 204.831 324.214 204.718 324.214C204.606 324.214 204.493 324.102 204.493 323.989V320.725Z" fill="#C7C7C7"/>
<path d="M206.519 319.149C206.519 319.036 206.632 318.924 206.744 318.924C206.857 318.924 206.97 319.036 206.97 319.149V323.877C206.97 323.989 206.857 324.102 206.744 324.102C206.632 324.102 206.519 323.989 206.519 323.877V319.149Z" fill="#C7C7C7"/>
<path d="M208.32 319.149C208.32 319.036 208.433 318.924 208.545 318.924C208.658 318.924 208.77 319.036 208.77 319.149V323.877C208.77 323.989 208.658 324.102 208.545 324.102C208.433 324.102 208.32 323.989 208.32 323.877V319.149Z" fill="#C7C7C7"/>
<path d="M212.26 322.413V322.188V319.149C212.26 319.036 212.373 318.924 212.485 318.924C212.598 318.924 212.71 319.036 212.71 319.149V321.175C213.048 320.725 213.498 320.5 214.061 320.5C215.074 320.5 215.75 321.288 215.75 322.301C215.75 323.314 214.962 324.102 214.061 324.102C213.498 324.102 213.048 323.877 212.71 323.426V323.989C212.71 324.102 212.598 324.214 212.485 324.214C212.373 324.214 212.26 324.102 212.26 323.989V322.413ZM212.598 322.301C212.598 323.089 213.273 323.764 213.948 323.764C214.736 323.764 215.299 323.089 215.299 322.301C215.299 321.513 214.736 320.837 213.948 320.837C213.273 320.837 212.598 321.513 212.598 322.301Z" fill="#C7C7C7"/>
<path d="M216.763 322.301C216.763 321.287 217.551 320.499 218.451 320.499C219.352 320.499 220.14 321.175 220.14 322.188C220.14 322.3 220.027 322.301 219.915 322.301H216.988C216.988 323.088 217.663 323.651 218.339 323.651C218.789 323.651 219.239 323.426 219.464 322.976C219.464 322.863 219.577 322.863 219.69 322.863C219.802 322.976 219.802 322.976 219.802 323.088C219.464 323.539 219.014 323.876 218.339 323.876C217.551 324.102 216.763 323.314 216.763 322.301ZM217.213 321.963H219.915C219.802 321.287 219.239 320.837 218.564 320.837C217.888 320.837 217.326 321.287 217.213 321.963Z" fill="#C7C7C7"/>
<path d="M223.742 320.725C223.742 320.612 223.855 320.499 223.967 320.499C224.08 320.499 224.08 320.612 224.08 320.725V321.513V321.4C224.305 320.95 224.868 320.499 225.543 320.499C225.656 320.499 225.768 320.612 225.768 320.725C225.768 320.837 225.656 320.95 225.543 320.95C225.093 320.95 224.755 321.175 224.53 321.513C224.305 321.85 224.193 322.188 224.08 322.301C224.08 322.301 224.08 322.301 224.08 322.413V323.989C224.08 324.102 223.967 324.214 223.967 324.214C223.855 324.214 223.742 324.102 223.742 323.989V320.725Z" fill="#C7C7C7"/>
<path d="M226.331 322.301C226.331 321.287 227.119 320.499 228.02 320.499C228.92 320.499 229.708 321.175 229.708 322.188C229.708 322.3 229.596 322.301 229.483 322.301H226.556C226.556 323.088 227.232 323.651 227.907 323.651C228.357 323.651 228.808 323.426 229.033 322.976C229.033 322.863 229.145 322.863 229.258 322.863C229.37 322.976 229.37 322.976 229.37 323.088C229.033 323.539 228.582 323.876 227.907 323.876C227.119 324.102 226.331 323.314 226.331 322.301ZM226.669 321.963H229.37C229.258 321.287 228.695 320.837 228.02 320.837C227.344 320.837 226.781 321.287 226.669 321.963Z" fill="#C7C7C7"/>
<path d="M230.722 322.301C230.722 321.287 231.51 320.499 232.523 320.499C232.973 320.499 233.311 320.612 233.649 320.95C233.761 320.95 233.761 321.062 233.649 321.175C233.536 321.287 233.536 321.287 233.423 321.175C233.198 320.95 232.861 320.837 232.523 320.837C231.735 320.837 231.059 321.513 231.059 322.301C231.059 323.088 231.735 323.764 232.523 323.764C232.861 323.764 233.198 323.651 233.423 323.426C233.536 323.314 233.649 323.426 233.649 323.426C233.761 323.539 233.649 323.651 233.649 323.651C233.311 323.876 232.973 323.989 232.523 323.989C231.51 324.102 230.722 323.314 230.722 322.301Z" fill="#C7C7C7"/>
<path d="M234.774 322.301C234.774 321.287 235.562 320.499 236.462 320.499C237.363 320.499 238.151 321.175 238.151 322.188C238.151 322.3 238.038 322.301 237.926 322.301H234.999C234.999 323.088 235.674 323.651 236.35 323.651C236.8 323.651 237.25 323.426 237.475 322.976C237.475 322.863 237.588 322.863 237.701 322.863C237.813 322.976 237.813 322.976 237.813 323.088C237.475 323.539 237.025 323.876 236.35 323.876C235.562 324.102 234.774 323.314 234.774 322.301ZM235.224 321.963H237.926C237.813 321.287 237.25 320.837 236.575 320.837C235.899 320.837 235.337 321.287 235.224 321.963Z" fill="#C7C7C7"/>
<path d="M239.502 319.487C239.502 319.374 239.614 319.261 239.727 319.261C239.84 319.261 239.952 319.374 239.952 319.487V319.599C239.952 319.712 239.84 319.824 239.727 319.824C239.614 319.824 239.502 319.712 239.502 319.599V319.487ZM239.502 320.725C239.502 320.612 239.614 320.5 239.727 320.5C239.84 320.5 239.952 320.612 239.952 320.725V323.989C239.952 324.102 239.84 324.214 239.727 324.214C239.614 324.214 239.502 324.102 239.502 323.989V320.725Z" fill="#C7C7C7"/>
<path d="M242.653 324.102C242.653 323.989 242.653 323.989 242.653 324.102L241.303 320.837C241.303 320.725 241.303 320.612 241.415 320.612C241.528 320.612 241.64 320.612 241.64 320.725L242.879 323.539L244.117 320.725C244.117 320.612 244.229 320.612 244.342 320.612C244.455 320.612 244.455 320.725 244.455 320.837L243.104 323.989V324.102C242.879 324.102 242.879 324.102 242.653 324.102C242.766 324.102 242.766 324.102 242.653 324.102C242.766 324.102 242.766 324.102 242.653 324.102C242.766 324.102 242.653 324.102 242.653 324.102Z" fill="#C7C7C7"/>
<path d="M245.805 319.487C245.805 319.374 245.918 319.261 246.03 319.261C246.143 319.261 246.256 319.374 246.256 319.487V319.599C246.256 319.712 246.143 319.824 246.03 319.824C245.918 319.824 245.805 319.712 245.805 319.599V319.487ZM245.805 320.725C245.805 320.612 245.918 320.5 246.03 320.5C246.143 320.5 246.256 320.612 246.256 320.725V323.989C246.256 324.102 246.143 324.214 246.03 324.214C245.918 324.214 245.805 324.102 245.805 323.989V320.725Z" fill="#C7C7C7"/>
<path d="M250.421 321.963C250.421 321.4 249.971 320.837 249.295 320.837C248.733 320.837 248.17 321.287 248.17 321.963V323.876V323.989L248.057 324.102C248.057 324.102 247.945 324.102 247.945 323.989V322.075V321.963V320.725C247.945 320.612 248.057 320.499 248.17 320.499C248.282 320.499 248.282 320.612 248.282 320.725V321.062C248.507 320.725 248.958 320.499 249.408 320.499C250.196 320.499 250.871 321.175 250.871 321.963V323.876C250.871 323.989 250.759 324.102 250.646 324.102C250.534 324.102 250.421 323.989 250.421 323.876V321.963Z" fill="#C7C7C7"/>
<path d="M255.486 323.764C255.486 324.665 254.698 325.453 253.798 325.453C253.573 325.453 253.235 325.34 253.01 325.34C252.897 325.34 252.897 325.227 252.897 325.115C252.897 325.002 253.01 325.002 253.122 325.002C253.348 325.115 253.46 325.115 253.685 325.115C254.473 325.115 255.036 324.552 255.036 323.764V323.314C254.698 323.764 254.248 323.989 253.685 323.989C252.785 323.989 251.997 323.201 251.997 322.188C251.997 321.175 252.785 320.387 253.685 320.387C254.248 320.387 254.698 320.612 255.036 321.062V320.5C255.036 320.387 255.149 320.274 255.261 320.274C255.374 320.274 255.374 320.387 255.374 320.5V323.764H255.486ZM255.149 322.301C255.149 321.513 254.586 320.837 253.798 320.837C253.122 320.837 252.447 321.513 252.447 322.301C252.447 323.089 253.01 323.764 253.798 323.764C254.473 323.764 255.149 323.089 255.149 322.301Z" fill="#C7C7C7"/>
<path d="M262.354 320.725V323.989C262.354 324.102 262.241 324.214 262.129 324.214C262.016 324.214 261.903 324.102 261.903 323.989V323.426C261.566 323.877 261.115 324.102 260.553 324.102C259.652 324.102 258.864 323.314 258.864 322.301C258.864 321.288 259.652 320.5 260.553 320.5C261.115 320.5 261.566 320.725 261.903 321.175V320.612C261.903 320.5 262.016 320.387 262.129 320.387C262.241 320.5 262.354 320.612 262.354 320.725ZM262.016 322.301C262.016 321.513 261.453 320.837 260.665 320.837C259.99 320.837 259.314 321.513 259.314 322.301C259.314 323.089 259.877 323.764 260.665 323.764C261.341 323.764 262.016 323.089 262.016 322.301Z" fill="#C7C7C7"/>
<path d="M265.73 322.301C265.73 321.287 266.518 320.499 267.531 320.499C267.982 320.499 268.319 320.612 268.657 320.95C268.77 320.95 268.77 321.062 268.657 321.175C268.545 321.287 268.545 321.287 268.432 321.175C268.207 320.95 267.869 320.837 267.531 320.837C266.743 320.837 266.068 321.513 266.068 322.301C266.068 323.088 266.743 323.764 267.531 323.764C267.869 323.764 268.207 323.651 268.432 323.426C268.545 323.314 268.657 323.426 268.657 323.426C268.77 323.539 268.657 323.651 268.657 323.651C268.319 323.876 267.982 323.989 267.531 323.989C266.631 324.102 265.73 323.314 265.73 322.301Z" fill="#C7C7C7"/>
<path d="M271.584 320.499C272.485 320.499 273.273 321.287 273.273 322.301C273.273 323.314 272.485 324.102 271.584 324.102C270.684 324.102 269.896 323.314 269.896 322.301C269.896 321.287 270.684 320.499 271.584 320.499ZM271.584 323.764C272.26 323.764 272.935 323.088 272.935 322.301C272.935 321.513 272.372 320.837 271.584 320.837C270.909 320.837 270.233 321.513 270.233 322.301C270.233 323.088 270.909 323.764 271.584 323.764Z" fill="#C7C7C7"/>
<path d="M277.212 321.963C277.212 321.4 276.762 320.837 276.087 320.837C275.524 320.837 274.961 321.287 274.961 321.963V323.876V323.989L274.848 324.102C274.848 324.102 274.736 324.102 274.736 323.989V322.075V321.963V320.725C274.736 320.612 274.848 320.499 274.961 320.499C275.074 320.499 275.074 320.612 275.074 320.725V321.062C275.299 320.725 275.749 320.499 276.199 320.499C276.987 320.499 277.663 321.175 277.663 321.963V323.876C277.663 323.989 277.55 324.102 277.438 324.102C277.325 324.102 277.212 323.989 277.212 323.876V321.963Z" fill="#C7C7C7"/>
<path d="M280.703 319.149C280.703 319.261 280.59 319.374 280.478 319.374C280.252 319.374 280.14 319.374 280.027 319.486C279.915 319.599 279.915 319.712 279.915 320.049V320.387H280.365C280.478 320.387 280.59 320.5 280.59 320.612C280.59 320.725 280.478 320.837 280.365 320.837H279.915V323.989C279.915 324.102 279.802 324.214 279.69 324.214C279.577 324.214 279.464 324.102 279.464 323.989V320.837H279.014C278.902 320.837 278.789 320.725 278.789 320.612C278.789 320.5 278.902 320.387 279.014 320.387H279.464V320.049C279.464 319.712 279.577 319.374 279.69 319.261C279.915 319.036 280.14 319.036 280.365 319.036C280.59 318.924 280.703 319.036 280.703 319.149Z" fill="#C7C7C7"/>
<path d="M281.828 319.487C281.828 319.374 281.94 319.261 282.053 319.261C282.165 319.261 282.278 319.374 282.278 319.487V319.599C282.278 319.712 282.165 319.824 282.053 319.824C281.94 319.824 281.828 319.712 281.828 319.599V319.487ZM281.828 320.725C281.828 320.612 281.94 320.5 282.053 320.5C282.165 320.5 282.278 320.612 282.278 320.725V323.989C282.278 324.102 282.165 324.214 282.053 324.214C281.94 324.214 281.828 324.102 281.828 323.989V320.725Z" fill="#C7C7C7"/>
<path d="M283.855 320.725C283.855 320.612 283.967 320.499 284.08 320.499C284.192 320.499 284.192 320.612 284.192 320.725V321.513V321.4C284.417 320.95 284.98 320.499 285.656 320.499C285.768 320.499 285.881 320.612 285.881 320.725C285.881 320.837 285.768 320.95 285.656 320.95C285.205 320.95 284.868 321.175 284.643 321.513C284.418 321.85 284.305 322.188 284.192 322.301C284.192 322.301 284.192 322.301 284.192 322.413V323.989C284.192 324.102 284.08 324.214 284.08 324.214C283.967 324.214 283.855 324.102 283.855 323.989V320.725Z" fill="#C7C7C7"/>
<path d="M292.185 321.963C292.185 321.4 291.734 320.837 291.059 320.837C290.496 320.837 289.933 321.287 289.933 321.963V323.876C289.933 323.876 289.933 323.989 289.821 323.989H289.708V322.075C289.708 321.513 289.258 320.95 288.583 320.95C288.02 320.95 287.457 321.4 287.457 322.075V323.989C287.457 324.102 287.457 324.102 287.344 324.102C287.232 324.102 287.232 323.989 287.232 323.989V322.075V321.963V320.725C287.232 320.612 287.344 320.612 287.344 320.612C287.457 320.612 287.569 320.725 287.569 320.725V321.062C287.795 320.725 288.245 320.499 288.695 320.499C289.258 320.499 289.708 320.837 289.933 321.287C290.159 320.837 290.721 320.499 291.172 320.499C291.96 320.499 292.635 321.175 292.635 321.963V323.876C292.635 323.989 292.522 323.989 292.41 323.989C292.297 323.989 292.297 323.876 292.297 323.876V321.963H292.185Z" fill="#C7C7C7"/>
<path d="M297.025 320.725V323.989C297.025 324.102 296.912 324.214 296.8 324.214C296.687 324.214 296.575 324.102 296.575 323.989V323.426C296.237 323.877 295.787 324.102 295.224 324.102C294.323 324.102 293.535 323.314 293.535 322.301C293.535 321.288 294.323 320.5 295.224 320.5C295.787 320.5 296.237 320.725 296.575 321.175V320.612C296.575 320.5 296.687 320.387 296.8 320.387C296.912 320.5 297.025 320.612 297.025 320.725ZM296.575 322.301C296.575 321.513 296.012 320.837 295.224 320.837C294.548 320.837 293.873 321.513 293.873 322.301C293.873 323.089 294.436 323.764 295.224 323.764C296.012 323.764 296.575 323.089 296.575 322.301Z" fill="#C7C7C7"/>
<path d="M299.727 320.725C299.727 320.837 299.614 320.95 299.502 320.95H299.051V323.539C299.051 323.764 299.277 323.764 299.277 323.764C299.389 323.764 299.502 323.877 299.502 323.989C299.502 324.102 299.389 324.214 299.277 324.214C298.939 324.214 298.601 323.989 298.601 323.539V320.95H298.151C297.926 320.95 297.926 320.837 297.926 320.725C297.926 320.612 297.926 320.5 298.151 320.5H298.601V319.149C298.601 319.036 298.714 318.924 298.826 318.924C298.939 318.924 299.051 319.036 299.051 319.149V320.5H299.502C299.614 320.5 299.727 320.612 299.727 320.725Z" fill="#C7C7C7"/>
<path d="M301.415 319.487C301.415 319.374 301.528 319.261 301.64 319.261C301.753 319.261 301.865 319.374 301.865 319.487V319.599C301.865 319.712 301.753 319.824 301.64 319.824C301.528 319.824 301.415 319.712 301.415 319.599V319.487ZM301.415 320.725C301.415 320.612 301.528 320.5 301.64 320.5C301.753 320.5 301.865 320.612 301.865 320.725V323.989C301.865 324.102 301.753 324.214 301.64 324.214C301.528 324.214 301.415 324.102 301.415 323.989V320.725Z" fill="#C7C7C7"/>
<path d="M305.017 320.499C305.918 320.499 306.706 321.287 306.706 322.301C306.706 323.314 305.918 324.102 305.017 324.102C304.117 324.102 303.329 323.314 303.329 322.301C303.329 321.287 304.004 320.499 305.017 320.499ZM305.017 323.764C305.693 323.764 306.368 323.088 306.368 322.301C306.368 321.513 305.805 320.837 305.017 320.837C304.342 320.837 303.667 321.513 303.667 322.301C303.667 323.088 304.229 323.764 305.017 323.764Z" fill="#C7C7C7"/>
<path d="M310.534 321.963C310.534 321.4 310.083 320.837 309.408 320.837C308.845 320.837 308.282 321.287 308.282 321.963V323.876V323.989L308.17 324.102C308.17 324.102 308.057 324.102 308.057 323.989V322.075V321.963V320.725C308.057 320.612 308.17 320.499 308.282 320.499C308.395 320.499 308.395 320.612 308.395 320.725V321.062C308.62 320.725 309.07 320.499 309.52 320.499C310.308 320.499 310.984 321.175 310.984 321.963V323.876C310.984 323.989 310.871 324.102 310.759 324.102C310.646 324.102 310.534 323.989 310.534 323.876V321.963Z" fill="#C7C7C7"/>
<path d="M204.943 331.081C204.943 330.068 205.731 329.28 206.631 329.28C207.532 329.28 208.32 329.955 208.32 330.968C208.32 331.081 208.207 331.081 208.095 331.081H205.168C205.168 331.869 205.843 332.432 206.519 332.432C206.969 332.432 207.419 332.207 207.645 331.756C207.645 331.644 207.757 331.644 207.87 331.644C207.982 331.756 207.982 331.756 207.982 331.869C207.645 332.319 207.194 332.657 206.519 332.657C205.731 332.882 204.943 331.982 204.943 331.081ZM205.393 330.743H208.095C207.982 330.068 207.419 329.618 206.744 329.618C206.069 329.618 205.506 330.068 205.393 330.743Z" fill="#C7C7C7"/>
<path d="M214.736 330.743C214.736 330.18 214.286 329.618 213.611 329.618C213.048 329.618 212.485 330.068 212.485 330.743V332.657C212.485 332.657 212.485 332.77 212.372 332.77H212.26V330.856C212.26 330.293 211.809 329.73 211.134 329.73C210.571 329.73 210.008 330.18 210.008 330.856V332.77C210.008 332.882 210.008 332.882 209.896 332.882C209.783 332.882 209.783 332.77 209.783 332.77V330.856V330.743V329.505C209.783 329.392 209.896 329.392 209.896 329.392C210.008 329.392 210.121 329.505 210.121 329.505V329.843C210.346 329.505 210.796 329.28 211.247 329.28C211.809 329.28 212.26 329.618 212.485 330.068C212.71 329.618 213.273 329.28 213.723 329.28C214.511 329.28 215.187 329.955 215.187 330.743V332.657C215.187 332.77 215.074 332.77 214.961 332.77C214.849 332.77 214.849 332.657 214.849 332.657V330.743H214.736Z" fill="#C7C7C7"/>
<path d="M219.577 329.393V332.657C219.577 332.77 219.465 332.882 219.352 332.882C219.24 332.882 219.127 332.77 219.127 332.657V332.094C218.789 332.544 218.339 332.77 217.776 332.77C216.876 332.77 216.088 331.982 216.088 330.968C216.088 329.955 216.876 329.167 217.776 329.167C218.339 329.167 218.789 329.392 219.127 329.843V329.28C219.127 329.167 219.24 329.055 219.352 329.055C219.577 329.28 219.577 329.28 219.577 329.393ZM219.24 331.081C219.24 330.293 218.677 329.618 217.889 329.618C217.213 329.618 216.538 330.293 216.538 331.081C216.538 331.869 217.101 332.544 217.889 332.544C218.677 332.432 219.24 331.869 219.24 331.081Z" fill="#C7C7C7"/>
<path d="M221.153 328.267C221.153 328.154 221.266 328.042 221.378 328.042C221.491 328.042 221.604 328.154 221.604 328.267V328.379C221.604 328.492 221.491 328.605 221.378 328.605C221.266 328.605 221.153 328.492 221.153 328.379V328.267ZM221.153 329.393C221.153 329.28 221.266 329.167 221.378 329.167C221.491 329.167 221.604 329.28 221.604 329.393V332.657C221.604 332.77 221.491 332.882 221.378 332.882C221.266 332.882 221.153 332.77 221.153 332.657V329.393Z" fill="#C7C7C7"/>
<path d="M223.067 327.929C223.067 327.817 223.18 327.704 223.292 327.704C223.405 327.704 223.518 327.817 223.518 327.929V332.657C223.518 332.77 223.405 332.882 223.292 332.882C223.18 332.882 223.067 332.77 223.067 332.657V327.929Z" fill="#C7C7C7"/>
<path d="M228.245 332.77C228.133 332.77 228.245 332.77 228.245 332.77L226.782 329.505C226.782 329.392 226.782 329.28 226.894 329.28C227.007 329.28 227.12 329.28 227.12 329.392L228.358 332.207L229.146 330.293C229.146 330.18 229.258 330.18 229.258 330.18C229.371 330.18 229.371 330.18 229.483 330.293L230.271 332.207L231.51 329.392C231.51 329.28 231.622 329.28 231.735 329.28C231.847 329.28 231.847 329.392 231.847 329.505L230.497 332.657C230.497 332.657 230.497 332.77 230.384 332.77H230.271C230.159 332.77 230.159 332.77 230.159 332.657L229.371 330.631L228.583 332.657C228.47 332.77 228.358 332.882 228.245 332.77C228.358 332.882 228.245 332.882 228.245 332.77Z" fill="#C7C7C7"/>
<path d="M232.86 328.267C232.86 328.154 232.972 328.042 233.085 328.042C233.198 328.042 233.31 328.154 233.31 328.267V328.379C233.31 328.492 233.198 328.605 233.085 328.605C232.972 328.605 232.86 328.492 232.86 328.379V328.267ZM232.86 329.393C232.86 329.28 232.972 329.167 233.085 329.167C233.198 329.167 233.31 329.28 233.31 329.393V332.657C233.31 332.77 233.198 332.882 233.085 332.882C232.972 332.882 232.86 332.77 232.86 332.657V329.393Z" fill="#C7C7C7"/>
<path d="M236.125 329.392C236.125 329.505 236.013 329.618 235.9 329.618H235.45V332.207C235.45 332.432 235.675 332.432 235.675 332.432C235.788 332.432 235.9 332.544 235.9 332.657C235.9 332.769 235.788 332.882 235.675 332.882C235.337 332.882 235 332.657 235 332.207V329.618H234.549C234.324 329.618 234.324 329.505 234.324 329.392C234.324 329.28 234.324 329.167 234.549 329.167H235V327.816C235 327.704 235.112 327.591 235.225 327.591C235.337 327.591 235.45 327.704 235.45 327.816V329.167H235.9C236.125 329.28 236.125 329.392 236.125 329.392Z" fill="#C7C7C7"/>
<path d="M240.29 330.631C240.29 329.955 239.727 329.618 239.164 329.618C238.489 329.618 238.039 330.068 238.039 330.631V332.657L237.926 332.77C237.926 332.77 237.813 332.77 237.813 332.657C237.813 332.657 237.813 332.657 237.813 332.544C237.813 332.544 237.813 332.544 237.813 332.432V330.406V330.293V327.591C237.813 327.479 237.926 327.366 238.039 327.366C238.151 327.366 238.264 327.479 238.264 327.591V329.505C238.489 329.167 238.939 328.942 239.389 328.942C240.177 328.942 240.853 329.505 240.853 330.406V332.432C240.853 332.544 240.74 332.657 240.628 332.657C240.515 332.657 240.402 332.544 240.402 332.432V330.631H240.29Z" fill="#C7C7C7"/>
<path d="M245.919 329.28C246.819 329.28 247.607 330.068 247.607 331.081C247.607 332.094 246.819 332.882 245.919 332.882C245.018 332.882 244.23 332.094 244.23 331.081C244.23 330.068 244.905 329.28 245.919 329.28ZM245.919 332.432C246.594 332.432 247.269 331.756 247.269 330.968C247.269 330.18 246.707 329.505 245.919 329.505C245.131 329.505 244.568 330.18 244.568 330.968C244.568 331.869 245.131 332.432 245.919 332.432Z" fill="#C7C7C7"/>
<path d="M248.733 329.393C248.733 329.28 248.845 329.167 248.958 329.167C249.071 329.167 249.071 329.28 249.071 329.393V330.181V330.068C249.296 329.618 249.859 329.167 250.534 329.167C250.647 329.167 250.759 329.28 250.759 329.393C250.759 329.505 250.647 329.618 250.534 329.618C250.084 329.618 249.746 329.843 249.521 330.181C249.296 330.518 249.183 330.856 249.071 330.969C249.071 330.969 249.071 330.969 249.071 331.081V332.657C249.071 332.77 248.958 332.882 248.958 332.882C248.845 332.882 248.733 332.77 248.733 332.657V329.393Z" fill="#C7C7C7"/>
<path d="M254.699 332.094C254.361 332.544 253.911 332.77 253.348 332.77C252.335 332.77 251.659 331.982 251.659 330.968C251.659 329.955 252.447 329.167 253.348 329.167C253.911 329.167 254.361 329.392 254.699 329.843V327.816C254.699 327.704 254.811 327.591 254.924 327.591C255.036 327.591 255.149 327.704 255.149 327.816V330.856V330.968V332.544C255.149 332.657 255.036 332.77 254.924 332.77C254.811 332.77 254.699 332.657 254.699 332.544V332.094ZM254.699 331.081V330.968C254.699 330.18 254.023 329.618 253.348 329.618C252.56 329.618 251.997 330.293 251.997 331.081C251.997 331.869 252.672 332.544 253.348 332.544C254.023 332.432 254.586 331.869 254.699 331.081Z" fill="#C7C7C7"/>
<path d="M256.275 331.081C256.275 330.068 257.063 329.28 257.964 329.28C258.864 329.28 259.652 329.955 259.652 330.968C259.652 331.081 259.54 331.081 259.427 331.081H256.5C256.5 331.869 257.176 332.432 257.851 332.432C258.301 332.432 258.752 332.207 258.977 331.756C258.977 331.644 259.089 331.644 259.202 331.644C259.315 331.756 259.315 331.756 259.315 331.869C258.977 332.319 258.527 332.657 257.851 332.657C257.063 332.882 256.275 331.982 256.275 331.081ZM256.613 330.743H259.315C259.202 330.068 258.639 329.618 257.964 329.618C257.288 329.618 256.725 330.068 256.613 330.743Z" fill="#C7C7C7"/>
<path d="M260.778 329.393C260.778 329.28 260.891 329.167 261.003 329.167C261.116 329.167 261.116 329.28 261.116 329.393V330.181V330.068C261.341 329.618 261.904 329.167 262.579 329.167C262.692 329.167 262.804 329.28 262.804 329.393C262.804 329.505 262.692 329.618 262.579 329.618C262.129 329.618 261.791 329.843 261.566 330.181C261.341 330.518 261.228 330.856 261.116 330.969C261.116 330.969 261.116 330.969 261.116 331.081V332.657C261.116 332.77 261.003 332.882 261.003 332.882C260.891 332.882 260.778 332.77 260.778 332.657V329.393Z" fill="#C7C7C7"/>
<path d="M269.107 332.094C268.769 332.544 268.319 332.77 267.756 332.77C266.743 332.77 266.068 331.982 266.068 330.968C266.068 329.955 266.856 329.167 267.756 329.167C268.319 329.167 268.769 329.392 269.107 329.843V327.816C269.107 327.704 269.22 327.591 269.332 327.591C269.445 327.591 269.557 327.704 269.557 327.816V330.856V330.968V332.544C269.557 332.657 269.445 332.77 269.332 332.77C269.22 332.77 269.107 332.657 269.107 332.544V332.094ZM269.107 331.081V330.968C269.107 330.18 268.432 329.618 267.756 329.618C266.968 329.618 266.406 330.293 266.406 331.081C266.406 331.869 267.081 332.544 267.756 332.544C268.432 332.432 268.995 331.869 269.107 331.081Z" fill="#C7C7C7"/>
<path d="M270.684 331.081C270.684 330.068 271.472 329.28 272.372 329.28C273.273 329.28 274.061 329.955 274.061 330.968C274.061 331.081 273.948 331.081 273.836 331.081H271.022C271.022 331.869 271.697 332.432 272.372 332.432C272.823 332.432 273.273 332.207 273.498 331.756C273.498 331.644 273.611 331.644 273.723 331.644C273.836 331.756 273.836 331.756 273.836 331.869C273.498 332.319 273.048 332.657 272.372 332.657C271.472 332.882 270.684 331.982 270.684 331.081ZM271.022 330.743H273.723C273.611 330.068 273.048 329.618 272.372 329.618C271.697 329.618 271.134 330.068 271.022 330.743Z" fill="#C7C7C7"/>
<path d="M276.312 329.392C276.312 329.505 276.199 329.618 276.086 329.618H275.636V332.207C275.636 332.432 275.861 332.432 275.861 332.432C275.974 332.432 276.086 332.544 276.086 332.657C276.086 332.769 275.974 332.882 275.861 332.882C275.524 332.882 275.186 332.657 275.186 332.207V329.618H274.736C274.511 329.618 274.511 329.505 274.511 329.392C274.511 329.28 274.511 329.167 274.736 329.167H275.186V327.816C275.186 327.704 275.298 327.591 275.411 327.591C275.524 327.591 275.636 327.704 275.636 327.816V329.167H276.086C276.199 329.28 276.312 329.392 276.312 329.392Z" fill="#C7C7C7"/>
<path d="M280.702 329.393V332.657C280.702 332.77 280.59 332.882 280.477 332.882C280.365 332.882 280.252 332.77 280.252 332.657V332.094C279.914 332.544 279.464 332.77 278.901 332.77C278.001 332.77 277.213 331.982 277.213 330.968C277.213 329.955 278.001 329.167 278.901 329.167C279.464 329.167 279.914 329.392 280.252 329.843V329.28C280.252 329.167 280.365 329.055 280.477 329.055C280.702 329.28 280.702 329.28 280.702 329.393ZM280.365 331.081C280.365 330.293 279.802 329.618 279.014 329.618C278.338 329.618 277.663 330.293 277.663 331.081C277.663 331.869 278.226 332.544 279.014 332.544C279.802 332.432 280.365 331.869 280.365 331.081Z" fill="#C7C7C7"/>
<path d="M282.278 328.267C282.278 328.154 282.391 328.042 282.503 328.042C282.616 328.042 282.728 328.154 282.728 328.267V328.379C282.728 328.492 282.616 328.605 282.503 328.605C282.391 328.605 282.278 328.492 282.278 328.379V328.267ZM282.278 329.393C282.278 329.28 282.391 329.167 282.503 329.167C282.616 329.167 282.728 329.28 282.728 329.393V332.657C282.728 332.77 282.616 332.882 282.503 332.882C282.391 332.882 282.278 332.77 282.278 332.657V329.393Z" fill="#C7C7C7"/>
<path d="M284.192 327.929C284.192 327.817 284.305 327.704 284.417 327.704C284.53 327.704 284.642 327.817 284.642 327.929V332.657C284.642 332.77 284.53 332.882 284.417 332.882C284.305 332.882 284.192 332.77 284.192 332.657V327.929Z" fill="#C7C7C7"/>
<path d="M285.768 332.094C285.88 331.982 285.88 331.982 285.993 332.094C286.218 332.319 286.668 332.545 287.119 332.545C287.344 332.545 287.682 332.432 287.794 332.319C288.019 332.207 288.019 332.094 288.019 331.869C288.019 331.757 287.907 331.531 287.794 331.419C287.682 331.306 287.344 331.194 287.006 331.194C286.668 331.081 286.443 331.081 286.218 330.969C285.993 330.856 285.88 330.631 285.88 330.293C285.88 329.955 285.993 329.73 286.218 329.618C286.443 329.505 286.781 329.393 287.119 329.393C287.569 329.393 287.907 329.618 288.132 329.73C288.244 329.843 288.244 329.843 288.132 329.955C288.132 330.068 288.019 330.068 287.907 329.955C287.682 329.73 287.344 329.618 287.006 329.618C286.668 329.618 286.443 329.73 286.331 329.843C286.218 329.955 286.106 330.068 286.106 330.293C286.106 330.406 286.218 330.518 286.331 330.631C286.443 330.743 286.781 330.856 287.006 330.856C287.344 330.856 287.682 330.969 287.907 331.194C288.132 331.306 288.357 331.644 288.357 331.869C288.357 332.207 288.244 332.432 287.907 332.545C287.682 332.77 287.344 332.882 287.006 332.882C286.443 332.882 285.993 332.657 285.655 332.319C285.655 332.207 285.655 332.207 285.768 332.094Z" fill="#C7C7C7"/>
<path d="M289.821 332.094C290.046 332.094 290.159 332.207 290.159 332.432C290.159 332.657 290.046 332.77 289.821 332.77C289.596 332.77 289.483 332.657 289.483 332.432C289.483 332.319 289.708 332.094 289.821 332.094Z" fill="#C7C7C7"/>
<path d="M370.646 409.655L367.944 425.752L349.821 523.462H346.894L360.065 425.752L361.978 409.655H370.646Z" fill="#DBDBDB"/>
<path d="M361.979 409.655H370.647L367.945 425.752H360.065L361.979 409.655Z" fill="#A6A6A6"/>
<path d="M427.382 523.462H424.455L406.444 425.752L403.742 409.655H412.297L414.211 425.752L427.382 523.462Z" fill="#999999"/>
<path d="M412.298 409.655L414.211 425.752H406.444L403.742 409.655H412.298Z" fill="#A6A6A6"/>
<path d="M481.754 523.462H478.827L460.703 425.752L458.002 409.655H466.557L468.583 425.752L481.754 523.462Z" fill="#999999"/>
<path d="M468.583 425.752H460.703L458.001 409.655H466.556L468.583 425.752Z" fill="#A6A6A6"/>
<path d="M477.138 417.197H344.419V403.238H394.062L410.835 330.518H472.073L477.138 417.197Z" fill="#999999"/>
<path d="M477.138 417.197H469.821L465.093 330.518H472.073L477.138 417.197Z" fill="#A6A6A6"/>
<path d="M331.472 533.705C333.949 534.606 407.456 534.606 410.271 532.805C410.608 532.58 410.608 523.687 410.834 516.82C411.171 506.464 397.213 460.085 397.213 460.085L351.622 462.336L364.23 509.053C364.23 509.053 353.761 513.668 345.093 517.833C339.802 520.31 335.074 522.674 334.061 523.462C331.135 525.6 328.883 532.805 331.472 533.705Z" fill="#F7A9A0"/>
<path d="M331.473 533.705C333.949 534.606 407.457 534.606 410.271 532.805C410.609 532.58 410.722 525.938 410.834 516.82C392.598 520.535 344.081 526.388 342.73 522.561C342.167 520.985 343.405 519.296 345.094 517.72C339.803 520.197 335.075 522.561 334.062 523.349C331.135 525.6 328.884 532.805 331.473 533.705Z" fill="#263238"/>
<path d="M440.327 387.703C431.321 396.709 392.71 415.17 389.783 421.587C387.194 427.328 405.092 488.79 405.092 488.79L360.965 497.233C360.965 497.233 334.512 425.301 341.153 403.125C347.457 382.525 417.925 342.225 417.925 342.225H446.293C446.293 342.225 458.113 370.03 440.327 387.703Z" fill="#F7A9A0"/>
<path opacity="0.1" d="M350.721 389.729C366.931 395.583 389.22 405.039 405.205 410.104C417.925 402.337 434.81 393.219 440.439 387.703C458.225 370.03 446.405 342.225 446.405 342.225H418.038C418.038 342.225 371.547 368.679 350.721 389.729Z" fill="black"/>
<path d="M242.994 520.873C245.583 521.436 318.415 511.529 320.891 509.503C321.229 509.278 320.441 502.636 319.315 493.631L332.261 438.585L284.306 444.438L269.222 491.717C269.222 491.717 262.468 498.134 254.476 503.312C249.523 506.464 245.245 509.391 244.232 510.404C241.643 512.88 240.404 520.31 242.994 520.873Z" fill="#F7A9A0"/>
<path d="M242.993 520.873C245.582 521.436 318.414 511.529 320.891 509.503C321.229 509.278 320.441 502.637 319.315 493.631C301.754 499.822 254.475 512.092 252.561 508.49C251.773 507.027 252.786 505.226 254.25 503.425C249.297 506.576 245.019 509.503 244.006 510.516C241.642 512.88 240.404 520.31 242.993 520.873Z" fill="#263238"/>
<path d="M274.175 475.845L321.566 484.175L341.153 424.288C340.591 403.913 343.517 396.484 355.112 392.882C374.699 386.803 422.428 409.204 444.154 394.232C461.715 382.075 447.756 342.225 447.756 342.225H396.988C396.988 342.225 390.909 349.655 389.671 354.045C389.671 354.045 326.745 349.205 312.673 367.103C293.537 390.968 274.175 475.845 274.175 475.845Z" fill="#F7A9A0"/>
<path d="M377.852 393.219C372.899 392.206 367.833 391.643 362.655 391.643C360.066 391.643 357.477 391.868 355 392.431C353.762 392.656 352.524 393.106 351.285 393.669C350.047 394.232 348.921 394.795 347.908 395.583C346.783 396.371 345.882 397.272 344.981 398.285C344.193 399.298 343.518 400.423 342.955 401.662C341.942 404.026 341.379 406.615 341.041 409.204C340.479 414.269 340.591 419.448 340.929 424.513C340.929 421.924 341.041 419.448 341.154 416.859C341.267 414.382 341.492 411.793 341.829 409.316C342.28 406.84 342.73 404.363 343.743 402.112C344.756 399.861 346.332 397.947 348.358 396.596C349.372 395.921 350.497 395.245 351.623 394.795C352.749 394.232 353.874 393.894 355.113 393.669C357.589 393.106 360.066 392.881 362.542 392.769C365.019 392.656 367.608 392.656 370.084 392.881C372.899 392.656 375.375 392.994 377.852 393.219Z" fill="#263238"/>
<path d="M447.531 342.113C447.531 342.113 461.377 378.248 447.531 391.531C433.685 404.814 417.475 402.562 378.751 394.232C378.751 394.232 358.939 369.129 347.232 364.064C335.525 358.998 324.718 358.548 324.718 358.548C324.718 358.548 347.232 351.231 389.22 352.807C389.22 352.807 392.372 346.165 396.762 342.113H447.531Z" fill="#263238"/>
<path d="M398.452 315.546C401.379 317.798 404.193 319.486 406.895 320.837C402.28 313.07 402.955 295.622 403.518 298.098C406.219 310.03 413.649 323.088 416.576 323.764C424.231 324.777 431.21 322.638 437.063 319.486C431.097 310.706 431.435 292.92 431.773 294.046C436.163 305.64 445.056 312.394 446.632 312.394C452.373 306.879 455.412 301.363 454.624 300.8C448.658 296.747 443.592 286.278 438.977 275.247C434.474 264.327 432.11 253.971 425.806 244.177C419.953 235.284 408.358 233.596 401.717 238.099C384.381 250.031 394.737 312.62 398.452 315.546Z" fill="#263238"/>
<path d="M416.463 238.549C421.304 239.675 425.244 244.065 427.72 248.117C431.097 253.521 433.236 259.6 436.05 265.341C441.453 276.597 448.32 287.066 456.988 296.072C457.213 296.297 456.875 296.522 456.65 296.41C447.307 289.43 440.891 279.299 435.712 268.943C433.011 263.652 430.985 258.136 428.395 252.733C427.045 249.806 425.356 246.992 423.33 244.515C421.304 242.151 418.94 240.688 416.125 239.337C415.788 239.112 416.013 238.436 416.463 238.549Z" fill="#263238"/>
<path d="M351.735 257.348L364.005 287.404C364.456 288.305 364.118 289.093 363.217 289.205L347.12 291.457C346.219 291.569 345.094 291.007 344.643 290.106L332.373 260.05C331.923 259.149 332.261 258.362 333.161 258.249L349.259 255.998C350.159 255.885 351.285 256.448 351.735 257.348Z" fill="#37474F"/>
<path d="M349.821 257.574L362.092 287.63C362.542 288.53 362.204 289.318 361.304 289.431L345.206 291.682C344.306 291.795 343.18 291.232 342.73 290.331L330.46 260.275C330.009 259.375 330.347 258.587 331.248 258.474L347.345 256.223C348.246 256.11 349.371 256.673 349.821 257.574Z" fill="#455A64"/>
<path d="M345.656 259.6C345.769 260.388 346.444 260.838 347.232 260.725C348.02 260.613 348.47 259.938 348.358 259.15C348.245 258.362 347.57 257.911 346.782 258.024C345.994 258.136 345.544 258.924 345.656 259.6Z" fill="#263238"/>
<path d="M410.159 297.198C403.968 317.911 387.308 346.053 378.865 347.404C374.812 348.079 367.833 350.105 361.867 346.278C348.922 337.948 336.426 320.162 332.824 309.355C331.586 305.528 349.372 294.158 352.636 296.973C360.291 303.502 370.197 317.01 371.323 316.672C375.6 315.659 390.347 299.112 400.703 287.404C413.199 273.446 412.636 288.98 410.159 297.198Z" fill="#F7A9A0"/>
<path d="M329.335 289.206C330.123 280.988 331.699 278.962 328.659 271.645C326.746 266.804 328.884 263.54 333.05 267.03C339.804 272.771 341.042 283.577 340.367 287.517L329.335 289.206Z" fill="#F7A9A0"/>
<path d="M334.287 312.733C334.287 312.733 329.109 302.151 329.109 293.258C329.109 287.067 330.573 273.784 346.445 264.44C350.16 262.189 357.139 261.739 352.298 267.592C348.921 271.757 345.432 273.333 343.856 276.148C343.856 276.148 352.749 276.598 354.775 280.425C355.676 282.114 358.152 286.842 359.503 290.894C359.503 290.894 358.715 291.457 357.589 291.907C357.589 291.907 359.39 295.622 357.364 301.476L334.287 312.733Z" fill="#F7A9A0"/>
<path d="M330.01 287.404C332.149 284.928 336.764 279.975 341.943 277.048C347.684 273.896 359.616 269.393 361.98 273.671C363.668 276.823 359.278 278.962 359.278 278.962C359.278 278.962 364.569 278.174 365.47 281.326C366.257 284.253 362.768 285.603 362.768 285.603C362.768 285.603 366.145 285.603 366.37 288.643C366.708 292.132 359.616 291.457 356.914 295.284C356.126 296.072 330.01 287.404 330.01 287.404Z" fill="#F7A9A0"/>
<path d="M344.194 283.69C346.558 281.776 353.087 278.737 359.053 278.849C359.165 278.849 359.278 278.962 359.165 278.962C352.524 280.2 346.67 282.564 344.194 283.69C344.194 283.802 344.194 283.69 344.194 283.69Z" fill="#263238"/>
<path d="M347.571 289.431C349.822 287.967 356.689 285.153 362.655 285.491C362.768 285.491 362.88 285.603 362.768 285.603C355.789 286.616 350.16 288.53 347.571 289.431C347.571 289.543 347.571 289.431 347.571 289.431Z" fill="#263238"/>
<path d="M333.838 317.573C333.838 317.573 354.1 346.053 363.669 348.304C373.237 350.556 378.64 348.867 381.905 347.854C382.918 347.516 384.044 346.728 385.169 345.603C393.387 337.723 406.22 312.169 410.948 298.098C414.437 287.629 412.636 278.849 405.432 282.789C403.631 283.802 401.604 285.603 399.128 288.305C386.97 302.038 372.449 315.547 371.661 315.321C370.873 315.096 360.967 303.614 360.967 303.614L333.838 317.573Z" fill="#FE9868"/>
<path d="M338.565 322.526C339.466 321.85 348.696 316.56 350.723 315.434C352.749 314.308 360.966 309.693 363.218 308.792C363.33 308.792 363.443 308.905 363.33 308.905C361.417 310.256 353.086 314.871 351.06 316.109C349.034 317.235 339.803 322.301 338.678 322.751C338.565 322.751 338.565 322.638 338.565 322.526Z" fill="#263238"/>
<path opacity="0.1" d="M356.914 344.139C359.503 346.278 361.754 347.741 363.781 348.192C373.349 350.443 378.752 348.755 382.017 347.741C383.03 347.404 384.156 346.616 385.281 345.49C393.499 337.61 406.332 312.057 411.06 297.986C414.212 288.417 412.973 280.425 407.458 281.888C394.737 297.536 370.535 327.366 356.914 344.139Z" fill="black"/>
<path d="M392.823 327.366L390.684 348.529L453.948 349.768C453.948 349.768 439.314 296.41 427.832 284.59C420.064 276.598 411.284 277.498 405.768 283.352C404.417 284.815 389.896 302.489 388.32 311.156C387.082 318.811 392.823 327.366 392.823 327.366Z" fill="#FE9868"/>
<path d="M400.253 324.89C403.067 325.115 405.881 325.34 408.583 326.015C409.934 326.353 411.285 326.691 412.636 327.028C413.311 327.254 413.986 327.366 414.662 327.591C415.337 327.816 416.125 327.929 416.801 327.929C416.913 327.929 416.913 328.042 416.801 328.042C416.125 328.042 415.45 328.154 414.774 328.042C414.099 328.042 413.424 327.816 412.861 327.704C411.51 327.366 410.159 327.028 408.696 326.691C405.881 326.015 403.18 325.453 400.366 325.002C400.14 325.115 400.14 324.89 400.253 324.89Z" fill="#263238"/>
<path d="M395.412 327.253C397.213 326.916 399.014 326.803 400.928 326.803C401.829 326.803 402.729 326.803 403.63 326.916C404.08 326.916 404.53 327.028 404.98 327.028C405.431 327.141 405.881 327.253 406.444 327.253V327.366C405.994 327.366 405.543 327.366 405.093 327.366C404.643 327.366 404.192 327.366 403.742 327.366C402.842 327.366 401.941 327.366 401.041 327.366C399.239 327.366 397.438 327.366 395.525 327.366C395.3 327.479 395.3 327.253 395.412 327.253Z" fill="#263238"/>
<path d="M426.031 281.776C448.432 293.145 473.985 318.698 472.522 327.254C470.833 336.709 438.751 320.724 439.089 319.261C439.314 318.023 432.672 307.892 422.991 293.258C413.198 278.398 420.515 278.961 426.031 281.776Z" fill="#FE9868"/>
<path d="M472.522 327.254C470.608 333.895 460.702 338.285 436.838 351.794C433.573 353.707 414.099 333.895 417.476 331.756C421.753 329.055 439.089 319.261 440.44 318.698C451.922 314.196 473.873 322.751 472.522 327.254Z" fill="#D3766A"/>
<path d="M422.203 328.942C422.203 328.942 411.959 334.233 407.456 338.623C401.378 344.589 398.564 352.131 397.55 355.396C395.524 362.15 395.186 380.049 400.365 381.062C404.98 381.962 404.305 363.613 404.305 363.613C404.305 363.613 401.941 382.413 407.682 382.413C413.423 382.413 411.509 361.25 411.509 361.25C411.509 361.25 409.483 380.611 415.449 379.711C419.952 379.035 419.276 359.786 419.276 359.786C419.276 359.786 417.588 376.446 422.316 375.884C427.494 375.321 427.944 357.422 427.944 357.422C439.651 354.158 443.816 347.741 446.293 342.901C446.968 341.775 422.203 328.942 422.203 328.942Z" fill="#F7A9A0"/>
<path d="M404.867 357.084C404.529 359.223 404.079 361.475 403.967 363.726C403.854 365.977 403.741 368.116 403.741 370.368C403.854 375.771 404.755 379.261 404.755 379.035C403.967 373.97 404.417 365.977 404.642 363.726C404.642 361.587 404.755 359.336 404.867 357.084Z" fill="#263238"/>
<path d="M412.86 357.535C412.522 360.349 412.072 363.163 411.847 365.977C411.622 368.791 411.622 371.493 411.622 374.307C411.622 374.532 411.735 374.42 411.735 374.195C411.847 371.381 412.185 368.791 412.41 365.977C412.635 363.163 412.635 360.349 412.86 357.535Z" fill="#263238"/>
<path d="M419.839 356.747C419.051 361.024 419.164 365.414 419.276 369.805C419.276 370.03 419.389 369.917 419.389 369.692C419.501 365.302 419.501 361.925 419.952 356.859C419.952 356.634 419.839 356.634 419.839 356.747Z" fill="#263238"/>
<path d="M417.138 329.505C417.138 329.505 444.604 350.443 444.83 350.33C445.167 350.218 472.071 334.345 472.522 327.253C472.972 320.162 450.683 314.871 440.552 318.698C430.421 322.638 417.138 329.505 417.138 329.505Z" fill="#FE9868"/>
<path d="M426.481 326.465C427.607 327.141 436.162 334.12 438.076 335.696C439.877 337.272 447.531 343.576 449.332 345.264C449.445 345.377 449.332 345.49 449.22 345.377C447.194 344.026 439.426 337.61 437.513 336.146C435.599 334.57 427.156 327.478 426.368 326.578C426.256 326.465 426.368 326.465 426.481 326.465Z" fill="#263238"/>
<path d="M452.709 317.685C450.345 317.348 443.929 316.785 438.638 319.374C438.526 319.374 438.638 319.486 438.638 319.486C443.141 317.91 450.345 317.573 452.709 317.685C452.709 317.798 452.822 317.685 452.709 317.685Z" fill="#263238"/>
<path d="M418.825 330.743L417.137 329.392V329.505L422.54 326.803C424.341 325.903 426.142 325.002 428.056 324.214C431.658 322.526 435.373 320.837 439.2 319.374L439.65 319.149L439.425 318.698C437.287 314.871 435.148 311.156 432.896 307.441C430.532 303.727 428.168 300.237 425.467 296.747C427.831 300.35 430.195 304.064 432.333 307.779C434.472 311.494 436.724 315.209 438.75 319.036L438.975 318.473C435.26 320.049 431.545 321.738 427.943 323.539C426.142 324.439 424.341 325.452 422.54 326.353C420.739 327.254 419.05 328.267 417.249 329.392L417.137 329.505L417.249 329.618L418.825 330.743Z" fill="#263238"/>
<path d="M430.87 304.965C430.195 304.064 429.52 303.276 428.732 302.488C427.944 301.7 427.156 301.025 426.255 300.462C426.818 301.363 427.606 302.151 428.281 302.939C428.619 303.276 429.069 303.727 429.52 304.064C429.97 304.402 430.42 304.74 430.87 304.965Z" fill="#263238"/>
<path d="M452.822 345.377C451.696 345.827 450.57 346.503 449.557 347.178C448.544 347.854 447.531 348.529 446.518 349.43C447.643 348.979 448.769 348.304 449.782 347.741C450.795 346.953 451.921 346.165 452.822 345.377Z" fill="#263238"/>
<path d="M418.376 281.55C418.039 283.239 414.099 290.781 409.033 290.556C406.444 290.443 406.332 281.325 406.332 281.325L406.219 280.65L404.418 271.194L417.251 263.652C417.251 263.652 418.376 281.1 418.376 281.55Z" fill="#FFBBB4"/>
<path d="M417.701 270.181C414.662 277.048 408.921 279.749 406.219 280.65L404.418 271.194L417.251 263.652C417.251 263.652 417.476 266.691 417.701 270.181Z" fill="#263238"/>
<path d="M391.246 256.785C389.783 273.558 399.689 276.372 403.291 276.597C406.555 276.935 417.812 277.385 420.964 260.95C424.116 244.403 416.799 238.436 409.37 237.423C401.828 236.41 392.709 240.012 391.246 256.785Z" fill="#F7A9A0"/>
<path d="M394.06 253.07C394.511 253.07 394.848 252.958 395.186 252.845C395.636 252.732 395.974 252.732 396.312 252.395C396.537 252.17 396.537 251.832 396.312 251.719C395.974 251.269 395.411 251.269 394.848 251.382C394.286 251.494 393.835 251.719 393.498 252.057C393.16 252.395 393.498 253.07 394.06 253.07Z" fill="#263238"/>
<path d="M404.867 253.408C404.529 253.295 404.079 253.183 403.741 253.183C403.291 253.07 402.953 253.07 402.616 252.733C402.503 252.507 402.503 252.17 402.616 252.057C402.953 251.607 403.516 251.607 404.079 251.719C404.642 251.832 405.092 252.057 405.43 252.507C405.768 252.845 405.317 253.521 404.867 253.408Z" fill="#263238"/>
<path d="M402.503 257.573C402.503 257.573 402.503 257.685 402.503 257.573C402.503 258.811 402.616 260.162 403.629 260.612V260.725C402.278 260.387 402.165 258.699 402.503 257.573Z" fill="#263238"/>
<path d="M403.517 256.447C405.318 256.447 405.318 260.049 403.629 260.162C401.941 260.162 402.053 256.447 403.517 256.447Z" fill="#263238"/>
<path d="M404.305 256.672C404.643 256.897 404.98 257.235 405.318 257.348C405.768 257.348 406.106 257.01 406.444 256.672H406.556C406.556 257.348 406.331 258.136 405.543 258.248C404.868 258.361 404.305 257.685 404.192 257.01C404.08 256.785 404.192 256.56 404.305 256.672Z" fill="#263238"/>
<path d="M396.199 257.348C396.199 257.235 396.086 257.348 396.199 257.348C396.086 258.586 395.974 259.937 394.961 260.275V260.387C396.199 260.162 396.424 258.361 396.199 257.348Z" fill="#263238"/>
<path d="M395.186 256.11C393.385 255.997 393.159 259.599 394.848 259.825C396.537 259.937 396.649 256.222 395.186 256.11Z" fill="#263238"/>
<path d="M394.398 256.335C394.06 256.56 393.835 256.898 393.497 256.898C393.047 256.898 392.822 256.447 392.597 256.11C392.597 256.11 392.597 256.11 392.484 256.11C392.484 256.785 392.597 257.573 393.272 257.686C393.835 257.798 394.398 257.235 394.623 256.56C394.623 256.447 394.51 256.222 394.398 256.335Z" fill="#263238"/>
<path d="M402.841 266.579C402.616 266.916 402.391 267.367 402.053 267.479C401.716 267.592 401.153 267.479 400.815 267.479C400.815 267.479 400.703 267.479 400.815 267.592C401.153 267.929 401.828 268.042 402.391 267.929C402.841 267.704 403.067 267.254 403.067 266.804C402.954 266.579 402.841 266.579 402.841 266.579Z" fill="#263238"/>
<path d="M397.664 262.413C397.664 262.413 397.438 264.102 397.326 264.89C397.326 265.003 399.802 265.565 401.603 263.652C401.716 263.539 401.603 263.539 401.491 263.539C400.365 264.327 399.239 264.44 398.001 264.44C398.001 264.215 398.564 261.513 398.451 261.513C398.001 261.513 397.101 261.738 396.65 261.851C397.101 258.248 398.226 254.871 398.564 251.269C398.564 251.156 398.339 251.044 398.339 251.156C396.988 254.759 396.313 258.811 395.75 262.526C395.637 263.089 397.326 262.526 397.664 262.413Z" fill="#263238"/>
<path d="M398.452 264.89C398.452 264.89 399.127 265.791 400.14 266.241C400.478 266.353 400.928 266.466 401.266 266.353C402.054 266.128 402.166 265.34 401.941 264.778C401.829 264.215 401.603 263.764 401.603 263.764C401.603 263.764 400.478 264.778 398.452 264.89Z" fill="#263238"/>
<path d="M400.14 266.241C400.478 266.353 400.928 266.466 401.266 266.353C402.054 266.128 402.166 265.34 401.941 264.777C401.153 264.777 400.253 265.34 400.14 266.241Z" fill="#FF9BBC"/>
<path d="M419.95 260.5C416.798 260.95 415.898 253.745 415.898 253.745C415.898 253.745 402.502 251.719 401.151 240.8C401.151 240.8 399.012 247.779 392.033 251.044C392.033 251.044 392.258 239.111 401.714 236.635C401.714 236.635 413.421 232.132 420.175 241.363C426.929 250.594 422.089 260.162 419.95 260.5Z" fill="#263238"/>
<path d="M401.152 240.012C401.039 241.701 401.264 243.389 401.827 244.965C402.39 246.541 403.29 248.117 404.416 249.355C404.641 249.693 404.979 249.918 405.317 250.256L405.767 250.706C405.88 250.819 406.105 250.931 406.33 251.044C406.668 251.269 407.005 251.494 407.343 251.719C407.681 251.945 408.131 252.17 408.469 252.282C408.694 252.395 408.806 252.507 409.032 252.507L409.594 252.733L410.833 253.183C411.621 253.408 412.521 253.521 413.309 253.746C412.521 253.408 411.733 253.183 410.945 252.845L409.819 252.282L409.257 252.057C409.032 251.945 408.919 251.832 408.694 251.719C408.356 251.494 408.018 251.269 407.681 251.044C407.343 250.819 407.005 250.594 406.668 250.369L406.217 250.031L405.767 249.581C405.429 249.243 405.204 249.018 404.866 248.68C403.741 247.554 402.953 246.091 402.277 244.628C401.94 243.84 401.715 243.052 401.489 242.264C401.264 241.701 401.152 240.913 401.152 240.012Z" fill="#263238"/>
<path d="M417.925 259.937C417.925 259.937 421.64 254.646 424.004 255.997C426.368 257.348 423.666 264.89 420.852 266.016C418.038 267.029 417.025 264.44 417.025 264.44L417.925 259.937Z" fill="#F7A9A0"/>
<path d="M423.215 258.136C423.215 258.136 423.215 258.249 423.215 258.136C421.302 259.037 420.289 260.838 419.501 262.752C420.063 262.076 420.851 261.626 421.864 262.301V262.414C421.076 262.189 420.514 262.414 419.951 262.977C419.613 263.427 419.275 263.99 419.05 264.553C418.938 264.778 418.6 264.665 418.713 264.44C418.487 261.851 420.514 258.361 423.215 258.136Z" fill="#263238"/>
<path d="M420.514 265.34C420.401 265.678 420.064 265.903 419.613 265.903C419.276 265.791 419.051 265.453 419.051 265.003C419.163 264.665 419.501 264.44 419.951 264.44C420.401 264.553 420.627 264.89 420.514 265.34Z" fill="#455A64"/>
<path d="M420.177 265.228C420.177 265.453 419.951 265.566 419.726 265.453C419.501 265.453 419.389 265.228 419.501 265.003C419.501 264.778 419.726 264.665 419.951 264.778C420.064 264.89 420.177 265.003 420.177 265.228Z" fill="#263238"/>
<path d="M421.752 264.44C421.639 264.665 421.414 264.89 421.076 264.778C420.851 264.665 420.626 264.44 420.739 264.102C420.851 263.877 421.076 263.652 421.414 263.765C421.639 263.877 421.864 264.215 421.752 264.44Z" fill="#455A64"/>
<path d="M426.931 282.226C426.931 282.226 418.714 295.059 409.37 294.946C401.941 294.833 401.378 286.053 401.378 286.053C401.378 286.053 405.768 279.411 414.999 278.849C421.753 278.511 426.931 282.226 426.931 282.226Z" fill="#F7A9A0"/>
<path d="M391.115 220.088C389.764 233.484 377.719 243.278 364.211 241.927C358.808 241.364 353.967 239 350.252 235.623L337.982 237.424L344.061 226.842C342.598 223.24 341.922 219.188 342.373 215.023C343.723 201.627 355.768 191.833 369.277 193.184C382.672 194.648 392.466 206.693 391.115 220.088Z" fill="white"/>
<path d="M391.115 220.088C390.552 224.591 388.976 228.981 386.162 232.471C385.487 233.371 384.699 234.159 383.911 235.06C383.01 235.848 382.222 236.636 381.322 237.199C379.521 238.549 377.494 239.675 375.468 240.463C373.329 241.364 371.078 241.814 368.827 242.039C367.701 242.152 366.575 242.152 365.449 242.152C364.324 242.152 363.198 242.039 362.072 241.814C357.57 241.026 353.405 238.887 349.915 235.848L350.253 235.96L337.983 237.874L337.082 237.987L337.532 237.199L343.611 226.617V227.067C340.684 220.088 341.36 211.758 345.074 205.229C346.988 201.964 349.577 199.15 352.729 197.011C355.881 194.873 359.483 193.634 363.198 193.071C366.913 192.621 370.74 192.959 374.23 194.085C377.72 195.323 380.984 197.236 383.686 199.826C389.089 205.004 391.903 212.771 391.115 220.088ZM391.115 220.088C391.903 212.658 389.089 205.004 383.686 199.938C380.984 197.349 377.72 195.435 374.23 194.422C370.74 193.297 366.913 193.071 363.311 193.634C359.708 194.197 356.219 195.548 353.179 197.574C350.14 199.713 347.664 202.415 345.862 205.567C344.061 208.719 343.048 212.321 342.71 215.923C342.485 219.525 343.048 223.24 344.399 226.617L344.512 226.842L344.399 227.067L338.208 237.649L337.757 236.973L350.027 235.285H350.253L350.365 235.397C353.63 238.437 357.682 240.576 362.072 241.476C363.198 241.701 364.324 241.814 365.337 241.926C366.463 242.039 367.588 241.926 368.714 241.926C370.965 241.701 373.217 241.364 375.243 240.463C377.382 239.675 379.408 238.662 381.097 237.311C381.997 236.636 382.785 235.848 383.686 235.172C384.474 234.384 385.262 233.596 385.937 232.696C388.864 228.981 390.552 224.591 391.115 220.088Z" fill="#FE9868"/>
<path d="M363.873 231.57L353.405 220.989L356.894 217.499L362.973 223.69L375.693 203.766L379.858 206.467L363.873 231.57Z" fill="#FE9868"/>
<path d="M61.3066 397.61C61.3066 397.61 50.0497 357.197 41.0441 343.464C32.0386 329.731 15.2657 314.646 15.2657 314.646C15.2657 314.646 15.6035 377.01 61.3066 397.61Z" fill="#FE9868"/>
<path d="M60.4059 396.934C56.5785 390.631 53.314 383.989 50.162 377.347C48.8112 370.143 47.1227 362.938 44.5336 356.072C44.5336 355.959 44.3085 355.959 44.3085 356.184C45.7719 362.601 47.573 368.905 49.1489 375.321C44.6462 365.528 40.256 355.509 34.8527 346.166C33.727 341.663 31.7007 337.273 29.6745 333.22C29.5619 333.108 29.4493 333.22 29.4493 333.333C30.9127 336.485 31.9258 339.749 32.939 343.014C30.3499 338.849 27.5356 334.909 24.3837 331.194C24.1586 330.969 23.8209 331.194 23.9334 331.419C31.1379 340.65 36.2035 351.231 40.9314 361.813C35.7532 356.297 31.1379 350.331 26.7477 344.139C26.7477 344.027 26.6351 344.139 26.6351 344.252C31.1379 351.344 36.2035 357.648 41.8319 363.839C45.3216 371.606 48.6987 379.486 52.8637 386.916C44.6462 379.936 38.2297 370.931 31.9259 362.151C31.8133 361.925 31.4756 362.151 31.5881 362.376C37.892 371.944 44.421 380.95 53.4266 388.041C55.2277 391.306 57.2539 394.458 59.5053 397.497C60.0682 397.948 60.7436 397.497 60.4059 396.934Z" fill="#263238"/>
<path d="M64.7958 401.212C64.7958 401.212 44.5333 363.951 50.3869 327.704C56.2405 291.569 62.5444 278.624 62.5444 278.624C62.5444 278.624 94.4015 335.021 64.7958 401.212Z" fill="#FE9868"/>
<path d="M73.0126 342.676C71.4367 353.145 68.5099 362.939 65.2454 372.845C65.1328 359.562 64.9076 346.278 64.5699 332.995C66.9339 324.89 68.0596 316.673 68.3973 308.23C68.3973 308.005 68.0596 308.005 68.0596 308.23C67.4967 315.434 66.1459 322.526 64.4574 329.506C64.1197 318.586 63.782 307.667 63.4442 296.635C63.4442 296.41 63.1065 296.41 63.1065 296.635C63.1065 313.746 63.1065 330.856 63.2191 347.967C60.63 341.325 58.9415 334.571 57.3655 327.705C57.3655 327.592 57.2529 327.705 57.2529 327.705C57.8158 335.697 60.2923 343.464 63.2191 350.781C63.3317 361.7 63.4442 372.62 63.6694 383.539C60.2923 371.944 56.5775 360.687 55.5644 348.417C55.5644 348.305 55.3392 348.305 55.3392 348.417C55.5644 361.926 59.0541 375.659 63.5568 388.492C63.5568 388.604 63.6694 388.717 63.7819 388.83C63.8945 392.77 64.0071 396.822 64.1197 400.762C64.1197 401.325 65.0202 401.325 65.0202 400.762C65.1328 392.544 65.2454 384.439 65.2454 376.222C69.7481 365.753 72.2246 354.046 73.2377 342.676C73.2377 342.564 73.1252 342.564 73.0126 342.676Z" fill="#263238"/>
<path d="M71.6618 336.823C70.9864 339.975 70.4235 343.464 70.1984 346.729C70.1984 346.841 70.3109 346.841 70.4235 346.729C71.2115 343.577 71.7743 340.2 72.1121 336.935C72.1121 336.71 71.7744 336.598 71.6618 336.823Z" fill="#263238"/>
<path d="M59.8421 309.581C59.8421 309.468 59.617 309.468 59.617 309.581C59.617 311.832 60.0673 314.196 60.6301 316.335C60.6301 316.56 60.9678 316.448 60.8552 316.222C60.5175 314.084 60.1798 311.832 59.8421 309.581Z" fill="#263238"/>
<path d="M72.113 404.139C72.113 404.139 71.325 365.19 82.4694 345.828C93.6137 326.466 112.188 316.672 112.188 316.672C112.188 316.672 104.758 385.227 72.113 404.139Z" fill="#FE9868"/>
<path d="M92.4884 370.818C87.7605 377.572 83.1451 384.101 77.4041 389.955C79.6555 381.962 82.2446 374.195 85.1714 366.428C91.4752 360.912 97.6666 355.284 101.494 347.741C101.606 347.629 101.381 347.516 101.269 347.629C97.1037 354.27 91.5878 359.561 85.8468 364.739C90.3496 353.145 95.5277 341.888 101.381 330.856C101.494 330.631 101.156 330.293 100.931 330.631C97.3288 336.372 94.0644 342.338 91.1376 348.417C92.1507 344.252 93.0512 339.974 94.0643 335.922C94.0643 335.809 93.9518 335.809 93.8392 335.922C91.813 341.1 89.8993 346.841 89.2239 352.469C85.2839 361.137 82.0194 370.03 79.4303 379.148C79.768 373.295 80.1058 367.554 80.6686 361.7C80.6686 361.587 80.4435 361.587 80.4435 361.7C79.2052 368.116 78.6424 374.758 78.7549 381.287C77.179 387.141 75.8281 392.994 74.7024 398.848C74.7024 398.96 74.9276 399.073 74.9276 398.96C75.4904 396.484 76.1658 394.007 76.8413 391.531H76.9538C83.1451 385.34 88.7736 378.473 92.4884 370.818C92.4884 370.818 92.6009 370.818 92.4884 370.818Z" fill="#263238"/>
<path d="M105.434 339.186C104.196 340.537 103.07 341.888 101.832 343.351C100.819 344.59 99.4678 345.715 98.5672 347.066C98.5672 347.066 98.5672 347.179 98.6798 347.179C100.143 346.278 101.269 344.815 102.395 343.464C103.52 342.113 104.646 340.762 105.547 339.299C105.659 339.186 105.546 339.074 105.434 339.186Z" fill="#263238"/>
<path d="M39.0178 399.298L40.4812 417.759L44.7588 473.481H81.7941L86.0717 417.759L87.5351 399.298C85.9591 399.298 63.4453 399.298 63.4453 399.298C63.4453 399.298 40.4812 399.298 39.0178 399.298Z" fill="#455A64"/>
<path d="M39.0182 399.298L40.4816 417.759H85.9596L87.423 399.298C85.847 399.298 63.3332 399.298 63.3332 399.298C63.3332 399.298 40.4816 399.298 39.0182 399.298Z" fill="#37474F"/>
<path d="M90.4719 404.457H35.6507V390.273H90.4719V404.457Z" fill="#455A64"/>
</svg>
