<svg width="130" height="197" viewBox="0 0 130 197" fill="none" xmlns="http://www.w3.org/2000/svg">
<g id="Group 1678">
<g id="Group">
<path id="Vector" d="M125.028 47.0532L107.482 59.3117C103.163 62.3254 97.2636 61.0629 94.4101 56.5016C91.5566 51.9403 92.752 45.7092 97.0708 42.6955L114.616 30.4369C118.935 27.4232 124.835 28.6857 127.688 33.247C130.542 37.8083 129.346 44.0394 125.028 47.0532Z" fill="#FACEA7"/>
</g>
<g id="Group_2">
<g id="Group_3">
<path id="Vector_2" d="M97.1499 129.035C101.045 169.761 76.6355 179.372 54.4244 180.065C20.9534 181.124 0.40044 116.98 9.19234 107.735C11.159 105.658 14.3595 106.554 22.573 102.481C28.9356 99.3047 32.9845 95.8023 34.6812 94.4176C41.3522 89.0417 67.8822 71.2851 83.4994 79.186C97.5356 86.2723 95.5304 112.256 97.1499 129.035Z" fill="#FACEA7"/>
</g>
</g>
<g id="Group_4">
<g id="Group_5">
<path id="Vector_3" d="M84.809 124.596C81.6855 143.982 67.3023 167.643 48.3303 168.254C19.7566 169.15 2.21136 114.252 9.69219 106.391C11.3503 104.64 14.0881 105.414 21.1062 101.871C26.5433 99.1421 29.9753 96.1691 31.4791 94.988C37.1862 90.386 59.8215 75.1951 73.1636 81.9557C85.156 87.9832 87.1226 110.383 84.809 124.596Z" fill="#F8BE91"/>
</g>
</g>
<g id="Group_6">
<g id="Group_7">
<path id="Vector_4" d="M17.984 169.761C11.6985 169.761 0.8629 165.77 0.8629 153.063V86.2724C0.8629 79.7155 5.99151 74.3396 12.2769 74.3396C18.5624 74.3396 23.691 79.7155 23.691 86.2724V153.063C23.691 159.62 17.984 169.761 17.984 169.761Z" fill="#FACEA7"/>
</g>
</g>
<g id="Group_8">
<g id="Group_9">
<path id="Vector_5" d="M23.6886 176.807C32.6971 176.807 39.9999 167.015 39.9999 154.937C39.9999 142.858 32.6971 133.067 23.6886 133.067C14.6801 133.067 7.37732 142.858 7.37732 154.937C7.37732 167.015 14.6801 176.807 23.6886 176.807Z" fill="#FACEA7"/>
</g>
</g>
<g id="Group_10">
<g id="Group_11">
<path id="Vector_6" d="M89.9756 169.761H11.0413V196.518H89.9756V169.761Z" fill="#FE9868"/>
</g>
</g>
<g id="Group_12">
<g id="Group_13">
<path id="Vector_7" d="M89.9756 192.568H11.0413V193.952H89.9756V192.568Z" fill="#ECECEC"/>
</g>
</g>
<g id="Group_14">
<g id="Group_15">
<path id="Vector_8" d="M13.4338 153.063V86.2724C13.4338 82.1183 15.4775 78.4937 18.5624 76.3352C16.75 75.0727 14.5906 74.3396 12.2769 74.3396C5.99151 74.3396 0.8629 79.7155 0.8629 86.2724V153.063C0.8629 165.77 11.6985 169.761 17.984 169.761C17.984 169.761 18.7552 168.376 19.7578 166.258C16.2102 163.693 13.4338 159.498 13.4338 153.063Z" fill="#F8BE91"/>
</g>
</g>
<g id="Group_16">
<g id="Group_17">
<path id="Vector_9" d="M89.9756 172.938H11.0413V174.323H89.9756V172.938Z" fill="#ECECEC"/>
</g>
</g>
<g id="Group_18">
<g id="Group_19">
<path id="Vector_10" d="M2.55908 98.5718H0.823837V97.798H2.55908C7.26352 97.798 11.1196 93.7254 11.1196 88.7568V82.6886H0.823837V81.9148H11.8523V88.7975C11.8908 94.1734 7.68769 98.5718 2.55908 98.5718Z" fill="#FCDBBF"/>
</g>
</g>
<g id="Group_20">
<g id="Group_21">
<g id="Group_22">
<g id="Group_23">
<g id="Group_24">
<g id="Group_25">
<path id="Vector_11" d="M102.546 164.547L26.0024 164.507C23.6888 164.507 21.7993 162.511 21.7993 160.067L21.8764 4.73798C21.8764 2.29441 23.7659 0.298828 26.0796 0.298828L102.623 0.339554C104.937 0.339554 106.826 2.33514 106.826 4.7787L106.749 160.108C106.749 162.552 104.86 164.547 102.546 164.547Z" fill="#455A64"/>
</g>
</g>
</g>
</g>
</g>
<g id="Group_26">
<g id="Group_27">
<g id="Group_28">
<path id="Vector_12" d="M100.464 143.941L28.0855 143.9C27.8156 143.9 27.5842 143.656 27.5842 143.371L27.6613 12.029C27.6613 11.7439 27.8927 11.4995 28.1626 11.4995L100.542 11.5402C100.812 11.5402 101.043 11.7846 101.043 12.0697L100.966 143.411C101.004 143.697 100.773 143.941 100.464 143.941Z" fill="white"/>
</g>
</g>
</g>
<g id="Group_29">
<g id="Group_30">
<g id="Group_31">
<g id="Group_32">
<g id="Group_33">
<path id="Vector_13" d="M75.5555 7.30386H51.0307C50.2595 7.30386 49.6425 6.65224 49.6425 5.83772C49.6425 5.0232 50.2595 4.37158 51.0307 4.37158H75.5555C76.3267 4.37158 76.9437 5.0232 76.9437 5.83772C76.9823 6.65224 76.3267 7.34458 75.5555 7.30386Z" fill="#FE9868"/>
</g>
</g>
</g>
</g>
</g>
<g id="Group_34">
<g id="Group_35">
<g id="Group_36">
<g id="Group_37">
<g id="Group_38">
<path id="Vector_14" d="M79.6042 7.34488C78.833 7.34488 78.216 6.69326 78.216 5.87874C78.216 5.06421 78.833 4.4126 79.6042 4.4126C80.3754 4.4126 80.9924 5.06421 80.9924 5.87874C80.9924 6.65253 80.3754 7.34488 79.6042 7.34488Z" fill="#FE9868"/>
</g>
</g>
</g>
</g>
</g>
</g>
<g id="Group_39">
<path id="Vector_15" d="M113.614 105.414L108.139 109.242C103.82 112.256 97.92 110.993 95.0665 106.432C92.213 101.871 93.4084 95.6395 97.7272 92.6258L103.203 88.7975C107.522 85.7838 113.422 87.0463 116.275 91.6076C119.129 96.2097 117.933 102.4 113.614 105.414Z" fill="#FACEA7"/>
</g>
<g id="Group_40">
<g id="Group_41">
<path id="Vector_16" d="M116.275 91.6073C116.198 91.4851 116.121 91.4037 116.044 91.2815C118.165 95.0283 117.123 99.9562 113.653 102.4L105.478 108.101C102.008 110.545 97.3031 109.608 94.8352 106.106C94.9123 106.228 94.9509 106.35 95.028 106.432C97.8815 110.993 103.781 112.255 108.1 109.242L113.576 105.413C117.933 102.4 119.129 96.2094 116.275 91.6073Z" fill="#F8BE91"/>
</g>
</g>
<g id="Group_42">
<g id="Group_43">
<path id="Vector_17" d="M104.09 107.165C103.936 107.165 103.82 107.165 103.666 107.124C102.895 107.002 102.201 106.554 101.738 105.902L97.4579 99.5898C96.571 98.2865 96.8023 96.4539 97.9977 95.4357L100.736 93.155C102.008 92.0962 103.589 91.6482 105.209 91.8925C106.905 92.1369 108.448 93.155 109.489 94.7026C111.61 97.7978 111.108 102.156 108.409 104.395L105.826 106.554C105.363 106.92 104.746 107.165 104.09 107.165ZM102.355 105.454C102.702 105.943 103.203 106.269 103.782 106.391C104.36 106.472 104.939 106.31 105.401 105.943L107.985 103.785C110.376 101.789 110.8 97.92 108.949 95.1506C108.024 93.7659 106.674 92.87 105.17 92.6663C103.782 92.4627 102.355 92.87 101.275 93.7659L98.5376 96.0466C97.6507 96.7797 97.4579 98.1644 98.1134 99.1418L102.355 105.454Z" fill="#FCDBBF"/>
</g>
</g>
<g id="Group_44">
<g id="Group_45">
<path id="Vector_18" d="M115.504 124.351L110.144 127.121C105.941 129.279 100.812 127.447 98.7684 123.007C96.7246 118.568 98.4599 113.152 102.663 110.993L108.023 108.224C112.226 106.065 117.355 107.898 119.399 112.337C121.481 116.776 119.746 122.193 115.504 124.351Z" fill="#FACEA7"/>
</g>
<g id="Group_46">
<g id="Group_47">
<path id="Vector_19" d="M119.437 112.337C119.398 112.215 119.321 112.134 119.283 112.011C120.748 115.636 119.283 119.912 115.889 121.664L107.946 125.736C104.552 127.487 100.465 126.062 98.6524 122.6C98.691 122.722 98.7296 122.804 98.7681 122.926C100.812 127.365 105.94 129.239 110.144 127.039L115.504 124.27C119.745 122.193 121.481 116.776 119.437 112.337Z" fill="#F8BE91"/>
</g>
</g>
<g id="Group_48">
<g id="Group_49">
<path id="Vector_20" d="M107.175 124.799C106.943 124.799 106.712 124.759 106.481 124.677C105.787 124.474 105.208 123.985 104.861 123.293L101.738 117.102C101.082 115.799 101.506 114.17 102.702 113.396L105.401 111.686C106.673 110.871 108.139 110.668 109.566 111.115C111.069 111.563 112.342 112.663 113.113 114.17C114.656 117.224 113.73 121.093 111.031 122.763L108.486 124.351C108.1 124.677 107.638 124.799 107.175 124.799ZM108.139 111.726C107.329 111.726 106.519 111.971 105.787 112.419L103.087 114.129C102.2 114.659 101.892 115.84 102.393 116.776L105.517 122.967C105.748 123.456 106.172 123.822 106.673 123.944C107.175 124.107 107.715 124.026 108.139 123.741L110.684 122.152C113.036 120.686 113.846 117.265 112.496 114.577C111.802 113.233 110.722 112.297 109.411 111.889C108.949 111.767 108.524 111.726 108.139 111.726Z" fill="#FCDBBF"/>
</g>
</g>
</g>
<g id="Group_50">
<path id="Vector_21" d="M91.9049 143.9H35.7986V119.301C35.7986 108.102 44.3977 98.979 55.0405 98.979H72.6629C83.2672 98.979 91.9049 108.061 91.9049 119.301V143.9Z" fill="#FE9868"/>
</g>
<g id="Group_51">
<path id="Vector_22" d="M111.301 84.969L105.132 88.7565C100.273 91.7703 93.6405 90.5078 90.4399 85.9872C87.2008 81.4665 88.5504 75.3169 93.4091 72.3439L99.5788 68.5564C104.438 65.5426 111.07 66.8051 114.271 71.3257C117.51 75.8463 116.16 81.996 111.301 84.969Z" fill="#FACEA7"/>
</g>
<g id="Group_52">
<g id="Group_53">
<path id="Vector_23" d="M114.269 71.326C114.192 71.2039 114.115 71.1224 113.999 71.0002C116.39 74.7063 115.233 79.5935 111.3 81.9963L102.122 87.6572C98.1891 90.0601 92.9062 89.1641 90.1684 85.6617C90.2455 85.7838 90.3226 85.906 90.3998 85.9875C93.6389 90.5081 100.233 91.7706 105.091 88.7569L111.261 84.9693C116.158 81.9963 117.508 75.8467 114.269 71.326Z" fill="#F8BE91"/>
</g>
</g>
<g id="Group_54">
<g id="Group_55">
<path id="Vector_24" d="M99.2694 86.6392C99.1151 86.6392 98.9994 86.6392 98.8452 86.5985C98.074 86.4763 97.3799 86.0283 96.9171 85.3767L92.6369 79.0641C91.75 77.7609 91.9813 75.9282 93.1767 74.9101L95.9145 72.6294C97.1871 71.5705 98.7681 71.1225 100.388 71.3669C102.084 71.6113 103.627 72.6294 104.668 74.177C106.75 77.2722 106.287 81.6299 103.588 83.8698L101.005 86.0283C100.542 86.4356 99.9249 86.6392 99.2694 86.6392ZM97.5341 84.9287C97.8812 85.4174 98.3824 85.7432 98.9609 85.8654C99.5393 85.9469 100.118 85.784 100.58 85.4174L103.164 83.2589C105.555 81.2634 105.979 77.3944 104.128 74.625C103.203 73.2403 101.853 72.3443 100.31 72.1407C98.9223 71.9371 97.5341 72.3443 96.4158 73.2403L93.678 75.521C92.7911 76.254 92.5983 77.6387 93.2538 78.6161L97.5341 84.9287Z" fill="#FCDBBF"/>
</g>
</g>
<path id="Vector_25" d="M63.8319 161.534C67.7292 161.534 70.8886 158.198 70.8886 154.082C70.8886 149.965 67.7292 146.629 63.8319 146.629C59.9346 146.629 56.7753 149.965 56.7753 154.082C56.7753 158.198 59.9346 161.534 63.8319 161.534Z" fill="#FE9868"/>
<g id="Group_56">
<g id="Group_57">
<g id="Group_58">
<path id="Vector_26" d="M73.4716 100.852L72.6233 78.6159L56.042 78.1272L55.0394 104.192C54.9238 107.043 57.276 106.513 59.9753 106.391L69.1142 105.902C71.6592 105.74 73.5873 103.5 73.4716 100.852Z" fill="#FACBB6"/>
</g>
<path id="Vector_27" d="M56.6602 83.259L73.2029 93.522L72.6245 78.6162L56.6602 83.259Z" fill="#F6B7A0"/>
<g id="Group_59">
<path id="Vector_28" d="M92.407 62.7735C92.407 66.3981 89.6306 69.3304 86.1987 69.3304C82.7667 69.3304 79.9903 66.3981 79.9903 62.7735C79.9903 59.1488 82.7667 56.2166 86.1987 56.2166C89.6306 56.2166 92.407 59.1488 92.407 62.7735Z" fill="#FACBB6"/>
</g>
<g id="Group_60">
<path id="Vector_29" d="M43.3561 69.3306C46.7849 69.3306 49.5644 66.395 49.5644 62.7737C49.5644 59.1524 46.7849 56.2168 43.3561 56.2168C39.9274 56.2168 37.1478 59.1524 37.1478 62.7737C37.1478 66.395 39.9274 69.3306 43.3561 69.3306Z" fill="#FACBB6"/>
</g>
<path id="Vector_30" d="M84.0763 51.0448C84.0763 59.3937 82.9195 66.6022 81.8012 71.7337C80.683 76.743 77.521 80.2454 73.0865 83.0556L72.2767 83.5443C67.5337 86.558 61.5182 86.6394 56.6981 83.7479C51.8779 80.8563 48.5231 77.0281 47.482 71.6522C45.5925 61.878 45.3997 51.0448 45.3997 51.0448C45.3997 51.0448 43.5873 29.9487 64.4488 30.3559C85.3103 30.8039 84.0763 51.0448 84.0763 51.0448Z" fill="#FACBB6"/>
<g id="Group_61">
<path id="Vector_31" d="M46.5189 59.6378C46.5189 59.6378 50.9148 44.6506 47.7142 34.9578C47.7528 34.9578 35.4519 38.6638 46.5189 59.6378Z" fill="#01384F"/>
<path id="Vector_32" d="M83.3061 59.6378C83.3061 59.6378 77.7533 44.6506 80.9538 34.9578C80.9153 34.9578 92.4065 37.9308 83.3061 59.6378Z" fill="#01384F"/>
</g>
<path id="Vector_33" d="M48.6385 41.6777C48.6385 41.6777 52.1476 34.9578 58.4716 38.6639C64.7956 42.37 71.0425 45.9132 82.3408 42.9809L80.837 34.9171C80.837 34.9171 65.1427 17.2827 47.636 34.9171L48.6385 41.6777Z" fill="#01384F"/>
<path id="Vector_34" d="M47.636 34.917C47.636 34.917 48.6386 22.6991 64.9884 21.6402C81.3382 20.5814 86.1584 29.7855 86.1584 29.7855L83.1892 30.3556C83.1892 30.3556 88.8962 32.9621 90.4001 35.4871L87.1995 36.6682L91.4412 40.6594C91.4412 40.6594 78.0991 46.1167 70.734 43.1844L64.6028 33.4101L47.636 34.917Z" fill="#01384F"/>
<path id="Vector_35" d="M57.8553 98.6943L50.9529 98.8165C50.9529 98.8165 50.2202 108.061 63.678 108.509C77.1358 108.957 77.3672 99.3867 77.3672 99.3867L70.0791 98.6943H57.8553Z" fill="#FACBB6"/>
</g>
</g>
<g id="Group_62">
<path id="Vector_36" d="M88.3569 87.2503H38.5361V34.6729H88.3569V87.2503ZM39.1916 86.5987H87.7013V35.3245H39.1916V86.5987Z" fill="#455A64"/>
</g>
<mask id="mask0_2_11050" style="mask-type:alpha" maskUnits="userSpaceOnUse" x="38" y="51" width="51" height="24">
<g id="SVGID 1">
<g id="Group_63">
<path id="Vector_37" d="M88.1648 51.533H38.7682V74.0545H88.1648V51.533Z" fill="url(#paint0_linear_2_11050)"/>
</g>
</g>
</mask>
<g mask="url(#mask0_2_11050)">
<path id="Vector_38" d="M88.1633 51.533H38.7666V74.0545H88.1633V51.533Z" fill="#455A64"/>
</g>
</g>
<defs>
<linearGradient id="paint0_linear_2_11050" x1="63.4425" y1="49.7029" x2="63.4425" y2="73.0212" gradientUnits="userSpaceOnUse">
<stop stop-color="white"/>
<stop offset="1"/>
</linearGradient>
</defs>
</svg>
